<svg xmlns="http://www.w3.org/2000/svg" xmlns:xlink="http://www.w3.org/1999/xlink" width="103" zoomAndPan="magnify" viewBox="0 0 77.25 74.249996" height="99" preserveAspectRatio="xMidYMid meet" version="1.0"><defs><clipPath id="6219e1eb7e"><path d="M 0.015625 0 L 76.105469 0 L 76.105469 73.230469 L 0.015625 73.230469 Z M 0.015625 0 " clip-rule="nonzero"/></clipPath><clipPath id="09a88a83ec"><path d="M 36.628906 0 L 39.40625 0 C 49.117188 0 58.433594 3.859375 65.300781 10.722656 C 72.164062 17.589844 76.023438 26.90625 76.023438 36.617188 C 76.023438 46.328125 72.164062 55.640625 65.300781 62.507812 C 58.433594 69.375 49.117188 73.230469 39.40625 73.230469 L 36.628906 73.230469 C 26.917969 73.230469 17.605469 69.375 10.738281 62.507812 C 3.871094 55.640625 0.015625 46.328125 0.015625 36.617188 C 0.015625 26.90625 3.871094 17.589844 10.738281 10.722656 C 17.605469 3.859375 26.917969 0 36.628906 0 Z M 36.628906 0 " clip-rule="nonzero"/></clipPath><clipPath id="6dc0107d54"><path d="M 0.015625 0 L 76.046875 0 L 76.046875 73.230469 L 0.015625 73.230469 Z M 0.015625 0 " clip-rule="nonzero"/></clipPath><clipPath id="a302aa297f"><path d="M 36.628906 0 L 39.40625 0 C 49.117188 0 58.433594 3.859375 65.300781 10.722656 C 72.164062 17.589844 76.023438 26.90625 76.023438 36.617188 C 76.023438 46.328125 72.164062 55.640625 65.300781 62.507812 C 58.433594 69.375 49.117188 73.230469 39.40625 73.230469 L 36.628906 73.230469 C 26.917969 73.230469 17.605469 69.375 10.738281 62.507812 C 3.871094 55.640625 0.015625 46.328125 0.015625 36.617188 C 0.015625 26.90625 3.871094 17.589844 10.738281 10.722656 C 17.605469 3.859375 26.917969 0 36.628906 0 Z M 36.628906 0 " clip-rule="nonzero"/></clipPath><clipPath id="ee085992e0"><rect x="0" width="77" y="0" height="74"/></clipPath><clipPath id="c4fd1f1080"><path d="M 14.765625 15.910156 L 61.542969 15.910156 L 61.542969 57.492188 L 14.765625 57.492188 Z M 14.765625 15.910156 " clip-rule="nonzero"/></clipPath><clipPath id="b0ce9dfae5"><path d="M 14 0.910156 L 47.265625 0.910156 L 47.265625 38 L 14 38 Z M 14 0.910156 " clip-rule="nonzero"/></clipPath><clipPath id="d0b6156021"><path d="M 0.765625 26 L 18 26 L 18 42.492188 L 0.765625 42.492188 Z M 0.765625 26 " clip-rule="nonzero"/></clipPath><clipPath id="13e2046ad8"><path d="M 0.765625 0.910156 L 16 0.910156 L 16 13 L 0.765625 13 Z M 0.765625 0.910156 " clip-rule="nonzero"/></clipPath><clipPath id="db8d874514"><rect x="0" width="48" y="0" height="43"/></clipPath></defs><g clip-path="url(#6219e1eb7e)"><g clip-path="url(#09a88a83ec)"><g transform="matrix(1, 0, 0, 1, 0.000000000000000005, 0.000000000000006949)"><g clip-path="url(#ee085992e0)"><g clip-path="url(#6dc0107d54)"><g clip-path="url(#a302aa297f)"><path fill="#e9e3d8" d="M 0.015625 0 L 76.105469 0 L 76.105469 73.230469 L 0.015625 73.230469 Z M 0.015625 0 " fill-opacity="1" fill-rule="nonzero"/></g></g></g></g></g></g><g clip-path="url(#c4fd1f1080)"><g transform="matrix(1, 0, 0, 1, 14, 15)"><g clip-path="url(#db8d874514)"><g clip-path="url(#b0ce9dfae5)"><path fill="#3f5c4a" d="M 14.246094 24.96875 C 13.929688 24.039062 14.261719 22.902344 15.378906 21.167969 C 16.332031 19.675781 16.492188 18.4375 16.726562 16.558594 C 16.859375 15.488281 17.019531 14.28125 17.355469 12.761719 C 19.082031 5.039062 24.6875 0.957031 33.566406 0.957031 C 38.527344 0.957031 42.640625 3.597656 45.136719 8.382812 C 47.582031 13.066406 47.742188 18.335938 46.359375 20.3125 C 44.074219 23.589844 42.882812 25.507812 42.882812 30.007812 L 42.882812 36.777344 C 42.882812 37.117188 42.597656 37.402344 42.253906 37.402344 C 41.910156 37.402344 41.625 37.117188 41.625 36.777344 L 41.625 30.007812 C 41.625 25.136719 42.96875 22.984375 45.328125 19.59375 C 46.34375 18.140625 46.335938 13.398438 44.023438 8.960938 C 42.707031 6.4375 39.597656 2.207031 33.566406 2.207031 C 25.222656 2.207031 20.179688 5.84375 18.578125 13.023438 C 18.25 14.480469 18.101562 15.664062 17.964844 16.703125 C 17.722656 18.59375 17.539062 20.09375 16.425781 21.828125 C 15.578125 23.152344 15.25 24.039062 15.429688 24.542969 C 15.546875 24.894531 15.957031 25.179688 16.675781 25.441406 C 19.414062 26.410156 19.84375 29.703125 19.925781 32.101562 C 19.992188 34.128906 21.265625 34.679688 25.816406 34.679688 C 29.578125 34.679688 29.722656 30.632812 29.722656 30.457031 C 29.730469 30.113281 30.015625 29.847656 30.367188 29.847656 C 30.710938 29.847656 30.984375 30.140625 30.976562 30.484375 C 30.945312 32.367188 29.8125 35.929688 25.816406 35.929688 C 21.820312 35.929688 18.796875 35.652344 18.671875 32.132812 C 18.5625 28.917969 17.789062 27.15625 16.257812 26.613281 C 15.144531 26.210938 14.496094 25.683594 14.246094 24.9375 Z M 14.246094 24.96875 " fill-opacity="1" fill-rule="nonzero"/></g><path fill="#3f5c4a" d="M 28.371094 16.675781 C 28.371094 14.480469 30.15625 12.695312 32.351562 12.695312 C 34.546875 12.695312 36.332031 14.480469 36.332031 16.675781 C 36.332031 18.871094 34.546875 20.65625 32.351562 20.65625 C 30.15625 20.65625 28.371094 18.871094 28.371094 16.675781 Z M 32.351562 19.398438 C 33.851562 19.398438 35.074219 18.175781 35.074219 16.675781 C 35.074219 15.175781 33.851562 13.953125 32.351562 13.953125 C 30.851562 13.953125 29.628906 15.175781 29.628906 16.675781 C 29.628906 18.175781 30.851562 19.398438 32.351562 19.398438 Z M 32.351562 19.398438 " fill-opacity="1" fill-rule="nonzero"/><path fill="#3f5c4a" d="M 30.046875 23.378906 L 30.046875 22.742188 C 29.921875 22.699219 29.804688 22.648438 29.6875 22.589844 L 29.242188 23.035156 C 28.371094 23.90625 26.855469 23.90625 25.984375 23.035156 C 25.089844 22.140625 25.089844 20.671875 25.984375 19.777344 L 26.429688 19.332031 C 26.378906 19.214844 26.328125 19.097656 26.277344 18.972656 L 25.640625 18.972656 C 24.367188 18.972656 23.335938 17.941406 23.335938 16.667969 C 23.335938 15.394531 24.367188 14.363281 25.640625 14.363281 L 26.277344 14.363281 C 26.320312 14.238281 26.371094 14.121094 26.429688 14.003906 L 25.984375 13.558594 C 25.089844 12.664062 25.089844 11.195312 25.984375 10.300781 C 26.855469 9.429688 28.371094 9.429688 29.242188 10.300781 L 29.6875 10.746094 C 29.804688 10.695312 29.921875 10.644531 30.046875 10.59375 L 30.046875 9.957031 C 30.046875 8.683594 31.078125 7.652344 32.351562 7.652344 C 33.625 7.652344 34.65625 8.683594 34.65625 9.957031 L 34.65625 10.59375 C 34.78125 10.636719 34.898438 10.6875 35.015625 10.746094 L 35.460938 10.300781 C 36.332031 9.429688 37.847656 9.429688 38.71875 10.300781 C 39.617188 11.195312 39.617188 12.664062 38.71875 13.558594 L 38.273438 14.003906 C 38.324219 14.121094 38.375 14.238281 38.425781 14.363281 L 39.0625 14.363281 C 40.335938 14.363281 41.367188 15.394531 41.367188 16.667969 C 41.367188 17.941406 40.335938 18.972656 39.0625 18.972656 L 38.425781 18.972656 C 38.382812 19.097656 38.332031 19.214844 38.273438 19.332031 L 38.71875 19.777344 C 39.617188 20.671875 39.617188 22.140625 38.71875 23.035156 C 37.847656 23.90625 36.332031 23.90625 35.460938 23.035156 L 35.015625 22.589844 C 34.898438 22.640625 34.78125 22.691406 34.65625 22.742188 L 34.65625 23.378906 C 34.65625 24.652344 33.625 25.683594 32.351562 25.683594 C 31.078125 25.683594 30.046875 24.652344 30.046875 23.378906 Z M 31.304688 22.296875 L 31.304688 23.378906 C 31.304688 23.957031 31.773438 24.425781 32.351562 24.425781 C 32.929688 24.425781 33.398438 23.957031 33.398438 23.378906 L 33.398438 22.296875 C 33.398438 22.023438 33.582031 21.777344 33.851562 21.695312 C 34.203125 21.585938 34.539062 21.453125 34.847656 21.285156 C 34.941406 21.234375 35.050781 21.207031 35.148438 21.207031 C 35.308594 21.207031 35.476562 21.277344 35.59375 21.394531 L 36.355469 22.15625 C 36.75 22.550781 37.445312 22.550781 37.839844 22.15625 C 38.234375 21.761719 38.25 21.082031 37.839844 20.671875 L 37.078125 19.910156 C 36.882812 19.71875 36.835938 19.40625 36.96875 19.164062 C 37.136719 18.855469 37.269531 18.519531 37.378906 18.167969 C 37.453125 17.898438 37.707031 17.714844 37.980469 17.714844 L 39.0625 17.714844 C 39.640625 17.714844 40.109375 17.246094 40.109375 16.667969 C 40.109375 16.089844 39.640625 15.621094 39.0625 15.621094 L 37.980469 15.621094 C 37.707031 15.621094 37.460938 15.4375 37.378906 15.167969 C 37.277344 14.816406 37.136719 14.480469 36.96875 14.171875 C 36.835938 13.929688 36.875 13.625 37.078125 13.425781 L 37.839844 12.664062 C 38.25 12.253906 38.25 11.589844 37.839844 11.179688 C 37.429688 10.769531 36.75 10.785156 36.355469 11.179688 L 35.59375 11.941406 C 35.402344 12.136719 35.089844 12.183594 34.847656 12.050781 C 34.546875 11.882812 34.210938 11.75 33.851562 11.640625 C 33.582031 11.566406 33.398438 11.3125 33.398438 11.039062 L 33.398438 9.957031 C 33.398438 9.378906 32.929688 8.910156 32.351562 8.910156 C 31.773438 8.910156 31.304688 9.378906 31.304688 9.957031 L 31.304688 11.039062 C 31.304688 11.3125 31.121094 11.558594 30.851562 11.640625 C 30.5 11.75 30.164062 11.882812 29.855469 12.050781 C 29.613281 12.183594 29.308594 12.144531 29.109375 11.941406 L 28.347656 11.179688 C 27.953125 10.785156 27.257812 10.785156 26.863281 11.179688 C 26.46875 11.574219 26.453125 12.253906 26.863281 12.664062 L 27.625 13.425781 C 27.820312 13.617188 27.871094 13.929688 27.734375 14.171875 C 27.566406 14.480469 27.433594 14.816406 27.324219 15.167969 C 27.25 15.4375 27 15.621094 26.722656 15.621094 L 25.640625 15.621094 C 25.0625 15.621094 24.59375 16.089844 24.59375 16.667969 C 24.59375 17.246094 25.0625 17.714844 25.640625 17.714844 L 26.722656 17.714844 C 27 17.714844 27.242188 17.898438 27.324219 18.167969 C 27.425781 18.519531 27.566406 18.855469 27.734375 19.164062 C 27.871094 19.40625 27.828125 19.710938 27.625 19.910156 L 26.863281 20.671875 C 26.453125 21.082031 26.453125 21.746094 26.863281 22.15625 C 27.273438 22.566406 27.953125 22.550781 28.347656 22.15625 L 29.109375 21.394531 C 29.308594 21.191406 29.613281 21.148438 29.855469 21.285156 C 30.15625 21.453125 30.492188 21.585938 30.851562 21.695312 C 31.121094 21.769531 31.304688 22.023438 31.304688 22.296875 Z M 31.304688 22.296875 " fill-opacity="1" fill-rule="nonzero"/><g clip-path="url(#d0b6156021)"><path fill="#3f5c4a" d="M 8.894531 26.101562 C 13.398438 26.101562 17.0625 29.761719 17.0625 34.269531 C 17.0625 38.777344 13.398438 42.4375 8.894531 42.4375 C 4.386719 42.4375 0.722656 38.777344 0.722656 34.269531 C 0.722656 29.761719 4.386719 26.101562 8.894531 26.101562 Z M 8.894531 41.183594 C 12.703125 41.183594 15.804688 38.082031 15.804688 34.269531 C 15.804688 30.457031 12.703125 27.359375 8.894531 27.359375 C 5.082031 27.359375 1.980469 30.457031 1.980469 34.269531 C 1.980469 38.082031 5.082031 41.183594 8.894531 41.183594 Z M 8.894531 41.183594 " fill-opacity="1" fill-rule="nonzero"/></g><path fill="#3f5c4a" d="M 11.851562 32.644531 C 12.09375 32.886719 12.09375 33.289062 11.851562 33.53125 C 11.441406 33.945312 11.441406 34.605469 11.851562 35.015625 C 12.09375 35.257812 12.09375 35.660156 11.851562 35.902344 C 11.726562 36.03125 11.566406 36.089844 11.40625 36.089844 C 11.246094 36.089844 11.089844 36.03125 10.960938 35.902344 C 10.066406 35.007812 10.066406 33.542969 10.960938 32.644531 C 11.207031 32.402344 11.605469 32.402344 11.851562 32.644531 Z M 11.851562 32.644531 " fill-opacity="1" fill-rule="nonzero"/><path fill="#3f5c4a" d="M 9.1875 30.859375 C 9.429688 30.617188 9.832031 30.617188 10.074219 30.859375 C 10.316406 31.101562 10.316406 31.503906 10.074219 31.75 C 9.402344 32.417969 9.035156 33.316406 9.035156 34.261719 C 9.035156 35.207031 9.402344 36.105469 10.074219 36.777344 C 10.316406 37.019531 10.316406 37.421875 10.074219 37.664062 C 9.949219 37.789062 9.789062 37.847656 9.628906 37.847656 C 9.472656 37.847656 9.3125 37.789062 9.1875 37.664062 C 8.273438 36.75 7.777344 35.542969 7.777344 34.253906 C 7.777344 32.964844 8.28125 31.757812 9.1875 30.84375 Z M 9.1875 30.859375 " fill-opacity="1" fill-rule="nonzero"/><path fill="#3f5c4a" d="M 8.296875 29.085938 C 8.539062 29.328125 8.539062 29.730469 8.296875 29.972656 C 5.925781 32.34375 5.925781 36.199219 8.296875 38.558594 C 8.539062 38.804688 8.539062 39.207031 8.296875 39.449219 C 8.171875 39.574219 8.011719 39.632812 7.855469 39.632812 C 7.695312 39.632812 7.535156 39.574219 7.410156 39.449219 C 4.554688 36.589844 4.554688 31.941406 7.410156 29.074219 C 7.652344 28.832031 8.054688 28.832031 8.296875 29.074219 Z M 8.296875 29.085938 " fill-opacity="1" fill-rule="nonzero"/><g clip-path="url(#13e2046ad8)"><path fill="#3f5c4a" d="M 2.332031 0.96875 L 13.777344 0.96875 C 14.664062 0.96875 15.386719 1.6875 15.386719 2.574219 L 15.386719 8.992188 C 15.386719 9.882812 14.664062 10.601562 13.777344 10.601562 L 13.222656 10.601562 C 13.03125 10.601562 12.871094 10.761719 12.871094 10.953125 C 12.871094 11.605469 12.480469 12.195312 11.875 12.445312 C 11.675781 12.527344 11.464844 12.570312 11.253906 12.570312 C 10.835938 12.570312 10.425781 12.402344 10.117188 12.101562 L 8.726562 10.710938 C 8.660156 10.644531 8.566406 10.609375 8.472656 10.609375 L 2.324219 10.609375 C 1.4375 10.609375 0.714844 9.890625 0.714844 9 L 0.714844 2.585938 C 0.714844 1.695312 1.4375 0.976562 2.324219 0.976562 Z M 1.980469 8.992188 C 1.980469 9.1875 2.140625 9.34375 2.332031 9.34375 L 8.480469 9.34375 C 8.910156 9.34375 9.320312 9.519531 9.621094 9.8125 L 11.011719 11.207031 C 11.164062 11.355469 11.332031 11.304688 11.398438 11.28125 C 11.464844 11.253906 11.617188 11.164062 11.617188 10.953125 C 11.617188 10.066406 12.335938 9.34375 13.222656 9.34375 L 13.777344 9.34375 C 13.96875 9.34375 14.128906 9.1875 14.128906 8.992188 L 14.128906 2.574219 C 14.128906 2.382812 13.96875 2.222656 13.777344 2.222656 L 2.332031 2.222656 C 2.140625 2.222656 1.980469 2.382812 1.980469 2.574219 Z M 1.980469 8.992188 " fill-opacity="1" fill-rule="nonzero"/></g><path fill="#3f5c4a" d="M 3.867188 3.898438 L 12.242188 3.898438 C 12.585938 3.898438 12.871094 4.183594 12.871094 4.527344 C 12.871094 4.871094 12.585938 5.15625 12.242188 5.15625 L 3.867188 5.15625 C 3.523438 5.15625 3.238281 4.871094 3.238281 4.527344 C 3.238281 4.183594 3.523438 3.898438 3.867188 3.898438 Z M 3.867188 3.898438 " fill-opacity="1" fill-rule="nonzero"/><path fill="#3f5c4a" d="M 3.867188 6.414062 L 12.242188 6.414062 C 12.585938 6.414062 12.871094 6.699219 12.871094 7.042969 C 12.871094 7.382812 12.585938 7.667969 12.242188 7.667969 L 3.867188 7.667969 C 3.523438 7.667969 3.238281 7.382812 3.238281 7.042969 C 3.238281 6.699219 3.523438 6.414062 3.867188 6.414062 Z M 3.867188 6.414062 " fill-opacity="1" fill-rule="nonzero"/></g></g></g></svg>