<svg xmlns="http://www.w3.org/2000/svg" xmlns:xlink="http://www.w3.org/1999/xlink" width="103" zoomAndPan="magnify" viewBox="0 0 77.25 74.249996" height="99" preserveAspectRatio="xMidYMid meet" version="1.0"><defs><clipPath id="292027ff47"><path d="M 0.015625 0 L 76.105469 0 L 76.105469 73.230469 L 0.015625 73.230469 Z M 0.015625 0 " clip-rule="nonzero"/></clipPath><clipPath id="403562f17d"><path d="M 36.628906 0 L 39.40625 0 C 49.117188 0 58.433594 3.859375 65.300781 10.722656 C 72.164062 17.589844 76.023438 26.90625 76.023438 36.617188 C 76.023438 46.328125 72.164062 55.640625 65.300781 62.507812 C 58.433594 69.375 49.117188 73.230469 39.40625 73.230469 L 36.628906 73.230469 C 26.917969 73.230469 17.605469 69.375 10.738281 62.507812 C 3.871094 55.640625 0.015625 46.328125 0.015625 36.617188 C 0.015625 26.90625 3.871094 17.589844 10.738281 10.722656 C 17.605469 3.859375 26.917969 0 36.628906 0 Z M 36.628906 0 " clip-rule="nonzero"/></clipPath><clipPath id="b78173ba3e"><path d="M 0.015625 0 L 76.046875 0 L 76.046875 73.230469 L 0.015625 73.230469 Z M 0.015625 0 " clip-rule="nonzero"/></clipPath><clipPath id="9b11f5bb92"><path d="M 36.628906 0 L 39.40625 0 C 49.117188 0 58.433594 3.859375 65.300781 10.722656 C 72.164062 17.589844 76.023438 26.90625 76.023438 36.617188 C 76.023438 46.328125 72.164062 55.640625 65.300781 62.507812 C 58.433594 69.375 49.117188 73.230469 39.40625 73.230469 L 36.628906 73.230469 C 26.917969 73.230469 17.605469 69.375 10.738281 62.507812 C 3.871094 55.640625 0.015625 46.328125 0.015625 36.617188 C 0.015625 26.90625 3.871094 17.589844 10.738281 10.722656 C 17.605469 3.859375 26.917969 0 36.628906 0 Z M 36.628906 0 " clip-rule="nonzero"/></clipPath><clipPath id="b8dbafe109"><rect x="0" width="77" y="0" height="74"/></clipPath><clipPath id="d892c925ba"><path d="M 28 21.25 L 48 21.25 L 48 42 L 28 42 Z M 28 21.25 " clip-rule="nonzero"/></clipPath><clipPath id="5a0e4b8e40"><path d="M 8.546875 26 L 33 26 L 33 50.207031 L 8.546875 50.207031 Z M 8.546875 26 " clip-rule="nonzero"/></clipPath><clipPath id="7519af3f31"><path d="M 43 26 L 67.203125 26 L 67.203125 50.207031 L 43 50.207031 Z M 43 26 " clip-rule="nonzero"/></clipPath></defs><g clip-path="url(#292027ff47)"><g clip-path="url(#403562f17d)"><g transform="matrix(1, 0, 0, 1, 0.000000000000000005, 0.000000000000006949)"><g clip-path="url(#b8dbafe109)"><g clip-path="url(#b78173ba3e)"><g clip-path="url(#9b11f5bb92)"><path fill="#e9e3d8" d="M 0.015625 0 L 76.105469 0 L 76.105469 73.230469 L 0.015625 73.230469 Z M 0.015625 0 " fill-opacity="1" fill-rule="nonzero"/></g></g></g></g></g></g><g clip-path="url(#d892c925ba)"><path fill="#7a5c42" d="M 38.011719 21.25 C 42.269531 21.25 45.730469 24.710938 45.730469 28.96875 C 45.730469 31.679688 44.335938 34.0625 42.222656 35.441406 C 44.40625 36.230469 46.324219 37.625 47.757812 39.457031 C 48.101562 39.894531 48.019531 40.527344 47.582031 40.871094 C 47.144531 41.214844 46.511719 41.136719 46.167969 40.695312 C 44.203125 38.1875 41.199219 36.730469 38.011719 36.730469 C 34.828125 36.730469 31.824219 38.1875 29.859375 40.695312 C 29.515625 41.132812 28.882812 41.214844 28.445312 40.871094 C 28.003906 40.527344 27.925781 39.894531 28.269531 39.457031 C 29.707031 37.621094 31.617188 36.234375 33.804688 35.441406 C 31.691406 34.0625 30.292969 31.675781 30.292969 28.96875 C 30.292969 24.714844 33.757812 21.25 38.011719 21.25 Z M 38.011719 23.273438 C 34.863281 23.273438 32.316406 25.820312 32.316406 28.96875 C 32.316406 32.121094 34.863281 34.664062 38.011719 34.664062 C 41.160156 34.664062 43.707031 32.121094 43.707031 28.96875 C 43.707031 25.816406 41.164062 23.273438 38.011719 23.273438 Z M 38.011719 23.273438 " fill-opacity="1" fill-rule="nonzero"/></g><g clip-path="url(#5a0e4b8e40)"><path fill="#7a5c42" d="M 20.53125 26.804688 C 24.789062 26.804688 28.25 30.269531 28.25 34.527344 C 28.25 37.132812 26.941406 39.539062 24.777344 40.96875 C 28.386719 42.289062 31.203125 45.238281 32.347656 48.917969 C 32.515625 49.449219 32.21875 50.015625 31.6875 50.183594 C 31.152344 50.347656 30.585938 50.050781 30.421875 49.519531 C 29.074219 45.191406 25.0625 42.246094 20.53125 42.246094 C 16 42.246094 11.992188 45.191406 10.644531 49.519531 C 10.476562 50.050781 9.910156 50.347656 9.378906 50.183594 C 8.847656 50.015625 8.550781 49.449219 8.714844 48.917969 C 9.859375 45.242188 12.679688 42.289062 16.285156 40.96875 C 14.125 39.539062 12.8125 37.136719 12.8125 34.527344 C 12.8125 30.269531 16.273438 26.804688 20.53125 26.804688 Z M 20.53125 28.832031 C 17.378906 28.832031 14.835938 31.375 14.835938 34.527344 C 14.835938 37.675781 17.382812 40.222656 20.53125 40.222656 C 23.683594 40.222656 26.226562 37.675781 26.226562 34.527344 C 26.226562 31.375 23.683594 28.832031 20.53125 28.832031 Z M 20.53125 28.832031 " fill-opacity="1" fill-rule="nonzero"/></g><g clip-path="url(#7519af3f31)"><path fill="#7a5c42" d="M 55.496094 26.804688 C 59.753906 26.804688 63.214844 30.269531 63.214844 34.527344 C 63.214844 37.136719 61.90625 39.535156 59.742188 40.96875 C 63.351562 42.292969 66.167969 45.234375 67.3125 48.917969 C 67.480469 49.449219 67.183594 50.015625 66.648438 50.183594 C 66.117188 50.347656 65.550781 50.050781 65.382812 49.519531 C 64.039062 45.191406 60.027344 42.246094 55.496094 42.246094 C 50.96875 42.246094 46.953125 45.191406 45.605469 49.519531 C 45.441406 50.050781 44.875 50.347656 44.339844 50.183594 C 43.808594 50.015625 43.511719 49.449219 43.679688 48.917969 C 44.820312 45.238281 47.640625 42.292969 51.246094 40.972656 C 49.085938 39.539062 47.777344 37.132812 47.777344 34.527344 C 47.777344 30.269531 51.238281 26.804688 55.496094 26.804688 Z M 55.496094 28.832031 C 52.347656 28.832031 49.800781 31.378906 49.800781 34.527344 C 49.800781 37.675781 52.347656 40.222656 55.496094 40.222656 C 58.644531 40.222656 61.191406 37.675781 61.191406 34.527344 C 61.191406 31.375 58.648438 28.832031 55.496094 28.832031 Z M 55.496094 28.832031 " fill-opacity="1" fill-rule="nonzero"/></g></svg>