<svg xmlns="http://www.w3.org/2000/svg" xmlns:xlink="http://www.w3.org/1999/xlink" width="103" zoomAndPan="magnify" viewBox="0 0 77.25 74.249996" height="99" preserveAspectRatio="xMidYMid meet" version="1.0"><defs><clipPath id="3b8ffc7611"><path d="M 0.015625 0 L 76.105469 0 L 76.105469 73.230469 L 0.015625 73.230469 Z M 0.015625 0 " clip-rule="nonzero"/></clipPath><clipPath id="843c67fdbf"><path d="M 36.628906 0 L 39.40625 0 C 49.117188 0 58.433594 3.859375 65.300781 10.722656 C 72.164062 17.589844 76.023438 26.90625 76.023438 36.617188 C 76.023438 46.328125 72.164062 55.640625 65.300781 62.507812 C 58.433594 69.375 49.117188 73.230469 39.40625 73.230469 L 36.628906 73.230469 C 26.917969 73.230469 17.605469 69.375 10.738281 62.507812 C 3.871094 55.640625 0.015625 46.328125 0.015625 36.617188 C 0.015625 26.90625 3.871094 17.589844 10.738281 10.722656 C 17.605469 3.859375 26.917969 0 36.628906 0 Z M 36.628906 0 " clip-rule="nonzero"/></clipPath><clipPath id="35f0fcc07f"><path d="M 0.015625 0 L 76.046875 0 L 76.046875 73.230469 L 0.015625 73.230469 Z M 0.015625 0 " clip-rule="nonzero"/></clipPath><clipPath id="3a153f42b2"><path d="M 36.628906 0 L 39.40625 0 C 49.117188 0 58.433594 3.859375 65.300781 10.722656 C 72.164062 17.589844 76.023438 26.90625 76.023438 36.617188 C 76.023438 46.328125 72.164062 55.640625 65.300781 62.507812 C 58.433594 69.375 49.117188 73.230469 39.40625 73.230469 L 36.628906 73.230469 C 26.917969 73.230469 17.605469 69.375 10.738281 62.507812 C 3.871094 55.640625 0.015625 46.328125 0.015625 36.617188 C 0.015625 26.90625 3.871094 17.589844 10.738281 10.722656 C 17.605469 3.859375 26.917969 0 36.628906 0 Z M 36.628906 0 " clip-rule="nonzero"/></clipPath><clipPath id="bed91b7516"><rect x="0" width="77" y="0" height="74"/></clipPath><clipPath id="58e320b34d"><path d="M 16.941406 16.011719 L 59.265625 16.011719 L 59.265625 58.332031 L 16.941406 58.332031 Z M 16.941406 16.011719 " clip-rule="nonzero"/></clipPath></defs><g clip-path="url(#3b8ffc7611)"><g clip-path="url(#843c67fdbf)"><g transform="matrix(1, 0, 0, 1, 0.000000000000000005, 0.000000000000006949)"><g clip-path="url(#bed91b7516)"><g clip-path="url(#35f0fcc07f)"><g clip-path="url(#3a153f42b2)"><path fill="#e9e3d8" d="M 0.015625 0 L 76.105469 0 L 76.105469 73.230469 L 0.015625 73.230469 Z M 0.015625 0 " fill-opacity="1" fill-rule="nonzero"/></g></g></g></g></g></g><g clip-path="url(#58e320b34d)"><path fill="#7a5c42" d="M 38.011719 58.160156 C 26.445312 58.203125 16.960938 48.757812 16.941406 37.136719 C 16.921875 25.390625 26.367188 16.199219 37.648438 16.015625 C 49.429688 15.820312 58.929688 25.273438 59.089844 36.792969 C 59.246094 48.445312 49.851562 58.15625 38.011719 58.160156 Z M 38.6875 17.359375 C 38.6875 17.789062 38.691406 18.179688 38.6875 18.574219 C 38.683594 19.117188 38.441406 19.40625 38 19.398438 C 37.574219 19.390625 37.359375 19.121094 37.355469 18.585938 C 37.351562 18.1875 37.355469 17.785156 37.355469 17.355469 C 34.261719 17.488281 31.425781 18.234375 28.738281 19.667969 C 28.960938 20.058594 29.167969 20.410156 29.363281 20.765625 C 29.59375 21.183594 29.515625 21.574219 29.183594 21.765625 C 28.828125 21.972656 28.449219 21.84375 28.195312 21.417969 C 27.988281 21.070312 27.789062 20.71875 27.589844 20.375 C 25.609375 21.335938 22.03125 24.933594 21.320312 26.667969 C 21.652344 26.863281 21.992188 27.058594 22.332031 27.257812 C 22.773438 27.519531 22.910156 27.875 22.710938 28.234375 C 22.511719 28.597656 22.105469 28.664062 21.648438 28.40625 C 21.308594 28.214844 20.96875 28.019531 20.597656 27.804688 C 19.164062 30.519531 18.402344 33.355469 18.292969 36.414062 C 18.785156 36.414062 19.207031 36.40625 19.628906 36.417969 C 20.0625 36.429688 20.339844 36.707031 20.332031 37.09375 C 20.328125 37.492188 20.066406 37.734375 19.609375 37.742188 C 19.191406 37.75 18.769531 37.742188 18.296875 37.742188 C 18.402344 40.824219 19.164062 43.664062 20.578125 46.320312 C 20.648438 46.3125 20.664062 46.3125 20.675781 46.304688 C 21.007812 46.121094 21.335938 45.929688 21.667969 45.746094 C 22.109375 45.507812 22.503906 45.574219 22.707031 45.925781 C 22.914062 46.28125 22.777344 46.648438 22.34375 46.90625 C 21.996094 47.113281 21.644531 47.3125 21.300781 47.511719 C 22.308594 49.523438 25.746094 52.949219 27.59375 53.792969 C 27.695312 53.621094 27.796875 53.445312 27.898438 53.269531 C 28 53.09375 28.097656 52.914062 28.207031 52.738281 C 28.472656 52.308594 28.84375 52.1875 29.195312 52.410156 C 29.527344 52.617188 29.59375 52.996094 29.359375 53.414062 C 29.164062 53.769531 28.957031 54.121094 28.734375 54.503906 C 31.445312 55.933594 34.28125 56.703125 37.355469 56.804688 C 37.355469 56.359375 37.355469 55.980469 37.355469 55.605469 C 37.359375 55.054688 37.597656 54.761719 38.027344 54.769531 C 38.449219 54.777344 38.683594 55.078125 38.6875 55.625 C 38.691406 56.003906 38.6875 56.378906 38.6875 56.808594 C 41.761719 56.691406 44.597656 55.941406 47.292969 54.5 C 47.0625 54.101562 46.863281 53.761719 46.671875 53.417969 C 46.425781 52.972656 46.5 52.59375 46.863281 52.390625 C 47.230469 52.1875 47.570312 52.320312 47.839844 52.769531 C 48.046875 53.117188 48.25 53.464844 48.464844 53.828125 C 51.054688 52.191406 53.128906 50.117188 54.757812 47.53125 C 54.367188 47.304688 54.027344 47.109375 53.691406 46.910156 C 53.257812 46.652344 53.128906 46.289062 53.332031 45.925781 C 53.53125 45.574219 53.914062 45.507812 54.363281 45.753906 C 54.714844 45.949219 55.0625 46.148438 55.4375 46.359375 C 56.875 43.644531 57.621094 40.808594 57.742188 37.742188 C 57.289062 37.742188 56.882812 37.746094 56.476562 37.742188 C 55.976562 37.738281 55.710938 37.515625 55.703125 37.105469 C 55.691406 36.683594 55.980469 36.421875 56.480469 36.414062 C 56.886719 36.410156 57.292969 36.414062 57.746094 36.414062 C 57.613281 33.355469 56.875 30.519531 55.46875 27.871094 C 55.398438 27.871094 55.363281 27.859375 55.339844 27.875 C 55.007812 28.058594 54.679688 28.246094 54.347656 28.429688 C 53.921875 28.660156 53.546875 28.601562 53.347656 28.269531 C 53.128906 27.914062 53.25 27.527344 53.667969 27.277344 C 54.011719 27.070312 54.367188 26.867188 54.757812 26.636719 C 53.125 24.050781 51.046875 21.976562 48.511719 20.371094 C 48.457031 20.410156 48.425781 20.421875 48.410156 20.445312 C 48.222656 20.757812 48.035156 21.070312 47.847656 21.386719 C 47.585938 21.824219 47.230469 21.972656 46.878906 21.785156 C 46.5 21.585938 46.425781 21.195312 46.6875 20.726562 C 46.875 20.382812 47.078125 20.046875 47.296875 19.667969 C 44.582031 18.226562 41.75 17.484375 38.6875 17.359375 Z M 38.6875 17.359375 " fill-opacity="1" fill-rule="nonzero"/></g><path fill="#7a5c42" d="M 38.6875 28.785156 C 38.6875 30.804688 38.691406 32.824219 38.683594 34.84375 C 38.683594 35.109375 38.726562 35.285156 38.992188 35.4375 C 39.605469 35.792969 39.941406 36.347656 39.925781 37.066406 C 39.917969 37.34375 40.023438 37.480469 40.253906 37.613281 C 42.207031 38.730469 44.15625 39.859375 46.109375 40.988281 C 46.195312 41.039062 46.285156 41.085938 46.371094 41.144531 C 46.734375 41.378906 46.847656 41.753906 46.65625 42.082031 C 46.464844 42.40625 46.078125 42.503906 45.695312 42.285156 C 44.703125 41.722656 43.71875 41.148438 42.730469 40.578125 C 41.679688 39.972656 40.625 39.367188 39.578125 38.753906 C 39.367188 38.628906 39.214844 38.605469 38.984375 38.738281 C 38.039062 39.289062 36.878906 38.972656 36.351562 38.054688 C 35.8125 37.113281 36.117188 35.953125 37.089844 35.410156 C 37.363281 35.257812 37.355469 35.066406 37.355469 34.832031 C 37.355469 30.820312 37.355469 26.808594 37.355469 22.800781 C 37.355469 22.652344 37.34375 22.503906 37.371094 22.363281 C 37.433594 22.03125 37.660156 21.800781 37.976562 21.851562 C 38.210938 21.886719 38.449219 22.078125 38.617188 22.261719 C 38.710938 22.367188 38.6875 22.59375 38.6875 22.769531 C 38.691406 24.773438 38.6875 26.777344 38.6875 28.785156 Z M 38.6875 28.785156 " fill-opacity="1" fill-rule="nonzero"/></svg>