<svg xmlns="http://www.w3.org/2000/svg" xmlns:xlink="http://www.w3.org/1999/xlink" width="103" zoomAndPan="magnify" viewBox="0 0 77.25 74.249996" height="99" preserveAspectRatio="xMidYMid meet" version="1.0"><defs><clipPath id="65ba557879"><path d="M 0.015625 0 L 76.105469 0 L 76.105469 73.230469 L 0.015625 73.230469 Z M 0.015625 0 " clip-rule="nonzero"/></clipPath><clipPath id="4d23f75489"><path d="M 36.628906 0 L 39.40625 0 C 49.117188 0 58.433594 3.859375 65.300781 10.722656 C 72.164062 17.589844 76.023438 26.90625 76.023438 36.617188 C 76.023438 46.328125 72.164062 55.640625 65.300781 62.507812 C 58.433594 69.375 49.117188 73.230469 39.40625 73.230469 L 36.628906 73.230469 C 26.917969 73.230469 17.605469 69.375 10.738281 62.507812 C 3.871094 55.640625 0.015625 46.328125 0.015625 36.617188 C 0.015625 26.90625 3.871094 17.589844 10.738281 10.722656 C 17.605469 3.859375 26.917969 0 36.628906 0 Z M 36.628906 0 " clip-rule="nonzero"/></clipPath><clipPath id="d01845501d"><path d="M 0.015625 0 L 76.046875 0 L 76.046875 73.230469 L 0.015625 73.230469 Z M 0.015625 0 " clip-rule="nonzero"/></clipPath><clipPath id="01a043d94e"><path d="M 36.628906 0 L 39.40625 0 C 49.117188 0 58.433594 3.859375 65.300781 10.722656 C 72.164062 17.589844 76.023438 26.90625 76.023438 36.617188 C 76.023438 46.328125 72.164062 55.640625 65.300781 62.507812 C 58.433594 69.375 49.117188 73.230469 39.40625 73.230469 L 36.628906 73.230469 C 26.917969 73.230469 17.605469 69.375 10.738281 62.507812 C 3.871094 55.640625 0.015625 46.328125 0.015625 36.617188 C 0.015625 26.90625 3.871094 17.589844 10.738281 10.722656 C 17.605469 3.859375 26.917969 0 36.628906 0 Z M 36.628906 0 " clip-rule="nonzero"/></clipPath><clipPath id="40259d49cc"><rect x="0" width="77" y="0" height="74"/></clipPath><clipPath id="2604e0115f"><path d="M 11.304688 31 L 28 31 L 28 43 L 11.304688 43 Z M 11.304688 31 " clip-rule="nonzero"/></clipPath><clipPath id="06307b1bbf"><path d="M 26 15.910156 L 50 15.910156 L 50 57.492188 L 26 57.492188 Z M 26 15.910156 " clip-rule="nonzero"/></clipPath><clipPath id="3d5bcca0f7"><path d="M 48 31 L 64.765625 31 L 64.765625 43 L 48 43 Z M 48 31 " clip-rule="nonzero"/></clipPath></defs><g clip-path="url(#65ba557879)"><g clip-path="url(#4d23f75489)"><g transform="matrix(1, 0, 0, 1, 0.000000000000000005, 0.000000000000006949)"><g clip-path="url(#40259d49cc)"><g clip-path="url(#d01845501d)"><g clip-path="url(#01a043d94e)"><path fill="#e9e3d8" d="M 0.015625 0 L 76.105469 0 L 76.105469 73.230469 L 0.015625 73.230469 Z M 0.015625 0 " fill-opacity="1" fill-rule="nonzero"/></g></g></g></g></g></g><path fill="#3f5c4a" d="M 23.652344 20.648438 L 23.652344 23.875 C 23.652344 24.230469 23.722656 24.574219 23.859375 24.90625 C 23.996094 25.238281 24.191406 25.527344 24.445312 25.78125 C 24.699219 26.035156 24.988281 26.230469 25.320312 26.367188 C 25.648438 26.503906 25.996094 26.574219 26.351562 26.574219 L 26.523438 26.574219 C 26.765625 26.574219 26.996094 26.621094 27.21875 26.710938 C 27.445312 26.804688 27.640625 26.9375 27.8125 27.109375 C 27.984375 27.277344 28.113281 27.476562 28.207031 27.699219 C 28.300781 27.921875 28.347656 28.15625 28.347656 28.398438 C 28.347656 28.519531 28.390625 28.621094 28.476562 28.707031 C 28.5625 28.792969 28.664062 28.832031 28.785156 28.832031 C 28.902344 28.832031 29.007812 28.792969 29.09375 28.707031 C 29.175781 28.621094 29.21875 28.519531 29.21875 28.398438 C 29.21875 28.039062 29.152344 27.695312 29.015625 27.367188 C 28.878906 27.035156 28.683594 26.742188 28.429688 26.492188 C 28.175781 26.238281 27.882812 26.042969 27.554688 25.90625 C 27.222656 25.769531 26.878906 25.699219 26.523438 25.699219 L 26.351562 25.699219 C 26.109375 25.699219 25.878906 25.652344 25.652344 25.558594 C 25.429688 25.46875 25.234375 25.335938 25.0625 25.164062 C 24.890625 24.992188 24.757812 24.796875 24.664062 24.574219 C 24.574219 24.347656 24.527344 24.117188 24.527344 23.875 L 24.527344 20.648438 C 24.703125 20.613281 24.875 20.554688 25.035156 20.476562 C 25.199219 20.398438 25.351562 20.304688 25.488281 20.1875 C 25.628906 20.074219 25.75 19.941406 25.859375 19.796875 C 25.964844 19.652344 26.054688 19.496094 26.121094 19.332031 C 26.191406 19.164062 26.238281 18.992188 26.261719 18.8125 C 26.289062 18.632812 26.292969 18.453125 26.277344 18.273438 C 26.257812 18.09375 26.21875 17.921875 26.15625 17.75 C 26.097656 17.582031 26.015625 17.421875 25.914062 17.273438 C 25.816406 17.121094 25.699219 16.988281 25.5625 16.867188 C 25.429688 16.746094 25.285156 16.640625 25.125 16.554688 C 24.964844 16.472656 24.796875 16.40625 24.621094 16.363281 C 24.449219 16.320312 24.269531 16.296875 24.089844 16.296875 C 23.910156 16.296875 23.730469 16.320312 23.558594 16.363281 C 23.382812 16.40625 23.214844 16.472656 23.054688 16.554688 C 22.898438 16.640625 22.75 16.746094 22.617188 16.867188 C 22.484375 16.988281 22.367188 17.121094 22.265625 17.273438 C 22.164062 17.421875 22.082031 17.582031 22.023438 17.75 C 21.960938 17.921875 21.921875 18.09375 21.902344 18.273438 C 21.886719 18.453125 21.890625 18.632812 21.917969 18.8125 C 21.941406 18.992188 21.988281 19.164062 22.058594 19.332031 C 22.128906 19.496094 22.214844 19.652344 22.320312 19.796875 C 22.429688 19.941406 22.550781 20.074219 22.691406 20.1875 C 22.832031 20.304688 22.980469 20.398438 23.144531 20.476562 C 23.308594 20.554688 23.476562 20.613281 23.652344 20.648438 Z M 24.089844 17.171875 C 24.265625 17.171875 24.433594 17.203125 24.597656 17.273438 C 24.757812 17.339844 24.902344 17.433594 25.027344 17.558594 C 25.148438 17.683594 25.246094 17.824219 25.3125 17.988281 C 25.378906 18.148438 25.414062 18.320312 25.414062 18.496094 C 25.414062 18.671875 25.378906 18.839844 25.3125 19 C 25.246094 19.164062 25.148438 19.304688 25.027344 19.429688 C 24.902344 19.554688 24.757812 19.652344 24.597656 19.71875 C 24.433594 19.785156 24.265625 19.820312 24.089844 19.820312 C 23.914062 19.820312 23.746094 19.785156 23.582031 19.71875 C 23.421875 19.652344 23.277344 19.554688 23.152344 19.429688 C 23.03125 19.304688 22.933594 19.164062 22.867188 19 C 22.800781 18.839844 22.765625 18.671875 22.765625 18.496094 C 22.765625 18.320312 22.800781 18.152344 22.867188 17.988281 C 22.933594 17.828125 23.03125 17.683594 23.15625 17.558594 C 23.277344 17.433594 23.421875 17.339844 23.582031 17.273438 C 23.746094 17.203125 23.914062 17.171875 24.089844 17.171875 Z M 24.089844 17.171875 " fill-opacity="1" fill-rule="nonzero"/><path fill="#3f5c4a" d="M 19 26.1875 L 19 27.804688 C 19 28.042969 19.046875 28.269531 19.136719 28.492188 C 19.226562 28.710938 19.359375 28.902344 19.527344 29.074219 C 19.695312 29.242188 19.886719 29.371094 20.109375 29.460938 C 20.328125 29.550781 20.554688 29.597656 20.792969 29.597656 L 23.113281 29.597656 C 23.367188 29.597656 23.585938 29.6875 23.765625 29.867188 C 23.945312 30.046875 24.035156 30.265625 24.035156 30.519531 L 24.035156 31.707031 C 24.035156 31.945312 24.082031 32.171875 24.171875 32.394531 C 24.261719 32.613281 24.394531 32.804688 24.5625 32.976562 C 24.730469 33.144531 24.921875 33.273438 25.144531 33.363281 C 25.363281 33.453125 25.589844 33.5 25.828125 33.5 L 27.101562 33.5 C 27.222656 33.5 27.324219 33.457031 27.410156 33.371094 C 27.496094 33.289062 27.539062 33.183594 27.539062 33.0625 C 27.539062 32.945312 27.496094 32.839844 27.410156 32.753906 C 27.324219 32.671875 27.222656 32.628906 27.101562 32.628906 L 25.828125 32.628906 C 25.574219 32.628906 25.359375 32.539062 25.179688 32.359375 C 25 32.179688 24.910156 31.960938 24.910156 31.707031 L 24.910156 30.519531 C 24.90625 30.28125 24.863281 30.050781 24.769531 29.832031 C 24.679688 29.613281 24.550781 29.417969 24.382812 29.25 C 24.214844 29.082031 24.019531 28.953125 23.800781 28.863281 C 23.582031 28.769531 23.351562 28.726562 23.113281 28.726562 L 20.792969 28.726562 C 20.539062 28.726562 20.324219 28.636719 20.144531 28.457031 C 19.964844 28.277344 19.875 28.058594 19.875 27.804688 L 19.875 26.1875 C 20.050781 26.152344 20.21875 26.097656 20.382812 26.019531 C 20.546875 25.941406 20.695312 25.84375 20.835938 25.730469 C 20.976562 25.617188 21.097656 25.484375 21.203125 25.339844 C 21.3125 25.195312 21.398438 25.039062 21.46875 24.871094 C 21.539062 24.707031 21.585938 24.53125 21.609375 24.355469 C 21.636719 24.175781 21.640625 23.996094 21.621094 23.816406 C 21.605469 23.636719 21.566406 23.460938 21.503906 23.292969 C 21.441406 23.125 21.363281 22.964844 21.261719 22.8125 C 21.160156 22.664062 21.042969 22.527344 20.910156 22.40625 C 20.777344 22.285156 20.628906 22.183594 20.472656 22.097656 C 20.3125 22.011719 20.144531 21.949219 19.96875 21.90625 C 19.796875 21.859375 19.617188 21.839844 19.4375 21.839844 C 19.257812 21.839844 19.078125 21.859375 18.902344 21.90625 C 18.730469 21.949219 18.5625 22.011719 18.402344 22.097656 C 18.242188 22.183594 18.097656 22.285156 17.964844 22.40625 C 17.828125 22.527344 17.710938 22.664062 17.613281 22.8125 C 17.511719 22.964844 17.429688 23.125 17.371094 23.292969 C 17.308594 23.460938 17.269531 23.636719 17.25 23.816406 C 17.234375 23.996094 17.238281 24.175781 17.261719 24.355469 C 17.289062 24.53125 17.335938 24.707031 17.40625 24.871094 C 17.472656 25.039062 17.5625 25.195312 17.667969 25.339844 C 17.777344 25.484375 17.898438 25.617188 18.039062 25.730469 C 18.175781 25.84375 18.328125 25.941406 18.492188 26.019531 C 18.652344 26.097656 18.824219 26.152344 19 26.1875 Z M 19.4375 22.714844 C 19.613281 22.714844 19.78125 22.746094 19.941406 22.8125 C 20.105469 22.882812 20.25 22.976562 20.371094 23.101562 C 20.496094 23.226562 20.59375 23.367188 20.660156 23.53125 C 20.726562 23.691406 20.761719 23.863281 20.761719 24.035156 C 20.761719 24.210938 20.726562 24.382812 20.660156 24.542969 C 20.59375 24.707031 20.496094 24.847656 20.371094 24.972656 C 20.25 25.097656 20.105469 25.191406 19.941406 25.257812 C 19.78125 25.328125 19.613281 25.359375 19.4375 25.359375 C 19.261719 25.359375 19.09375 25.328125 18.929688 25.257812 C 18.769531 25.191406 18.625 25.097656 18.5 24.972656 C 18.375 24.847656 18.28125 24.707031 18.214844 24.542969 C 18.148438 24.382812 18.113281 24.210938 18.113281 24.035156 C 18.113281 23.859375 18.148438 23.691406 18.214844 23.53125 C 18.28125 23.367188 18.378906 23.226562 18.5 23.101562 C 18.625 22.976562 18.769531 22.882812 18.929688 22.8125 C 19.09375 22.746094 19.261719 22.714844 19.4375 22.714844 Z M 19.4375 22.714844 " fill-opacity="1" fill-rule="nonzero"/><path fill="#3f5c4a" d="M 49.636719 25.699219 L 49.46875 25.699219 C 49.109375 25.699219 48.765625 25.769531 48.4375 25.90625 C 48.105469 26.042969 47.8125 26.238281 47.5625 26.492188 C 47.308594 26.742188 47.113281 27.035156 46.976562 27.367188 C 46.839844 27.695312 46.769531 28.039062 46.769531 28.398438 C 46.769531 28.519531 46.8125 28.621094 46.898438 28.707031 C 46.984375 28.792969 47.085938 28.832031 47.207031 28.832031 C 47.328125 28.832031 47.429688 28.792969 47.515625 28.707031 C 47.601562 28.621094 47.640625 28.519531 47.644531 28.398438 C 47.644531 28.15625 47.691406 27.921875 47.78125 27.699219 C 47.875 27.476562 48.007812 27.277344 48.179688 27.109375 C 48.347656 26.9375 48.546875 26.804688 48.769531 26.710938 C 48.992188 26.621094 49.226562 26.574219 49.46875 26.574219 L 49.636719 26.574219 C 49.996094 26.574219 50.339844 26.503906 50.671875 26.367188 C 51 26.230469 51.292969 26.035156 51.546875 25.78125 C 51.796875 25.527344 51.992188 25.238281 52.128906 24.90625 C 52.265625 24.574219 52.335938 24.230469 52.335938 23.875 L 52.335938 20.648438 C 52.511719 20.613281 52.683594 20.554688 52.847656 20.476562 C 53.007812 20.398438 53.160156 20.304688 53.300781 20.1875 C 53.4375 20.074219 53.5625 19.941406 53.667969 19.796875 C 53.773438 19.652344 53.863281 19.496094 53.929688 19.332031 C 54 19.164062 54.046875 18.992188 54.074219 18.8125 C 54.101562 18.632812 54.105469 18.453125 54.085938 18.273438 C 54.066406 18.09375 54.027344 17.921875 53.96875 17.75 C 53.90625 17.582031 53.824219 17.421875 53.726562 17.273438 C 53.625 17.121094 53.507812 16.988281 53.375 16.867188 C 53.238281 16.746094 53.09375 16.640625 52.933594 16.554688 C 52.773438 16.472656 52.609375 16.40625 52.433594 16.363281 C 52.257812 16.320312 52.082031 16.296875 51.898438 16.296875 C 51.71875 16.296875 51.542969 16.320312 51.367188 16.363281 C 51.191406 16.40625 51.023438 16.472656 50.867188 16.554688 C 50.707031 16.640625 50.558594 16.746094 50.425781 16.867188 C 50.292969 16.988281 50.175781 17.121094 50.074219 17.273438 C 49.976562 17.421875 49.894531 17.582031 49.832031 17.75 C 49.773438 17.921875 49.734375 18.09375 49.714844 18.273438 C 49.695312 18.453125 49.699219 18.632812 49.726562 18.8125 C 49.753906 18.992188 49.800781 19.164062 49.867188 19.332031 C 49.9375 19.496094 50.023438 19.652344 50.132812 19.796875 C 50.238281 19.941406 50.363281 20.074219 50.5 20.1875 C 50.640625 20.304688 50.792969 20.398438 50.953125 20.476562 C 51.117188 20.554688 51.285156 20.613281 51.464844 20.648438 L 51.464844 23.875 C 51.464844 24.117188 51.417969 24.347656 51.324219 24.574219 C 51.230469 24.796875 51.097656 24.992188 50.929688 25.164062 C 50.757812 25.335938 50.558594 25.46875 50.335938 25.558594 C 50.113281 25.652344 49.878906 25.699219 49.636719 25.699219 Z M 50.578125 18.496094 C 50.578125 18.320312 50.609375 18.148438 50.675781 17.988281 C 50.746094 17.824219 50.839844 17.683594 50.964844 17.558594 C 51.089844 17.433594 51.230469 17.339844 51.394531 17.273438 C 51.554688 17.203125 51.726562 17.171875 51.898438 17.171875 C 52.074219 17.171875 52.246094 17.203125 52.40625 17.273438 C 52.570312 17.339844 52.710938 17.433594 52.835938 17.558594 C 52.960938 17.683594 53.054688 17.828125 53.121094 17.988281 C 53.191406 18.152344 53.222656 18.320312 53.222656 18.496094 C 53.222656 18.671875 53.191406 18.839844 53.121094 19 C 53.054688 19.164062 52.960938 19.308594 52.835938 19.429688 C 52.710938 19.554688 52.570312 19.652344 52.40625 19.71875 C 52.246094 19.785156 52.074219 19.820312 51.898438 19.820312 C 51.726562 19.816406 51.554688 19.785156 51.394531 19.71875 C 51.230469 19.648438 51.089844 19.554688 50.964844 19.429688 C 50.839844 19.304688 50.746094 19.164062 50.675781 19 C 50.609375 18.839844 50.578125 18.671875 50.578125 18.496094 Z M 50.578125 18.496094 " fill-opacity="1" fill-rule="nonzero"/><path fill="#3f5c4a" d="M 56.117188 26.1875 L 56.117188 27.804688 C 56.117188 28.058594 56.027344 28.277344 55.847656 28.457031 C 55.667969 28.636719 55.449219 28.726562 55.195312 28.726562 L 52.875 28.726562 C 52.636719 28.726562 52.410156 28.769531 52.191406 28.863281 C 51.96875 28.953125 51.777344 29.082031 51.609375 29.25 C 51.441406 29.417969 51.308594 29.613281 51.21875 29.832031 C 51.128906 30.050781 51.082031 30.28125 51.082031 30.519531 L 51.082031 31.707031 C 51.082031 31.960938 50.992188 32.179688 50.8125 32.359375 C 50.632812 32.539062 50.414062 32.628906 50.160156 32.628906 L 48.890625 32.628906 C 48.769531 32.628906 48.664062 32.671875 48.582031 32.753906 C 48.496094 32.839844 48.453125 32.945312 48.453125 33.0625 C 48.453125 33.183594 48.496094 33.289062 48.582031 33.371094 C 48.664062 33.457031 48.769531 33.5 48.890625 33.5 L 50.160156 33.5 C 50.398438 33.5 50.628906 33.453125 50.847656 33.363281 C 51.066406 33.273438 51.261719 33.144531 51.429688 32.976562 C 51.597656 32.804688 51.726562 32.613281 51.816406 32.394531 C 51.910156 32.171875 51.953125 31.945312 51.953125 31.707031 L 51.953125 30.519531 C 51.957031 30.265625 52.046875 30.046875 52.226562 29.867188 C 52.40625 29.6875 52.621094 29.597656 52.875 29.597656 L 55.195312 29.597656 C 55.433594 29.597656 55.664062 29.550781 55.882812 29.460938 C 56.101562 29.371094 56.296875 29.242188 56.464844 29.074219 C 56.632812 28.902344 56.761719 28.710938 56.851562 28.492188 C 56.945312 28.269531 56.988281 28.042969 56.988281 27.804688 L 56.988281 26.1875 C 57.167969 26.152344 57.335938 26.097656 57.5 26.019531 C 57.660156 25.941406 57.8125 25.84375 57.953125 25.730469 C 58.089844 25.617188 58.214844 25.484375 58.320312 25.339844 C 58.429688 25.195312 58.515625 25.039062 58.585938 24.871094 C 58.652344 24.707031 58.699219 24.53125 58.726562 24.355469 C 58.753906 24.175781 58.757812 23.996094 58.738281 23.816406 C 58.722656 23.636719 58.679688 23.464844 58.621094 23.292969 C 58.558594 23.125 58.480469 22.964844 58.378906 22.8125 C 58.277344 22.664062 58.160156 22.527344 58.027344 22.40625 C 57.894531 22.285156 57.746094 22.183594 57.585938 22.097656 C 57.429688 22.011719 57.261719 21.949219 57.085938 21.90625 C 56.910156 21.863281 56.734375 21.839844 56.554688 21.839844 C 56.371094 21.839844 56.195312 21.863281 56.019531 21.90625 C 55.84375 21.949219 55.679688 22.011719 55.519531 22.097656 C 55.359375 22.183594 55.214844 22.285156 55.078125 22.40625 C 54.945312 22.527344 54.828125 22.664062 54.726562 22.8125 C 54.628906 22.964844 54.546875 23.125 54.484375 23.292969 C 54.425781 23.464844 54.386719 23.636719 54.367188 23.816406 C 54.347656 23.996094 54.355469 24.175781 54.378906 24.355469 C 54.40625 24.53125 54.453125 24.707031 54.523438 24.871094 C 54.589844 25.039062 54.679688 25.195312 54.785156 25.339844 C 54.890625 25.484375 55.015625 25.617188 55.15625 25.730469 C 55.292969 25.84375 55.445312 25.941406 55.605469 26.019531 C 55.769531 26.097656 55.941406 26.152344 56.117188 26.1875 Z M 56.554688 22.714844 C 56.730469 22.714844 56.898438 22.746094 57.058594 22.8125 C 57.222656 22.882812 57.363281 22.976562 57.488281 23.101562 C 57.613281 23.226562 57.707031 23.367188 57.777344 23.53125 C 57.84375 23.691406 57.875 23.859375 57.875 24.035156 C 57.875 24.210938 57.84375 24.382812 57.777344 24.542969 C 57.707031 24.707031 57.613281 24.847656 57.488281 24.972656 C 57.363281 25.097656 57.222656 25.191406 57.058594 25.257812 C 56.898438 25.328125 56.730469 25.359375 56.554688 25.359375 C 56.378906 25.359375 56.207031 25.328125 56.046875 25.257812 C 55.882812 25.191406 55.742188 25.097656 55.617188 24.972656 C 55.492188 24.847656 55.398438 24.707031 55.332031 24.542969 C 55.261719 24.382812 55.230469 24.210938 55.230469 24.035156 C 55.230469 23.863281 55.261719 23.691406 55.332031 23.53125 C 55.398438 23.367188 55.492188 23.226562 55.617188 23.101562 C 55.742188 22.976562 55.886719 22.882812 56.046875 22.8125 C 56.210938 22.746094 56.378906 22.714844 56.554688 22.714844 Z M 56.554688 22.714844 " fill-opacity="1" fill-rule="nonzero"/><path fill="#3f5c4a" d="M 26.351562 47.574219 L 26.523438 47.574219 C 26.878906 47.574219 27.222656 47.503906 27.554688 47.367188 C 27.882812 47.230469 28.175781 47.035156 28.429688 46.78125 C 28.683594 46.53125 28.878906 46.238281 29.015625 45.90625 C 29.152344 45.578125 29.21875 45.234375 29.21875 44.875 C 29.21875 44.753906 29.179688 44.652344 29.09375 44.566406 C 29.007812 44.480469 28.90625 44.4375 28.785156 44.4375 C 28.664062 44.4375 28.558594 44.480469 28.476562 44.566406 C 28.390625 44.652344 28.347656 44.753906 28.347656 44.875 C 28.347656 45.117188 28.300781 45.351562 28.207031 45.574219 C 28.113281 45.796875 27.984375 45.996094 27.8125 46.164062 C 27.640625 46.335938 27.445312 46.46875 27.21875 46.5625 C 26.996094 46.65625 26.765625 46.699219 26.523438 46.703125 L 26.351562 46.703125 C 25.996094 46.703125 25.648438 46.769531 25.320312 46.90625 C 24.988281 47.042969 24.699219 47.238281 24.445312 47.492188 C 24.191406 47.746094 23.996094 48.039062 23.859375 48.367188 C 23.722656 48.699219 23.652344 49.042969 23.652344 49.398438 L 23.652344 52.625 C 23.476562 52.664062 23.308594 52.71875 23.144531 52.796875 C 22.980469 52.875 22.832031 52.972656 22.691406 53.085938 C 22.550781 53.199219 22.429688 53.332031 22.320312 53.476562 C 22.214844 53.621094 22.128906 53.777344 22.058594 53.945312 C 21.988281 54.109375 21.941406 54.285156 21.917969 54.460938 C 21.890625 54.640625 21.886719 54.820312 21.902344 55 C 21.921875 55.179688 21.960938 55.351562 22.023438 55.523438 C 22.082031 55.691406 22.164062 55.851562 22.265625 56.003906 C 22.367188 56.152344 22.484375 56.289062 22.617188 56.410156 C 22.75 56.53125 22.898438 56.632812 23.054688 56.71875 C 23.214844 56.800781 23.382812 56.867188 23.558594 56.910156 C 23.730469 56.953125 23.910156 56.976562 24.089844 56.976562 C 24.269531 56.976562 24.449219 56.953125 24.625 56.910156 C 24.796875 56.867188 24.964844 56.800781 25.125 56.71875 C 25.285156 56.632812 25.429688 56.53125 25.5625 56.410156 C 25.699219 56.289062 25.816406 56.152344 25.914062 56.003906 C 26.015625 55.851562 26.097656 55.691406 26.15625 55.523438 C 26.21875 55.351562 26.257812 55.179688 26.277344 55 C 26.292969 54.820312 26.289062 54.640625 26.261719 54.460938 C 26.238281 54.285156 26.191406 54.109375 26.121094 53.945312 C 26.054688 53.777344 25.964844 53.621094 25.859375 53.476562 C 25.75 53.332031 25.628906 53.199219 25.488281 53.085938 C 25.351562 52.972656 25.199219 52.875 25.035156 52.796875 C 24.875 52.71875 24.703125 52.664062 24.527344 52.625 L 24.527344 49.398438 C 24.527344 49.15625 24.574219 48.925781 24.664062 48.703125 C 24.757812 48.476562 24.890625 48.28125 25.0625 48.109375 C 25.234375 47.9375 25.429688 47.804688 25.652344 47.714844 C 25.878906 47.621094 26.109375 47.574219 26.351562 47.574219 Z M 25.414062 54.78125 C 25.414062 54.953125 25.378906 55.125 25.3125 55.285156 C 25.246094 55.449219 25.148438 55.589844 25.027344 55.714844 C 24.902344 55.839844 24.757812 55.933594 24.597656 56.003906 C 24.433594 56.070312 24.265625 56.101562 24.089844 56.101562 C 23.914062 56.101562 23.746094 56.070312 23.582031 56.003906 C 23.421875 55.933594 23.277344 55.839844 23.152344 55.714844 C 23.03125 55.589844 22.933594 55.449219 22.867188 55.285156 C 22.800781 55.125 22.765625 54.953125 22.765625 54.777344 C 22.765625 54.605469 22.800781 54.433594 22.867188 54.273438 C 22.933594 54.109375 23.03125 53.96875 23.152344 53.84375 C 23.277344 53.71875 23.421875 53.625 23.582031 53.554688 C 23.746094 53.488281 23.914062 53.457031 24.089844 53.457031 C 24.265625 53.457031 24.433594 53.488281 24.597656 53.558594 C 24.757812 53.625 24.902344 53.71875 25.027344 53.84375 C 25.148438 53.96875 25.246094 54.109375 25.3125 54.273438 C 25.378906 54.433594 25.414062 54.605469 25.414062 54.78125 Z M 25.414062 54.78125 " fill-opacity="1" fill-rule="nonzero"/><path fill="#3f5c4a" d="M 19.875 47.085938 L 19.875 45.46875 C 19.875 45.214844 19.964844 45 20.144531 44.820312 C 20.324219 44.640625 20.539062 44.550781 20.792969 44.546875 L 23.113281 44.546875 C 23.351562 44.546875 23.582031 44.503906 23.800781 44.410156 C 24.019531 44.320312 24.214844 44.191406 24.382812 44.023438 C 24.550781 43.855469 24.679688 43.660156 24.769531 43.441406 C 24.863281 43.222656 24.90625 42.992188 24.910156 42.753906 L 24.910156 41.566406 C 24.910156 41.3125 25 41.097656 25.179688 40.917969 C 25.359375 40.738281 25.574219 40.648438 25.828125 40.644531 L 27.101562 40.644531 C 27.222656 40.644531 27.324219 40.605469 27.410156 40.519531 C 27.496094 40.433594 27.539062 40.332031 27.539062 40.210938 C 27.539062 40.089844 27.496094 39.988281 27.410156 39.902344 C 27.324219 39.816406 27.222656 39.773438 27.101562 39.773438 L 25.828125 39.773438 C 25.589844 39.773438 25.363281 39.820312 25.144531 39.910156 C 24.921875 40 24.730469 40.132812 24.5625 40.300781 C 24.394531 40.46875 24.261719 40.660156 24.171875 40.882812 C 24.082031 41.101562 24.035156 41.328125 24.035156 41.566406 L 24.035156 42.753906 C 24.035156 43.007812 23.945312 43.226562 23.765625 43.40625 C 23.585938 43.585938 23.367188 43.675781 23.113281 43.675781 L 20.792969 43.675781 C 20.554688 43.675781 20.328125 43.722656 20.109375 43.8125 C 19.886719 43.902344 19.695312 44.035156 19.527344 44.203125 C 19.359375 44.371094 19.226562 44.5625 19.136719 44.785156 C 19.046875 45.003906 19 45.230469 19 45.46875 L 19 47.085938 C 18.824219 47.121094 18.652344 47.175781 18.492188 47.253906 C 18.328125 47.332031 18.175781 47.429688 18.039062 47.542969 C 17.898438 47.660156 17.777344 47.789062 17.667969 47.933594 C 17.5625 48.078125 17.472656 48.234375 17.40625 48.402344 C 17.335938 48.570312 17.289062 48.742188 17.261719 48.917969 C 17.238281 49.097656 17.234375 49.277344 17.25 49.457031 C 17.269531 49.636719 17.308594 49.8125 17.371094 49.980469 C 17.429688 50.152344 17.511719 50.308594 17.613281 50.460938 C 17.710938 50.609375 17.828125 50.746094 17.964844 50.867188 C 18.097656 50.988281 18.242188 51.089844 18.402344 51.175781 C 18.5625 51.261719 18.730469 51.324219 18.902344 51.367188 C 19.078125 51.414062 19.257812 51.433594 19.4375 51.433594 C 19.617188 51.433594 19.792969 51.414062 19.96875 51.367188 C 20.144531 51.324219 20.3125 51.261719 20.472656 51.175781 C 20.628906 51.089844 20.777344 50.988281 20.910156 50.867188 C 21.042969 50.746094 21.160156 50.609375 21.261719 50.460938 C 21.363281 50.308594 21.441406 50.152344 21.503906 49.980469 C 21.566406 49.8125 21.605469 49.636719 21.621094 49.457031 C 21.640625 49.277344 21.636719 49.097656 21.609375 48.917969 C 21.585938 48.742188 21.535156 48.570312 21.46875 48.402344 C 21.398438 48.234375 21.3125 48.078125 21.203125 47.933594 C 21.097656 47.789062 20.976562 47.660156 20.835938 47.542969 C 20.695312 47.429688 20.546875 47.332031 20.382812 47.253906 C 20.21875 47.175781 20.050781 47.121094 19.875 47.085938 Z M 19.4375 50.5625 C 19.261719 50.5625 19.09375 50.527344 18.929688 50.460938 C 18.769531 50.394531 18.625 50.296875 18.5 50.171875 C 18.375 50.050781 18.28125 49.90625 18.214844 49.742188 C 18.148438 49.582031 18.113281 49.414062 18.113281 49.238281 C 18.113281 49.0625 18.148438 48.894531 18.214844 48.730469 C 18.28125 48.570312 18.375 48.425781 18.5 48.300781 C 18.625 48.175781 18.769531 48.082031 18.929688 48.015625 C 19.09375 47.945312 19.261719 47.914062 19.4375 47.914062 C 19.613281 47.914062 19.78125 47.945312 19.941406 48.015625 C 20.105469 48.082031 20.25 48.175781 20.371094 48.300781 C 20.496094 48.425781 20.59375 48.570312 20.660156 48.730469 C 20.726562 48.894531 20.761719 49.0625 20.761719 49.238281 C 20.761719 49.414062 20.726562 49.582031 20.660156 49.742188 C 20.59375 49.90625 20.496094 50.046875 20.371094 50.171875 C 20.25 50.296875 20.105469 50.390625 19.941406 50.460938 C 19.78125 50.527344 19.613281 50.5625 19.4375 50.5625 Z M 19.4375 50.5625 " fill-opacity="1" fill-rule="nonzero"/><g clip-path="url(#2604e0115f)"><path fill="#3f5c4a" d="M 18.355469 39.996094 C 18.394531 40.640625 18.519531 41.269531 18.730469 41.882812 C 18.769531 41.996094 18.84375 42.082031 18.953125 42.132812 C 19.058594 42.1875 19.171875 42.191406 19.285156 42.152344 C 19.398438 42.113281 19.484375 42.039062 19.535156 41.933594 C 19.589844 41.824219 19.59375 41.710938 19.554688 41.597656 C 19.300781 40.859375 19.1875 40.101562 19.214844 39.320312 C 19.242188 38.539062 19.40625 37.792969 19.714844 37.074219 L 27.101562 37.074219 C 27.222656 37.074219 27.324219 37.03125 27.410156 36.945312 C 27.496094 36.859375 27.539062 36.757812 27.539062 36.636719 C 27.539062 36.515625 27.496094 36.414062 27.410156 36.328125 C 27.324219 36.242188 27.222656 36.199219 27.101562 36.199219 L 19.714844 36.199219 C 19.40625 35.480469 19.238281 34.734375 19.214844 33.953125 C 19.1875 33.171875 19.300781 32.414062 19.554688 31.675781 C 19.59375 31.5625 19.585938 31.449219 19.535156 31.34375 C 19.480469 31.234375 19.398438 31.160156 19.285156 31.121094 C 19.171875 31.082031 19.058594 31.089844 18.953125 31.140625 C 18.84375 31.195312 18.769531 31.277344 18.730469 31.390625 C 18.519531 32.003906 18.394531 32.632812 18.355469 33.277344 L 15.746094 33.277344 C 15.734375 33.097656 15.699219 32.921875 15.640625 32.75 C 15.585938 32.578125 15.511719 32.417969 15.414062 32.265625 C 15.320312 32.113281 15.207031 31.972656 15.074219 31.847656 C 14.945312 31.722656 14.800781 31.617188 14.644531 31.527344 C 14.488281 31.4375 14.324219 31.367188 14.152344 31.320312 C 13.976562 31.269531 13.800781 31.242188 13.621094 31.238281 C 13.441406 31.230469 13.261719 31.25 13.085938 31.285156 C 12.910156 31.324219 12.742188 31.382812 12.582031 31.464844 C 12.417969 31.542969 12.269531 31.644531 12.132812 31.757812 C 11.996094 31.875 11.875 32.007812 11.769531 32.15625 C 11.664062 32.300781 11.578125 32.457031 11.511719 32.625 C 11.445312 32.792969 11.402344 32.964844 11.378906 33.144531 C 11.355469 33.324219 11.351562 33.503906 11.371094 33.683594 C 11.394531 33.859375 11.433594 34.035156 11.5 34.203125 C 11.5625 34.371094 11.644531 34.53125 11.746094 34.679688 C 11.847656 34.828125 11.96875 34.960938 12.101562 35.082031 C 12.238281 35.199219 12.386719 35.300781 12.546875 35.382812 C 12.707031 35.464844 12.875 35.527344 13.050781 35.570312 C 13.226562 35.609375 13.402344 35.628906 13.582031 35.628906 C 13.761719 35.625 13.941406 35.601562 14.113281 35.554688 C 14.289062 35.511719 14.453125 35.445312 14.613281 35.355469 C 14.769531 35.269531 14.914062 35.164062 15.046875 35.042969 C 15.179688 34.921875 15.296875 34.785156 15.394531 34.632812 C 15.492188 34.480469 15.570312 34.320312 15.628906 34.152344 L 18.351562 34.152344 C 18.402344 35.015625 18.601562 35.84375 18.957031 36.636719 C 18.605469 37.429688 18.402344 38.257812 18.351562 39.125 L 15.628906 39.125 C 15.570312 38.953125 15.492188 38.792969 15.394531 38.640625 C 15.296875 38.488281 15.179688 38.351562 15.046875 38.230469 C 14.914062 38.109375 14.769531 38.003906 14.613281 37.917969 C 14.453125 37.828125 14.289062 37.761719 14.113281 37.71875 C 13.9375 37.671875 13.761719 37.648438 13.582031 37.644531 C 13.402344 37.640625 13.222656 37.660156 13.046875 37.703125 C 12.871094 37.746094 12.703125 37.808594 12.542969 37.890625 C 12.382812 37.972656 12.234375 38.074219 12.101562 38.191406 C 11.964844 38.3125 11.847656 38.445312 11.746094 38.59375 C 11.640625 38.742188 11.558594 38.902344 11.496094 39.070312 C 11.433594 39.238281 11.390625 39.414062 11.371094 39.59375 C 11.347656 39.769531 11.351562 39.949219 11.375 40.128906 C 11.398438 40.308594 11.441406 40.480469 11.507812 40.648438 C 11.574219 40.816406 11.660156 40.972656 11.765625 41.121094 C 11.871094 41.265625 11.992188 41.398438 12.128906 41.515625 C 12.265625 41.632812 12.417969 41.730469 12.578125 41.8125 C 12.738281 41.890625 12.910156 41.949219 13.085938 41.988281 C 13.261719 42.027344 13.441406 42.042969 13.621094 42.039062 C 13.800781 42.03125 13.976562 42.003906 14.152344 41.957031 C 14.324219 41.90625 14.488281 41.839844 14.644531 41.75 C 14.800781 41.660156 14.945312 41.550781 15.074219 41.425781 C 15.207031 41.300781 15.320312 41.164062 15.414062 41.011719 C 15.511719 40.855469 15.585938 40.695312 15.640625 40.523438 C 15.699219 40.351562 15.734375 40.175781 15.746094 39.996094 Z M 13.5625 34.753906 C 13.386719 34.753906 13.21875 34.722656 13.058594 34.65625 C 12.894531 34.585938 12.753906 34.492188 12.628906 34.367188 C 12.503906 34.242188 12.410156 34.101562 12.339844 33.9375 C 12.273438 33.777344 12.242188 33.605469 12.238281 33.433594 C 12.238281 33.257812 12.273438 33.085938 12.339844 32.925781 C 12.40625 32.761719 12.503906 32.621094 12.628906 32.496094 C 12.753906 32.371094 12.894531 32.277344 13.058594 32.207031 C 13.21875 32.140625 13.386719 32.109375 13.5625 32.109375 C 13.738281 32.109375 13.910156 32.140625 14.070312 32.207031 C 14.234375 32.277344 14.375 32.371094 14.5 32.496094 C 14.625 32.621094 14.71875 32.761719 14.785156 32.925781 C 14.855469 33.085938 14.886719 33.257812 14.886719 33.429688 C 14.886719 33.605469 14.855469 33.777344 14.785156 33.9375 C 14.71875 34.101562 14.625 34.242188 14.5 34.367188 C 14.375 34.492188 14.234375 34.585938 14.070312 34.652344 C 13.910156 34.722656 13.738281 34.753906 13.5625 34.753906 Z M 13.5625 41.167969 C 13.386719 41.167969 13.21875 41.132812 13.058594 41.066406 C 12.894531 41 12.753906 40.902344 12.628906 40.777344 C 12.503906 40.65625 12.40625 40.511719 12.339844 40.347656 C 12.273438 40.1875 12.238281 40.019531 12.238281 39.84375 C 12.238281 39.667969 12.273438 39.496094 12.339844 39.335938 C 12.40625 39.171875 12.503906 39.03125 12.628906 38.90625 C 12.753906 38.78125 12.894531 38.6875 13.058594 38.621094 C 13.21875 38.550781 13.386719 38.519531 13.5625 38.519531 C 13.738281 38.519531 13.910156 38.550781 14.070312 38.621094 C 14.234375 38.6875 14.375 38.78125 14.5 38.90625 C 14.625 39.03125 14.71875 39.171875 14.785156 39.335938 C 14.855469 39.496094 14.886719 39.667969 14.886719 39.84375 C 14.886719 40.019531 14.855469 40.1875 14.785156 40.347656 C 14.71875 40.511719 14.625 40.652344 14.5 40.777344 C 14.375 40.902344 14.230469 40.996094 14.070312 41.066406 C 13.910156 41.132812 13.738281 41.164062 13.5625 41.167969 Z M 13.5625 41.167969 " fill-opacity="1" fill-rule="nonzero"/></g><g clip-path="url(#06307b1bbf)"><path fill="#3f5c4a" d="M 49.179688 50.804688 L 47.761719 50.804688 C 47.753906 50.804688 47.75 50.800781 47.742188 50.800781 L 46.554688 50.800781 C 46.117188 50.800781 45.691406 50.714844 45.285156 50.546875 C 44.878906 50.378906 44.519531 50.136719 44.207031 49.828125 C 43.894531 49.515625 43.65625 49.15625 43.484375 48.75 C 43.316406 48.339844 43.230469 47.917969 43.230469 47.476562 C 43.230469 47.355469 43.191406 47.253906 43.105469 47.167969 C 43.019531 47.082031 42.917969 47.039062 42.796875 47.039062 C 42.675781 47.039062 42.570312 47.082031 42.484375 47.167969 C 42.402344 47.253906 42.359375 47.355469 42.359375 47.476562 C 42.359375 47.753906 42.386719 48.027344 42.441406 48.296875 C 42.496094 48.566406 42.574219 48.828125 42.679688 49.082031 C 42.785156 49.335938 42.914062 49.578125 43.066406 49.808594 C 43.21875 50.035156 43.394531 50.25 43.589844 50.445312 C 43.785156 50.636719 43.996094 50.8125 44.226562 50.964844 C 44.453125 51.117188 44.695312 51.246094 44.949219 51.355469 C 45.203125 51.460938 45.46875 51.539062 45.738281 51.59375 C 46.007812 51.648438 46.28125 51.675781 46.554688 51.675781 L 47.15625 51.675781 L 46.78125 52.949219 C 46.539062 53.742188 46.125 54.4375 45.542969 55.03125 C 45.316406 55.261719 45.066406 55.464844 44.800781 55.644531 C 44.53125 55.824219 44.246094 55.976562 43.949219 56.101562 C 43.652344 56.226562 43.34375 56.320312 43.027344 56.382812 C 42.707031 56.445312 42.386719 56.476562 42.066406 56.476562 C 41.742188 56.476562 41.421875 56.445312 41.105469 56.382812 C 40.789062 56.320312 40.480469 56.230469 40.179688 56.105469 C 39.882812 55.980469 39.597656 55.832031 39.328125 55.652344 C 39.058594 55.472656 38.8125 55.269531 38.582031 55.039062 L 38.429688 54.878906 L 38.429688 46.753906 L 39.675781 44.917969 C 40.035156 44.394531 40.527344 44.132812 41.164062 44.132812 C 41.667969 44.132812 42.132812 44.003906 42.5625 43.738281 C 42.992188 43.476562 43.320312 43.117188 43.546875 42.667969 C 43.867188 42.730469 44.128906 42.886719 44.335938 43.136719 C 44.542969 43.386719 44.648438 43.675781 44.648438 44 C 44.648438 44.121094 44.691406 44.222656 44.777344 44.308594 C 44.863281 44.394531 44.964844 44.4375 45.085938 44.4375 C 45.207031 44.4375 45.308594 44.394531 45.394531 44.308594 C 45.480469 44.222656 45.523438 44.121094 45.523438 44 C 45.519531 43.753906 45.480469 43.511719 45.398438 43.28125 C 45.320312 43.046875 45.203125 42.832031 45.050781 42.636719 C 44.898438 42.441406 44.71875 42.277344 44.511719 42.140625 C 44.304688 42.007812 44.082031 41.90625 43.84375 41.847656 L 44.382812 40.152344 C 44.421875 40.039062 44.414062 39.925781 44.355469 39.820312 C 44.300781 39.710938 44.21875 39.640625 44.101562 39.601562 C 43.988281 39.566406 43.875 39.574219 43.769531 39.628906 C 43.660156 39.6875 43.589844 39.773438 43.550781 39.886719 L 42.875 42.007812 C 42.757812 42.382812 42.539062 42.683594 42.222656 42.914062 C 41.910156 43.144531 41.554688 43.261719 41.164062 43.257812 C 40.722656 43.257812 40.304688 43.363281 39.914062 43.570312 C 39.523438 43.777344 39.203125 44.0625 38.957031 44.429688 L 38.429688 45.199219 L 38.429688 33.554688 C 38.726562 33.058594 39.082031 32.609375 39.496094 32.207031 C 39.910156 31.804688 40.367188 31.464844 40.871094 31.183594 C 41.378906 30.902344 41.910156 30.691406 42.46875 30.554688 C 43.027344 30.414062 43.597656 30.347656 44.175781 30.359375 C 44.292969 30.371094 44.402344 30.335938 44.492188 30.257812 C 44.582031 30.179688 44.632812 30.078125 44.644531 29.960938 C 44.652344 29.839844 44.621094 29.734375 44.542969 29.640625 C 44.464844 29.550781 44.363281 29.5 44.242188 29.492188 C 43.128906 29.460938 42.0625 29.671875 41.042969 30.128906 C 40.023438 30.585938 39.152344 31.238281 38.429688 32.085938 L 38.429688 18.394531 L 38.574219 18.242188 C 38.804688 18.011719 39.050781 17.808594 39.320312 17.628906 C 39.589844 17.449219 39.875 17.296875 40.171875 17.171875 C 40.472656 17.046875 40.777344 16.953125 41.097656 16.890625 C 41.414062 16.828125 41.734375 16.796875 42.058594 16.796875 C 42.382812 16.796875 42.703125 16.828125 43.019531 16.890625 C 43.335938 16.953125 43.644531 17.046875 43.941406 17.171875 C 44.242188 17.292969 44.527344 17.445312 44.796875 17.625 C 45.0625 17.804688 45.3125 18.011719 45.542969 18.238281 C 46.125 18.832031 46.535156 19.527344 46.777344 20.324219 L 47.15625 21.601562 L 46.554688 21.601562 C 46.28125 21.601562 46.007812 21.628906 45.738281 21.679688 C 45.46875 21.734375 45.203125 21.816406 44.949219 21.921875 C 44.695312 22.027344 44.453125 22.15625 44.226562 22.308594 C 43.996094 22.460938 43.785156 22.636719 43.589844 22.832031 C 43.394531 23.023438 43.21875 23.238281 43.066406 23.464844 C 42.914062 23.695312 42.785156 23.9375 42.679688 24.191406 C 42.574219 24.445312 42.496094 24.707031 42.441406 24.976562 C 42.386719 25.25 42.359375 25.519531 42.359375 25.796875 C 42.359375 25.917969 42.402344 26.019531 42.488281 26.105469 C 42.570312 26.191406 42.675781 26.230469 42.796875 26.230469 C 42.914062 26.230469 43.019531 26.191406 43.101562 26.105469 C 43.1875 26.019531 43.230469 25.917969 43.230469 25.796875 C 43.230469 25.355469 43.316406 24.933594 43.484375 24.527344 C 43.65625 24.117188 43.894531 23.757812 44.207031 23.449219 C 44.519531 23.136719 44.878906 22.894531 45.285156 22.726562 C 45.691406 22.558594 46.117188 22.472656 46.554688 22.472656 L 47.742188 22.472656 C 47.75 22.472656 47.753906 22.46875 47.761719 22.46875 L 49.179688 22.46875 C 49.300781 22.46875 49.402344 22.425781 49.488281 22.339844 C 49.570312 22.253906 49.613281 22.152344 49.613281 22.03125 C 49.613281 21.914062 49.570312 21.808594 49.488281 21.726562 C 49.402344 21.640625 49.300781 21.597656 49.179688 21.597656 L 48.066406 21.597656 L 47.617188 20.074219 C 47.332031 19.140625 46.847656 18.324219 46.160156 17.625 C 45.894531 17.355469 45.605469 17.117188 45.289062 16.90625 C 44.972656 16.695312 44.640625 16.515625 44.292969 16.371094 C 43.941406 16.222656 43.582031 16.113281 43.210938 16.039062 C 42.839844 15.964844 42.464844 15.925781 42.085938 15.921875 C 41.707031 15.921875 41.332031 15.957031 40.960938 16.027344 C 40.585938 16.101562 40.226562 16.207031 39.875 16.351562 C 39.523438 16.496094 39.191406 16.671875 38.875 16.878906 C 38.558594 17.089844 38.265625 17.324219 37.996094 17.589844 C 37.726562 17.324219 37.433594 17.089844 37.117188 16.878906 C 36.800781 16.671875 36.464844 16.496094 36.113281 16.351562 C 35.761719 16.207031 35.402344 16.101562 35.03125 16.027344 C 34.65625 15.957031 34.28125 15.921875 33.902344 15.921875 C 33.523438 15.925781 33.148438 15.964844 32.777344 16.039062 C 32.40625 16.113281 32.042969 16.226562 31.695312 16.371094 C 31.34375 16.519531 31.011719 16.695312 30.699219 16.910156 C 30.382812 17.121094 30.09375 17.359375 29.824219 17.628906 C 29.140625 18.328125 28.65625 19.140625 28.375 20.078125 L 27.925781 21.597656 L 26.8125 21.597656 C 26.691406 21.597656 26.589844 21.640625 26.503906 21.722656 C 26.417969 21.808594 26.375 21.914062 26.375 22.03125 C 26.375 22.152344 26.417969 22.257812 26.503906 22.339844 C 26.589844 22.425781 26.691406 22.46875 26.8125 22.46875 L 28.230469 22.46875 C 28.234375 22.46875 28.242188 22.472656 28.246094 22.472656 L 29.433594 22.472656 C 29.875 22.472656 30.296875 22.558594 30.707031 22.726562 C 31.113281 22.894531 31.472656 23.136719 31.785156 23.449219 C 32.09375 23.757812 32.335938 24.117188 32.503906 24.527344 C 32.671875 24.933594 32.757812 25.355469 32.757812 25.796875 C 32.757812 25.917969 32.800781 26.019531 32.886719 26.105469 C 32.972656 26.191406 33.074219 26.230469 33.195312 26.230469 C 33.316406 26.230469 33.417969 26.191406 33.503906 26.105469 C 33.589844 26.019531 33.632812 25.917969 33.632812 25.796875 C 33.632812 25.519531 33.605469 25.25 33.550781 24.976562 C 33.496094 24.707031 33.417969 24.445312 33.3125 24.191406 C 33.203125 23.9375 33.074219 23.695312 32.921875 23.464844 C 32.769531 23.238281 32.59375 23.023438 32.402344 22.832031 C 32.207031 22.636719 31.992188 22.460938 31.765625 22.308594 C 31.535156 22.15625 31.292969 22.027344 31.039062 21.921875 C 30.785156 21.816406 30.523438 21.734375 30.253906 21.679688 C 29.984375 21.628906 29.710938 21.601562 29.433594 21.601562 L 28.832031 21.601562 L 29.210938 20.328125 C 29.453125 19.53125 29.863281 18.835938 30.445312 18.242188 C 30.671875 18.011719 30.921875 17.808594 31.191406 17.628906 C 31.460938 17.449219 31.742188 17.296875 32.042969 17.171875 C 32.339844 17.050781 32.648438 16.957031 32.964844 16.890625 C 33.28125 16.828125 33.601562 16.796875 33.925781 16.796875 C 34.246094 16.796875 34.566406 16.828125 34.886719 16.890625 C 35.203125 16.953125 35.511719 17.046875 35.808594 17.167969 C 36.109375 17.292969 36.390625 17.445312 36.660156 17.625 C 36.929688 17.800781 37.179688 18.007812 37.40625 18.234375 L 37.558594 18.394531 L 37.558594 32.085938 C 36.835938 31.238281 35.964844 30.585938 34.949219 30.128906 C 33.929688 29.671875 32.863281 29.460938 31.746094 29.492188 C 31.625 29.5 31.527344 29.550781 31.449219 29.640625 C 31.371094 29.734375 31.335938 29.839844 31.347656 29.960938 C 31.355469 30.082031 31.40625 30.179688 31.5 30.257812 C 31.589844 30.335938 31.695312 30.371094 31.816406 30.359375 C 32.390625 30.355469 32.960938 30.421875 33.519531 30.5625 C 34.078125 30.703125 34.609375 30.914062 35.109375 31.195312 C 35.613281 31.476562 36.074219 31.816406 36.488281 32.214844 C 36.902344 32.613281 37.261719 33.0625 37.558594 33.554688 L 37.558594 45.179688 L 37.046875 44.429688 C 36.800781 44.0625 36.480469 43.777344 36.089844 43.570312 C 35.699219 43.363281 35.28125 43.257812 34.839844 43.257812 C 34.449219 43.261719 34.09375 43.144531 33.777344 42.914062 C 33.464844 42.683594 33.246094 42.382812 33.128906 42.007812 L 32.453125 39.886719 C 32.414062 39.773438 32.34375 39.6875 32.234375 39.628906 C 32.128906 39.574219 32.015625 39.566406 31.902344 39.601562 C 31.785156 39.640625 31.703125 39.710938 31.644531 39.820312 C 31.589844 39.925781 31.582031 40.039062 31.621094 40.152344 L 32.160156 41.847656 C 31.921875 41.90625 31.699219 42.007812 31.492188 42.140625 C 31.285156 42.277344 31.105469 42.441406 30.953125 42.636719 C 30.800781 42.832031 30.683594 43.046875 30.605469 43.28125 C 30.523438 43.511719 30.484375 43.753906 30.480469 44 C 30.480469 44.121094 30.523438 44.222656 30.609375 44.308594 C 30.695312 44.394531 30.796875 44.4375 30.917969 44.4375 C 31.039062 44.4375 31.140625 44.394531 31.226562 44.308594 C 31.3125 44.222656 31.355469 44.121094 31.355469 44 C 31.355469 43.675781 31.460938 43.386719 31.667969 43.136719 C 31.875 42.886719 32.136719 42.730469 32.457031 42.667969 C 32.683594 43.117188 33.011719 43.476562 33.441406 43.738281 C 33.871094 44.003906 34.335938 44.132812 34.839844 44.132812 C 35.472656 44.132812 35.96875 44.394531 36.324219 44.917969 L 37.558594 46.734375 L 37.558594 54.878906 L 37.414062 55.03125 C 37.1875 55.261719 36.9375 55.464844 36.667969 55.644531 C 36.402344 55.824219 36.117188 55.976562 35.816406 56.101562 C 35.519531 56.226562 35.210938 56.320312 34.894531 56.382812 C 34.578125 56.445312 34.257812 56.476562 33.933594 56.476562 C 33.609375 56.476562 33.289062 56.445312 32.972656 56.382812 C 32.652344 56.320312 32.347656 56.226562 32.046875 56.101562 C 31.746094 55.980469 31.464844 55.828125 31.195312 55.648438 C 30.925781 55.46875 30.675781 55.265625 30.449219 55.035156 C 29.867188 54.441406 29.453125 53.746094 29.210938 52.949219 L 28.832031 51.675781 L 29.433594 51.675781 C 29.710938 51.675781 29.984375 51.648438 30.253906 51.59375 C 30.523438 51.539062 30.785156 51.460938 31.039062 51.355469 C 31.292969 51.246094 31.535156 51.117188 31.765625 50.964844 C 31.992188 50.8125 32.207031 50.636719 32.402344 50.445312 C 32.59375 50.25 32.769531 50.035156 32.921875 49.808594 C 33.074219 49.578125 33.203125 49.335938 33.3125 49.082031 C 33.417969 48.828125 33.496094 48.566406 33.550781 48.296875 C 33.605469 48.027344 33.632812 47.753906 33.632812 47.476562 C 33.632812 47.355469 33.589844 47.253906 33.503906 47.167969 C 33.417969 47.082031 33.316406 47.039062 33.195312 47.039062 C 33.074219 47.039062 32.972656 47.082031 32.886719 47.167969 C 32.800781 47.253906 32.757812 47.355469 32.757812 47.476562 C 32.757812 47.917969 32.671875 48.339844 32.503906 48.75 C 32.335938 49.15625 32.09375 49.515625 31.785156 49.828125 C 31.472656 50.136719 31.113281 50.378906 30.707031 50.546875 C 30.296875 50.714844 29.875 50.800781 29.433594 50.800781 L 28.246094 50.800781 C 28.242188 50.800781 28.234375 50.804688 28.230469 50.804688 L 26.8125 50.804688 C 26.691406 50.804688 26.589844 50.847656 26.503906 50.933594 C 26.417969 51.019531 26.375 51.121094 26.375 51.242188 C 26.375 51.363281 26.417969 51.464844 26.503906 51.550781 C 26.589844 51.632812 26.691406 51.675781 26.8125 51.675781 L 27.925781 51.675781 L 28.375 53.199219 C 28.660156 54.132812 29.144531 54.949219 29.828125 55.648438 C 30.09375 55.917969 30.386719 56.15625 30.699219 56.367188 C 31.015625 56.578125 31.347656 56.757812 31.699219 56.902344 C 32.046875 57.050781 32.40625 57.160156 32.777344 57.234375 C 33.152344 57.3125 33.527344 57.347656 33.90625 57.351562 C 34.285156 57.351562 34.660156 57.316406 35.03125 57.246094 C 35.402344 57.171875 35.765625 57.066406 36.113281 56.921875 C 36.464844 56.777344 36.800781 56.601562 37.117188 56.394531 C 37.433594 56.1875 37.726562 55.949219 37.996094 55.683594 C 38.265625 55.949219 38.558594 56.1875 38.875 56.394531 C 39.191406 56.601562 39.523438 56.78125 39.875 56.921875 C 40.226562 57.066406 40.589844 57.171875 40.960938 57.246094 C 41.332031 57.316406 41.707031 57.351562 42.085938 57.351562 C 42.46875 57.347656 42.84375 57.3125 43.214844 57.234375 C 43.585938 57.160156 43.945312 57.050781 44.296875 56.902344 C 44.644531 56.757812 44.976562 56.578125 45.292969 56.367188 C 45.605469 56.152344 45.898438 55.914062 46.164062 55.644531 C 46.847656 54.949219 47.332031 54.132812 47.617188 53.199219 L 48.066406 51.675781 L 49.179688 51.675781 C 49.300781 51.675781 49.402344 51.632812 49.488281 51.550781 C 49.570312 51.464844 49.613281 51.363281 49.613281 51.242188 C 49.613281 51.121094 49.570312 51.019531 49.488281 50.933594 C 49.402344 50.847656 49.300781 50.804688 49.179688 50.804688 Z M 49.179688 50.804688 " fill-opacity="1" fill-rule="nonzero"/></g><path fill="#3f5c4a" d="M 52.335938 52.625 L 52.335938 49.398438 C 52.335938 49.042969 52.265625 48.699219 52.128906 48.367188 C 51.992188 48.039062 51.796875 47.746094 51.546875 47.492188 C 51.292969 47.238281 51 47.042969 50.671875 46.90625 C 50.339844 46.769531 49.996094 46.703125 49.636719 46.703125 L 49.46875 46.703125 C 49.226562 46.699219 48.992188 46.65625 48.769531 46.5625 C 48.546875 46.46875 48.347656 46.335938 48.179688 46.164062 C 48.007812 45.996094 47.875 45.796875 47.78125 45.574219 C 47.691406 45.351562 47.644531 45.117188 47.644531 44.875 C 47.644531 44.753906 47.601562 44.652344 47.515625 44.566406 C 47.429688 44.480469 47.328125 44.4375 47.207031 44.4375 C 47.085938 44.4375 46.984375 44.480469 46.898438 44.566406 C 46.8125 44.652344 46.769531 44.753906 46.769531 44.875 C 46.769531 45.234375 46.839844 45.578125 46.976562 45.90625 C 47.113281 46.238281 47.308594 46.53125 47.5625 46.78125 C 47.8125 47.035156 48.105469 47.230469 48.4375 47.367188 C 48.765625 47.503906 49.109375 47.574219 49.46875 47.574219 L 49.636719 47.574219 C 49.878906 47.574219 50.113281 47.621094 50.335938 47.714844 C 50.558594 47.804688 50.757812 47.9375 50.929688 48.109375 C 51.097656 48.28125 51.230469 48.476562 51.324219 48.703125 C 51.417969 48.925781 51.464844 49.15625 51.464844 49.398438 L 51.464844 52.625 C 51.285156 52.664062 51.117188 52.71875 50.953125 52.796875 C 50.792969 52.875 50.640625 52.972656 50.5 53.085938 C 50.363281 53.199219 50.238281 53.332031 50.132812 53.476562 C 50.023438 53.621094 49.9375 53.777344 49.867188 53.945312 C 49.800781 54.109375 49.753906 54.285156 49.726562 54.460938 C 49.699219 54.640625 49.695312 54.820312 49.714844 55 C 49.734375 55.179688 49.773438 55.351562 49.832031 55.523438 C 49.894531 55.691406 49.976562 55.851562 50.074219 56.003906 C 50.175781 56.152344 50.292969 56.289062 50.425781 56.410156 C 50.558594 56.53125 50.707031 56.632812 50.867188 56.71875 C 51.023438 56.800781 51.191406 56.867188 51.367188 56.910156 C 51.542969 56.953125 51.71875 56.976562 51.898438 56.976562 C 52.082031 56.976562 52.257812 56.953125 52.433594 56.910156 C 52.609375 56.867188 52.773438 56.800781 52.933594 56.71875 C 53.09375 56.632812 53.238281 56.53125 53.375 56.410156 C 53.507812 56.289062 53.625 56.152344 53.726562 56.003906 C 53.824219 55.851562 53.90625 55.691406 53.96875 55.523438 C 54.027344 55.351562 54.066406 55.179688 54.085938 55 C 54.105469 54.820312 54.101562 54.640625 54.074219 54.460938 C 54.046875 54.285156 54 54.109375 53.933594 53.945312 C 53.863281 53.777344 53.773438 53.621094 53.667969 53.476562 C 53.5625 53.332031 53.4375 53.199219 53.300781 53.085938 C 53.160156 52.972656 53.007812 52.875 52.847656 52.796875 C 52.683594 52.71875 52.511719 52.664062 52.335938 52.625 Z M 51.898438 56.101562 C 51.722656 56.101562 51.554688 56.070312 51.394531 56.003906 C 51.230469 55.933594 51.089844 55.839844 50.964844 55.714844 C 50.839844 55.589844 50.746094 55.449219 50.675781 55.285156 C 50.609375 55.125 50.578125 54.953125 50.578125 54.777344 C 50.578125 54.605469 50.609375 54.433594 50.675781 54.273438 C 50.746094 54.109375 50.839844 53.96875 50.964844 53.84375 C 51.089844 53.71875 51.230469 53.625 51.394531 53.554688 C 51.554688 53.488281 51.722656 53.457031 51.898438 53.457031 C 52.074219 53.457031 52.246094 53.488281 52.40625 53.554688 C 52.570312 53.625 52.710938 53.71875 52.835938 53.84375 C 52.960938 53.96875 53.054688 54.109375 53.121094 54.273438 C 53.191406 54.433594 53.222656 54.605469 53.222656 54.78125 C 53.222656 54.953125 53.191406 55.125 53.121094 55.285156 C 53.054688 55.449219 52.960938 55.589844 52.835938 55.714844 C 52.710938 55.839844 52.570312 55.933594 52.40625 56 C 52.246094 56.070312 52.074219 56.101562 51.898438 56.101562 Z M 51.898438 56.101562 " fill-opacity="1" fill-rule="nonzero"/><path fill="#3f5c4a" d="M 56.988281 47.085938 L 56.988281 45.46875 C 56.988281 45.230469 56.945312 45.003906 56.851562 44.785156 C 56.761719 44.5625 56.632812 44.371094 56.464844 44.203125 C 56.296875 44.035156 56.101562 43.902344 55.882812 43.8125 C 55.664062 43.722656 55.433594 43.675781 55.195312 43.675781 L 52.875 43.675781 C 52.621094 43.675781 52.40625 43.585938 52.226562 43.40625 C 52.046875 43.226562 51.957031 43.007812 51.953125 42.753906 L 51.953125 41.566406 C 51.953125 41.328125 51.910156 41.101562 51.816406 40.882812 C 51.726562 40.660156 51.597656 40.46875 51.429688 40.300781 C 51.261719 40.132812 51.066406 40 50.847656 39.910156 C 50.628906 39.820312 50.398438 39.773438 50.160156 39.773438 L 48.890625 39.773438 C 48.769531 39.773438 48.664062 39.816406 48.582031 39.902344 C 48.496094 39.988281 48.453125 40.089844 48.453125 40.210938 C 48.453125 40.332031 48.496094 40.433594 48.582031 40.519531 C 48.664062 40.605469 48.769531 40.644531 48.890625 40.644531 L 50.160156 40.644531 C 50.414062 40.648438 50.632812 40.738281 50.8125 40.917969 C 50.992188 41.097656 51.082031 41.3125 51.082031 41.566406 L 51.082031 42.753906 C 51.082031 42.992188 51.128906 43.222656 51.21875 43.441406 C 51.308594 43.660156 51.441406 43.855469 51.609375 44.023438 C 51.777344 44.191406 51.96875 44.320312 52.191406 44.410156 C 52.410156 44.503906 52.636719 44.546875 52.875 44.546875 L 55.195312 44.546875 C 55.449219 44.550781 55.667969 44.640625 55.847656 44.820312 C 56.027344 45 56.117188 45.214844 56.117188 45.46875 L 56.117188 47.085938 C 55.941406 47.121094 55.769531 47.175781 55.605469 47.253906 C 55.445312 47.332031 55.292969 47.429688 55.15625 47.542969 C 55.015625 47.660156 54.890625 47.789062 54.785156 47.933594 C 54.679688 48.078125 54.589844 48.234375 54.523438 48.402344 C 54.453125 48.570312 54.40625 48.742188 54.378906 48.921875 C 54.351562 49.097656 54.347656 49.277344 54.367188 49.457031 C 54.386719 49.636719 54.425781 49.8125 54.484375 49.980469 C 54.546875 50.152344 54.628906 50.3125 54.726562 50.460938 C 54.828125 50.609375 54.945312 50.746094 55.078125 50.867188 C 55.214844 50.988281 55.359375 51.089844 55.519531 51.175781 C 55.679688 51.261719 55.84375 51.324219 56.019531 51.367188 C 56.195312 51.414062 56.371094 51.433594 56.554688 51.433594 C 56.734375 51.433594 56.910156 51.414062 57.085938 51.367188 C 57.261719 51.324219 57.429688 51.261719 57.585938 51.175781 C 57.746094 51.089844 57.894531 50.988281 58.027344 50.867188 C 58.160156 50.746094 58.277344 50.609375 58.378906 50.460938 C 58.480469 50.3125 58.558594 50.152344 58.621094 49.980469 C 58.679688 49.8125 58.722656 49.636719 58.738281 49.457031 C 58.757812 49.277344 58.753906 49.097656 58.726562 48.921875 C 58.699219 48.742188 58.652344 48.570312 58.585938 48.402344 C 58.515625 48.234375 58.429688 48.078125 58.320312 47.933594 C 58.214844 47.789062 58.089844 47.660156 57.953125 47.542969 C 57.8125 47.429688 57.660156 47.332031 57.5 47.253906 C 57.335938 47.175781 57.167969 47.121094 56.988281 47.085938 Z M 56.554688 50.5625 C 56.378906 50.5625 56.207031 50.527344 56.046875 50.460938 C 55.882812 50.394531 55.742188 50.296875 55.617188 50.171875 C 55.492188 50.050781 55.398438 49.90625 55.332031 49.742188 C 55.261719 49.582031 55.230469 49.414062 55.230469 49.238281 C 55.230469 49.0625 55.261719 48.894531 55.332031 48.730469 C 55.398438 48.570312 55.492188 48.425781 55.617188 48.300781 C 55.742188 48.175781 55.886719 48.082031 56.046875 48.015625 C 56.210938 47.945312 56.378906 47.914062 56.554688 47.914062 C 56.730469 47.914062 56.898438 47.945312 57.058594 48.015625 C 57.222656 48.082031 57.367188 48.175781 57.488281 48.300781 C 57.613281 48.425781 57.710938 48.570312 57.777344 48.730469 C 57.84375 48.894531 57.878906 49.0625 57.878906 49.238281 C 57.875 49.414062 57.84375 49.582031 57.777344 49.742188 C 57.707031 49.90625 57.613281 50.046875 57.488281 50.171875 C 57.363281 50.296875 57.222656 50.390625 57.058594 50.460938 C 56.898438 50.527344 56.730469 50.5625 56.554688 50.5625 Z M 56.554688 50.5625 " fill-opacity="1" fill-rule="nonzero"/><g clip-path="url(#3d5bcca0f7)"><path fill="#3f5c4a" d="M 62.425781 37.644531 C 61.960938 37.648438 61.535156 37.785156 61.15625 38.054688 C 60.777344 38.328125 60.511719 38.683594 60.359375 39.125 L 57.640625 39.125 C 57.589844 38.257812 57.386719 37.429688 57.035156 36.636719 C 57.386719 35.84375 57.585938 35.015625 57.640625 34.152344 L 60.359375 34.152344 C 60.417969 34.320312 60.496094 34.480469 60.597656 34.632812 C 60.695312 34.785156 60.808594 34.921875 60.941406 35.042969 C 61.074219 35.164062 61.21875 35.269531 61.378906 35.359375 C 61.535156 35.445312 61.703125 35.511719 61.875 35.558594 C 62.050781 35.601562 62.226562 35.628906 62.410156 35.628906 C 62.589844 35.632812 62.765625 35.613281 62.941406 35.570312 C 63.117188 35.527344 63.285156 35.46875 63.445312 35.382812 C 63.605469 35.300781 63.753906 35.199219 63.890625 35.082031 C 64.023438 34.960938 64.144531 34.828125 64.246094 34.679688 C 64.347656 34.53125 64.429688 34.371094 64.496094 34.203125 C 64.558594 34.035156 64.597656 33.859375 64.621094 33.683594 C 64.640625 33.503906 64.640625 33.324219 64.617188 33.144531 C 64.589844 32.964844 64.546875 32.792969 64.480469 32.625 C 64.414062 32.457031 64.328125 32.300781 64.222656 32.152344 C 64.117188 32.007812 63.996094 31.875 63.859375 31.757812 C 63.722656 31.640625 63.574219 31.542969 63.410156 31.464844 C 63.25 31.382812 63.082031 31.324219 62.90625 31.285156 C 62.730469 31.246094 62.550781 31.230469 62.371094 31.234375 C 62.191406 31.242188 62.011719 31.269531 61.839844 31.316406 C 61.664062 31.367188 61.5 31.4375 61.34375 31.527344 C 61.1875 31.617188 61.042969 31.722656 60.914062 31.847656 C 60.785156 31.972656 60.671875 32.113281 60.574219 32.265625 C 60.480469 32.417969 60.402344 32.578125 60.347656 32.75 C 60.292969 32.921875 60.257812 33.097656 60.246094 33.277344 L 57.632812 33.277344 C 57.59375 32.632812 57.46875 32.003906 57.261719 31.390625 C 57.21875 31.277344 57.144531 31.195312 57.039062 31.140625 C 56.929688 31.089844 56.820312 31.082031 56.707031 31.121094 C 56.589844 31.160156 56.507812 31.234375 56.457031 31.34375 C 56.402344 31.449219 56.394531 31.5625 56.433594 31.675781 C 56.691406 32.414062 56.804688 33.171875 56.777344 33.953125 C 56.75 34.734375 56.582031 35.480469 56.277344 36.199219 L 48.890625 36.199219 C 48.769531 36.199219 48.664062 36.242188 48.582031 36.328125 C 48.496094 36.414062 48.453125 36.515625 48.453125 36.636719 C 48.453125 36.757812 48.496094 36.859375 48.582031 36.945312 C 48.664062 37.03125 48.769531 37.074219 48.890625 37.074219 L 56.277344 37.074219 C 56.582031 37.792969 56.75 38.539062 56.777344 39.320312 C 56.804688 40.101562 56.691406 40.859375 56.433594 41.597656 C 56.394531 41.710938 56.402344 41.824219 56.453125 41.933594 C 56.507812 42.042969 56.589844 42.113281 56.703125 42.15625 C 56.820312 42.195312 56.929688 42.1875 57.039062 42.132812 C 57.148438 42.082031 57.222656 41.996094 57.261719 41.882812 C 57.46875 41.269531 57.59375 40.640625 57.636719 39.996094 L 60.246094 39.996094 C 60.265625 40.28125 60.339844 40.554688 60.464844 40.808594 C 60.59375 41.066406 60.765625 41.289062 60.976562 41.480469 C 61.191406 41.667969 61.433594 41.8125 61.703125 41.90625 C 61.976562 42 62.253906 42.039062 62.539062 42.027344 C 62.824219 42.011719 63.097656 41.945312 63.355469 41.824219 C 63.617188 41.703125 63.84375 41.539062 64.039062 41.328125 C 64.230469 41.117188 64.378906 40.878906 64.480469 40.613281 C 64.582031 40.34375 64.628906 40.066406 64.621094 39.78125 C 64.613281 39.496094 64.554688 39.222656 64.4375 38.957031 C 64.324219 38.695312 64.164062 38.464844 63.957031 38.265625 C 63.753906 38.066406 63.519531 37.914062 63.253906 37.804688 C 62.988281 37.699219 62.710938 37.644531 62.425781 37.644531 Z M 62.425781 32.109375 C 62.601562 32.109375 62.769531 32.140625 62.933594 32.207031 C 63.09375 32.277344 63.238281 32.371094 63.363281 32.496094 C 63.484375 32.621094 63.582031 32.761719 63.648438 32.925781 C 63.714844 33.085938 63.75 33.257812 63.75 33.429688 C 63.75 33.605469 63.714844 33.777344 63.648438 33.9375 C 63.582031 34.101562 63.484375 34.242188 63.363281 34.367188 C 63.238281 34.492188 63.09375 34.585938 62.933594 34.65625 C 62.769531 34.722656 62.601562 34.753906 62.425781 34.753906 C 62.25 34.753906 62.082031 34.722656 61.917969 34.65625 C 61.757812 34.585938 61.613281 34.492188 61.488281 34.367188 C 61.367188 34.242188 61.269531 34.101562 61.203125 33.9375 C 61.136719 33.777344 61.101562 33.605469 61.101562 33.429688 C 61.101562 33.257812 61.136719 33.085938 61.203125 32.925781 C 61.269531 32.761719 61.367188 32.621094 61.492188 32.496094 C 61.613281 32.371094 61.757812 32.277344 61.917969 32.210938 C 62.082031 32.140625 62.25 32.109375 62.425781 32.109375 Z M 62.425781 41.167969 C 62.25 41.167969 62.082031 41.132812 61.917969 41.066406 C 61.757812 41 61.613281 40.902344 61.488281 40.777344 C 61.367188 40.65625 61.269531 40.511719 61.203125 40.347656 C 61.136719 40.1875 61.101562 40.019531 61.101562 39.84375 C 61.101562 39.667969 61.136719 39.496094 61.203125 39.335938 C 61.269531 39.171875 61.367188 39.03125 61.488281 38.90625 C 61.613281 38.78125 61.757812 38.6875 61.917969 38.621094 C 62.082031 38.550781 62.25 38.519531 62.425781 38.519531 C 62.601562 38.519531 62.769531 38.550781 62.933594 38.621094 C 63.09375 38.6875 63.238281 38.78125 63.363281 38.90625 C 63.484375 39.03125 63.582031 39.171875 63.648438 39.335938 C 63.714844 39.5 63.75 39.667969 63.75 39.84375 C 63.75 40.019531 63.714844 40.1875 63.648438 40.347656 C 63.582031 40.511719 63.484375 40.652344 63.363281 40.777344 C 63.238281 40.902344 63.09375 40.996094 62.933594 41.066406 C 62.769531 41.132812 62.601562 41.164062 62.425781 41.167969 Z M 62.425781 41.167969 " fill-opacity="1" fill-rule="nonzero"/></g></svg>