<svg xmlns="http://www.w3.org/2000/svg" xmlns:xlink="http://www.w3.org/1999/xlink" width="103" zoomAndPan="magnify" viewBox="0 0 77.25 74.249996" height="99" preserveAspectRatio="xMidYMid meet" version="1.0"><defs><clipPath id="da8e5c6e17"><path d="M 0.015625 0 L 76.105469 0 L 76.105469 73.230469 L 0.015625 73.230469 Z M 0.015625 0 " clip-rule="nonzero"/></clipPath><clipPath id="9afe5ffcaf"><path d="M 36.628906 0 L 39.40625 0 C 49.117188 0 58.433594 3.859375 65.300781 10.722656 C 72.164062 17.589844 76.023438 26.90625 76.023438 36.617188 C 76.023438 46.328125 72.164062 55.640625 65.300781 62.507812 C 58.433594 69.375 49.117188 73.230469 39.40625 73.230469 L 36.628906 73.230469 C 26.917969 73.230469 17.605469 69.375 10.738281 62.507812 C 3.871094 55.640625 0.015625 46.328125 0.015625 36.617188 C 0.015625 26.90625 3.871094 17.589844 10.738281 10.722656 C 17.605469 3.859375 26.917969 0 36.628906 0 Z M 36.628906 0 " clip-rule="nonzero"/></clipPath><clipPath id="d65afe1696"><path d="M 0.015625 0 L 76.046875 0 L 76.046875 73.230469 L 0.015625 73.230469 Z M 0.015625 0 " clip-rule="nonzero"/></clipPath><clipPath id="8bb832eacc"><path d="M 36.628906 0 L 39.40625 0 C 49.117188 0 58.433594 3.859375 65.300781 10.722656 C 72.164062 17.589844 76.023438 26.90625 76.023438 36.617188 C 76.023438 46.328125 72.164062 55.640625 65.300781 62.507812 C 58.433594 69.375 49.117188 73.230469 39.40625 73.230469 L 36.628906 73.230469 C 26.917969 73.230469 17.605469 69.375 10.738281 62.507812 C 3.871094 55.640625 0.015625 46.328125 0.015625 36.617188 C 0.015625 26.90625 3.871094 17.589844 10.738281 10.722656 C 17.605469 3.859375 26.917969 0 36.628906 0 Z M 36.628906 0 " clip-rule="nonzero"/></clipPath><clipPath id="25325aeb3e"><rect x="0" width="77" y="0" height="74"/></clipPath><clipPath id="501d11fb0b"><path d="M 17.84375 15.164062 L 59.421875 15.164062 L 59.421875 56.742188 L 17.84375 56.742188 Z M 17.84375 15.164062 " clip-rule="nonzero"/></clipPath></defs><g clip-path="url(#da8e5c6e17)"><g clip-path="url(#9afe5ffcaf)"><g transform="matrix(1, 0, 0, 1, 0.000000000000000005, 0.000000000000006949)"><g clip-path="url(#25325aeb3e)"><g clip-path="url(#d65afe1696)"><g clip-path="url(#8bb832eacc)"><path fill="#e9e3d8" d="M 0.015625 0 L 76.105469 0 L 76.105469 73.230469 L 0.015625 73.230469 Z M 0.015625 0 " fill-opacity="1" fill-rule="nonzero"/></g></g></g></g></g></g><g clip-path="url(#501d11fb0b)"><path fill="#3f5c4a" d="M 50.066406 15.164062 C 45.078125 15.164062 41.019531 19.222656 41.019531 24.210938 C 41.019531 25.566406 41.328125 26.914062 41.910156 28.128906 L 41.558594 29.003906 C 39.613281 27.488281 37.167969 26.535156 34.585938 26.304688 C 31.523438 26.03125 28.574219 26.773438 26.058594 28.445312 C 21.296875 31.550781 20.992188 34.8125 20.742188 37.429688 C 20.636719 38.566406 20.542969 39.550781 20.109375 40.363281 L 17.960938 43.621094 C 17.917969 43.6875 17.886719 43.765625 17.875 43.847656 C 17.78125 44.484375 17.894531 44.960938 18.214844 45.308594 C 18.558594 45.683594 19.101562 45.863281 19.976562 45.875 C 19.90625 46.023438 19.878906 46.195312 19.898438 46.367188 C 19.929688 46.625 20.058594 46.847656 20.261719 46.992188 L 20.703125 47.3125 L 20.546875 47.445312 C 20.328125 47.625 20.195312 47.886719 20.179688 48.171875 C 20.164062 48.457031 20.265625 48.722656 20.464844 48.933594 L 20.816406 49.296875 C 20.234375 50.242188 20.261719 51.660156 20.957031 52.554688 C 21.914062 53.796875 23.796875 53.558594 25.792969 53.308594 C 25.960938 53.289062 26.136719 53.265625 26.308594 53.246094 C 26.515625 54.832031 26.945312 55.777344 27.679688 56.269531 C 27.769531 56.332031 27.878906 56.363281 27.988281 56.363281 L 39.980469 56.429688 C 39.988281 56.429688 39.996094 56.429688 40.003906 56.429688 C 40.636719 56.429688 41.203125 56.15625 41.597656 55.652344 C 41.992188 55.148438 42.125 54.523438 41.96875 53.902344 L 41.15625 50.644531 C 40.714844 48.882812 41.078125 47.195312 42.203125 45.769531 C 45.589844 41.472656 46.519531 37.027344 44.855469 33.191406 L 46.398438 32.480469 C 47.550781 32.996094 48.78125 33.253906 50.066406 33.253906 C 55.054688 33.253906 59.109375 29.195312 59.109375 24.210938 C 59.109375 19.222656 55.054688 15.164062 50.066406 15.164062 Z M 41.71875 34.640625 C 41.984375 35.183594 42.070312 35.804688 41.949219 36.402344 C 41.882812 36.730469 41.765625 37.035156 41.59375 37.3125 C 41.484375 37.484375 41.476562 37.699219 41.574219 37.878906 C 42.339844 39.28125 42.167969 40.539062 41.03125 41.832031 C 40.984375 41.882812 40.949219 41.945312 40.925781 42.011719 C 40.660156 42.753906 40.191406 43.355469 39.488281 43.847656 C 39.375 43.933594 39.292969 44.054688 39.261719 44.195312 C 39.023438 45.367188 38.597656 46.257812 38.007812 46.84375 C 37.605469 47.242188 37.105469 47.335938 36.855469 47.195312 C 36.613281 47.0625 36.65625 46.691406 36.703125 46.480469 C 37.003906 45.15625 36.691406 44.269531 35.664062 43.53125 C 37.207031 43.171875 38.453125 41.941406 38.777344 40.316406 C 38.839844 40.007812 38.640625 39.710938 38.335938 39.652344 C 38.03125 39.589844 37.730469 39.789062 37.671875 40.09375 C 37.371094 41.585938 36.003906 42.621094 34.488281 42.503906 C 34.484375 42.503906 34.480469 42.503906 34.476562 42.503906 C 34.367188 42.496094 34.25 42.476562 34.125 42.453125 C 33.4375 42.316406 32.839844 41.957031 32.394531 41.417969 C 32.394531 41.414062 32.390625 41.414062 32.390625 41.414062 C 32.390625 41.410156 32.386719 41.410156 32.386719 41.40625 C 31.8125 40.707031 31.585938 39.796875 31.765625 38.914062 C 31.828125 38.605469 31.628906 38.308594 31.324219 38.25 C 31.019531 38.1875 30.71875 38.386719 30.660156 38.691406 C 30.457031 39.6875 30.632812 40.710938 31.136719 41.578125 C 30.644531 41.777344 30.101562 41.828125 29.566406 41.722656 C 28.550781 41.519531 27.742188 40.773438 27.457031 39.773438 C 27.398438 39.574219 27.242188 39.425781 27.042969 39.378906 C 27.015625 39.371094 26.992188 39.367188 26.96875 39.363281 L 26.933594 39.355469 C 25.445312 39.058594 24.476562 37.605469 24.773438 36.117188 C 24.914062 35.421875 25.308594 34.820312 25.867188 34.421875 C 25.992188 34.761719 26.160156 35.085938 26.375 35.382812 C 26.484375 35.535156 26.65625 35.617188 26.832031 35.617188 C 26.945312 35.617188 27.0625 35.582031 27.160156 35.511719 C 27.414062 35.328125 27.472656 34.976562 27.289062 34.722656 C 27.023438 34.355469 26.851562 33.929688 26.792969 33.496094 C 26.792969 33.492188 26.792969 33.492188 26.789062 33.488281 C 26.75 33.183594 26.757812 32.875 26.820312 32.566406 C 26.960938 31.84375 27.378906 31.222656 27.992188 30.8125 C 28.605469 30.40625 29.335938 30.261719 30.058594 30.40625 C 30.21875 30.4375 30.375 30.484375 30.527344 30.542969 C 30.53125 30.542969 30.535156 30.542969 30.539062 30.546875 C 30.542969 30.546875 30.542969 30.546875 30.542969 30.546875 C 31.058594 30.753906 31.496094 31.105469 31.804688 31.566406 C 31.914062 31.726562 32.089844 31.816406 32.273438 31.816406 C 32.382812 31.816406 32.492188 31.785156 32.585938 31.71875 C 32.847656 31.542969 32.914062 31.191406 32.738281 30.933594 C 32.550781 30.652344 32.324219 30.398438 32.074219 30.179688 C 32.578125 30.097656 33.105469 30.105469 33.621094 30.207031 C 34.492188 30.382812 35.265625 30.808594 35.839844 31.40625 C 34.476562 31.445312 33.199219 32.195312 32.523438 33.460938 C 32.375 33.738281 32.480469 34.078125 32.753906 34.226562 C 32.839844 34.269531 32.929688 34.292969 33.019531 34.292969 C 33.222656 34.292969 33.417969 34.183594 33.519531 33.992188 C 34.15625 32.800781 35.546875 32.25 36.832031 32.679688 C 36.835938 32.683594 36.839844 32.683594 36.84375 32.683594 C 36.847656 32.683594 36.847656 32.6875 36.851562 32.6875 C 37.171875 32.796875 37.46875 32.964844 37.726562 33.183594 C 37.882812 33.316406 38.097656 33.351562 38.289062 33.28125 C 38.765625 33.101562 39.285156 33.058594 39.789062 33.160156 C 39.8125 33.164062 39.835938 33.171875 39.859375 33.175781 L 39.234375 34.710938 C 39.148438 34.925781 39.203125 35.171875 39.371094 35.332031 C 39.476562 35.433594 39.617188 35.488281 39.757812 35.488281 C 39.839844 35.488281 39.917969 35.472656 39.996094 35.4375 Z M 41.316406 45.070312 C 39.96875 46.78125 39.535156 48.804688 40.0625 50.917969 L 40.875 54.175781 C 40.945312 54.460938 40.890625 54.722656 40.707031 54.957031 C 40.527344 55.183594 40.292969 55.300781 40 55.300781 C 39.996094 55.300781 39.992188 55.300781 39.992188 55.300781 L 28.1875 55.238281 C 27.769531 54.84375 27.496094 53.949219 27.371094 52.570312 C 27.359375 52.421875 27.285156 52.28125 27.167969 52.1875 C 27.050781 52.089844 26.902344 52.042969 26.75 52.058594 C 26.378906 52.097656 26.007812 52.144531 25.652344 52.191406 C 23.988281 52.398438 22.414062 52.597656 21.847656 51.863281 C 21.34375 51.214844 21.484375 50.113281 21.953125 49.667969 C 22.0625 49.5625 22.125 49.421875 22.128906 49.269531 C 22.132812 49.121094 22.074219 48.972656 21.96875 48.867188 L 21.359375 48.238281 L 21.980469 47.714844 C 22.113281 47.601562 22.1875 47.4375 22.183594 47.261719 C 22.175781 47.089844 22.089844 46.929688 21.949219 46.828125 L 21.121094 46.222656 L 21.289062 46.023438 C 21.492188 45.785156 21.53125 45.445312 21.390625 45.160156 C 21.242188 44.875 20.945312 44.703125 20.628906 44.726562 C 19.46875 44.804688 19.136719 44.644531 19.042969 44.542969 C 18.96875 44.464844 18.964844 44.292969 18.976562 44.128906 L 21.0625 40.960938 C 21.074219 40.949219 21.082031 40.9375 21.085938 40.921875 C 21.644531 39.90625 21.753906 38.753906 21.867188 37.535156 C 22.101562 35.035156 22.371094 32.199219 26.679688 29.386719 C 31.667969 26.066406 37.628906 27.214844 41.113281 30.09375 L 40.289062 32.121094 C 40.199219 32.097656 40.105469 32.074219 40.011719 32.054688 C 39.40625 31.933594 38.789062 31.957031 38.199219 32.125 C 37.960938 31.953125 37.707031 31.8125 37.4375 31.703125 C 36.734375 30.378906 35.40625 29.414062 33.839844 29.101562 C 32.773438 28.886719 31.667969 29 30.703125 29.40625 C 30.5625 29.363281 30.421875 29.328125 30.28125 29.300781 C 29.265625 29.09375 28.230469 29.300781 27.367188 29.875 C 26.503906 30.449219 25.914062 31.328125 25.710938 32.34375 C 25.652344 32.640625 25.628906 32.941406 25.636719 33.234375 C 24.621094 33.78125 23.898438 34.746094 23.667969 35.894531 C 23.261719 37.917969 24.519531 39.894531 26.480469 40.410156 C 26.957031 41.652344 28.027344 42.566406 29.347656 42.828125 C 30.207031 43 31.082031 42.878906 31.855469 42.492188 C 32.417969 43.03125 33.132812 43.40625 33.90625 43.5625 C 33.980469 43.574219 34.050781 43.585938 34.121094 43.597656 C 34.363281 43.921875 34.652344 44.199219 34.976562 44.425781 C 35.652344 44.898438 35.804688 45.339844 35.601562 46.230469 C 35.40625 47.101562 35.667969 47.828125 36.304688 48.183594 C 36.550781 48.320312 36.832031 48.386719 37.121094 48.386719 C 37.695312 48.386719 38.3125 48.125 38.800781 47.644531 C 39.523438 46.925781 40.023438 45.941406 40.320312 44.636719 C 41.078125 44.058594 41.625 43.339844 41.949219 42.496094 C 43.265625 40.953125 43.519531 39.316406 42.710938 37.621094 C 42.871094 37.308594 42.984375 36.972656 43.054688 36.625 C 43.222656 35.789062 43.109375 34.925781 42.742188 34.167969 L 43.832031 33.664062 C 45.304688 37.101562 44.425781 41.128906 41.316406 45.070312 Z M 50.066406 32.125 C 48.863281 32.125 47.710938 31.863281 46.644531 31.351562 C 46.492188 31.277344 46.316406 31.277344 46.160156 31.347656 L 43.855469 32.410156 C 43.855469 32.410156 43.855469 32.410156 43.851562 32.414062 L 41.722656 33.394531 C 41.710938 33.402344 41.699219 33.40625 41.683594 33.414062 L 40.820312 33.8125 L 43.054688 28.320312 C 43.117188 28.167969 43.109375 27.992188 43.03125 27.847656 C 42.445312 26.714844 42.148438 25.492188 42.148438 24.210938 C 42.148438 19.84375 45.699219 16.292969 50.066406 16.292969 C 54.429688 16.292969 57.980469 19.84375 57.980469 24.210938 C 57.980469 28.574219 54.429688 32.125 50.066406 32.125 Z M 50.066406 17.8125 C 46.535156 17.8125 43.664062 20.683594 43.664062 24.210938 C 43.664062 27.738281 46.535156 30.609375 50.066406 30.609375 C 53.59375 30.609375 56.460938 27.738281 56.460938 24.210938 C 56.460938 20.683594 53.59375 17.8125 50.066406 17.8125 Z M 50.066406 29.480469 C 47.160156 29.480469 44.792969 27.117188 44.792969 24.210938 C 44.792969 21.304688 47.160156 18.941406 50.066406 18.941406 C 52.96875 18.941406 55.332031 21.304688 55.332031 24.210938 C 55.332031 27.117188 52.96875 29.480469 50.066406 29.480469 Z M 46.769531 22.742188 C 46.769531 22.152344 47.246094 21.675781 47.835938 21.675781 C 48.425781 21.675781 48.902344 22.152344 48.902344 22.742188 C 48.902344 23.332031 48.425781 23.808594 47.835938 23.808594 C 47.246094 23.808594 46.769531 23.332031 46.769531 22.742188 Z M 51.226562 22.742188 C 51.226562 22.152344 51.703125 21.675781 52.292969 21.675781 C 52.882812 21.675781 53.359375 22.152344 53.359375 22.742188 C 53.359375 23.332031 52.882812 23.808594 52.292969 23.808594 C 51.703125 23.808594 51.226562 23.332031 51.226562 22.742188 Z M 53.445312 25.238281 C 53.445312 27.101562 51.929688 28.621094 50.066406 28.621094 C 48.199219 28.621094 46.683594 27.101562 46.683594 25.238281 C 46.683594 24.925781 46.933594 24.671875 47.246094 24.671875 C 47.558594 24.671875 47.808594 24.925781 47.808594 25.238281 C 47.808594 26.480469 48.820312 27.492188 50.066406 27.492188 C 51.308594 27.492188 52.316406 26.480469 52.316406 25.238281 C 52.316406 24.925781 52.570312 24.671875 52.882812 24.671875 C 53.195312 24.671875 53.445312 24.925781 53.445312 25.238281 Z M 20.292969 22.910156 L 22.964844 22.910156 L 22.964844 25.578125 C 22.964844 25.890625 23.21875 26.144531 23.527344 26.144531 L 25.992188 26.144531 C 26.304688 26.144531 26.554688 25.890625 26.554688 25.578125 L 26.554688 22.910156 L 29.226562 22.910156 C 29.539062 22.910156 29.789062 22.65625 29.789062 22.34375 L 29.789062 19.878906 C 29.789062 19.566406 29.539062 19.316406 29.226562 19.316406 L 26.554688 19.316406 L 26.554688 16.648438 C 26.554688 16.335938 26.304688 16.082031 25.992188 16.082031 L 23.527344 16.082031 C 23.21875 16.082031 22.964844 16.335938 22.964844 16.648438 L 22.964844 19.316406 L 20.292969 19.316406 C 19.980469 19.316406 19.730469 19.566406 19.730469 19.878906 L 19.730469 22.34375 C 19.730469 22.65625 19.980469 22.910156 20.292969 22.910156 Z M 20.859375 20.445312 L 23.527344 20.445312 C 23.839844 20.445312 24.09375 20.191406 24.09375 19.878906 L 24.09375 17.210938 L 25.425781 17.210938 L 25.425781 19.878906 C 25.425781 20.191406 25.679688 20.445312 25.992188 20.445312 L 28.664062 20.445312 L 28.664062 21.78125 L 25.992188 21.78125 C 25.679688 21.78125 25.425781 22.035156 25.425781 22.34375 L 25.425781 25.015625 L 24.09375 25.015625 L 24.09375 22.34375 C 24.09375 22.035156 23.839844 21.78125 23.527344 21.78125 L 20.859375 21.78125 Z M 55.707031 45.21875 L 53.039062 45.21875 L 53.039062 42.546875 C 53.039062 42.238281 52.785156 41.984375 52.472656 41.984375 L 50.007812 41.984375 C 49.695312 41.984375 49.445312 42.238281 49.445312 42.546875 L 49.445312 45.21875 L 46.773438 45.21875 C 46.464844 45.21875 46.210938 45.46875 46.210938 45.78125 L 46.210938 48.246094 C 46.210938 48.558594 46.464844 48.8125 46.773438 48.8125 L 49.445312 48.8125 L 49.445312 51.480469 C 49.445312 51.792969 49.695312 52.042969 50.007812 52.042969 L 52.472656 52.042969 C 52.785156 52.042969 53.039062 51.792969 53.039062 51.480469 L 53.039062 48.8125 L 55.707031 48.8125 C 56.019531 48.8125 56.269531 48.558594 56.269531 48.246094 L 56.269531 45.78125 C 56.269531 45.46875 56.019531 45.21875 55.707031 45.21875 Z M 55.140625 47.683594 L 52.472656 47.683594 C 52.160156 47.683594 51.910156 47.933594 51.910156 48.246094 L 51.910156 50.914062 L 50.574219 50.914062 L 50.574219 48.246094 C 50.574219 47.933594 50.320312 47.683594 50.007812 47.683594 L 47.339844 47.683594 L 47.339844 46.34375 L 50.007812 46.34375 C 50.320312 46.34375 50.574219 46.09375 50.574219 45.78125 L 50.574219 43.113281 L 51.910156 43.113281 L 51.910156 45.78125 C 51.910156 46.09375 52.160156 46.34375 52.472656 46.34375 L 55.140625 46.34375 Z M 55.140625 47.683594 " fill-opacity="1" fill-rule="nonzero"/></g></svg>