<svg xmlns="http://www.w3.org/2000/svg" xmlns:xlink="http://www.w3.org/1999/xlink" width="91" zoomAndPan="magnify" viewBox="0 0 68.25 68.249997" height="91" preserveAspectRatio="xMidYMid meet" version="1.0"><defs><clipPath id="82e6bbf608"><path d="M 0 0 L 67.085938 0 L 67.085938 67.085938 L 0 67.085938 Z M 0 0 " clip-rule="nonzero"/></clipPath><clipPath id="863c667f4d"><path d="M 33.542969 0 C 15.019531 0 0 15.019531 0 33.542969 C 0 52.070312 15.019531 67.085938 33.542969 67.085938 C 52.070312 67.085938 67.085938 52.070312 67.085938 33.542969 C 67.085938 15.019531 52.070312 0 33.542969 0 Z M 33.542969 0 " clip-rule="nonzero"/></clipPath><clipPath id="7b362eadf2"><path d="M 0 0 L 67.085938 0 L 67.085938 67.085938 L 0 67.085938 Z M 0 0 " clip-rule="nonzero"/></clipPath><clipPath id="bf7481bdc9"><path d="M 33.542969 0 C 15.019531 0 0 15.019531 0 33.542969 C 0 52.070312 15.019531 67.085938 33.542969 67.085938 C 52.070312 67.085938 67.085938 52.070312 67.085938 33.542969 C 67.085938 15.019531 52.070312 0 33.542969 0 Z M 33.542969 0 " clip-rule="nonzero"/></clipPath><clipPath id="03dd8f4283"><rect x="0" width="68" y="0" height="68"/></clipPath></defs><g clip-path="url(#82e6bbf608)"><g clip-path="url(#863c667f4d)"><g transform="matrix(1, 0, 0, 1, 0, 0.000000000000010845)"><g clip-path="url(#03dd8f4283)"><g clip-path="url(#7b362eadf2)"><g clip-path="url(#bf7481bdc9)"><path fill="#e9e3d8" d="M 0 0 L 67.085938 0 L 67.085938 67.085938 L 0 67.085938 Z M 0 0 " fill-opacity="1" fill-rule="nonzero"/></g></g></g></g></g></g><path fill="#72543a" d="M 33.542969 37.070312 C 18.835938 65.53125 48.253906 65.53125 33.542969 37.070312 Z M 33.542969 37.070312 " fill-opacity="1" fill-rule="nonzero"/><path fill="#72543a" d="M 30.953125 36.136719 C 0.625 45.660156 21.425781 66.464844 30.953125 36.136719 Z M 30.953125 36.136719 " fill-opacity="1" fill-rule="nonzero"/><path fill="#72543a" d="M 36.136719 36.136719 C 45.660156 66.464844 66.464844 45.660156 36.136719 36.136719 Z M 36.136719 36.136719 " fill-opacity="1" fill-rule="nonzero"/><path fill="#72543a" d="M 30.019531 33.542969 C 1.558594 18.835938 1.558594 48.253906 30.019531 33.542969 Z M 30.019531 33.542969 " fill-opacity="1" fill-rule="nonzero"/><path fill="#72543a" d="M 36.136719 30.953125 C 66.464844 21.425781 45.660156 0.625 36.136719 30.953125 Z M 36.136719 30.953125 " fill-opacity="1" fill-rule="nonzero"/><path fill="#72543a" d="M 37.070312 33.542969 C 65.53125 48.253906 65.53125 18.835938 37.070312 33.542969 Z M 37.070312 33.542969 " fill-opacity="1" fill-rule="nonzero"/><path fill="#72543a" d="M 30.953125 30.953125 C 21.425781 0.625 0.625 21.425781 30.953125 30.953125 Z M 30.953125 30.953125 " fill-opacity="1" fill-rule="nonzero"/><path fill="#72543a" d="M 33.542969 30.019531 C 48.253906 1.558594 18.835938 1.558594 33.542969 30.019531 Z M 33.542969 30.019531 " fill-opacity="1" fill-rule="nonzero"/></svg>