<svg xmlns="http://www.w3.org/2000/svg" xmlns:xlink="http://www.w3.org/1999/xlink" width="91" zoomAndPan="magnify" viewBox="0 0 68.25 68.249997" height="91" preserveAspectRatio="xMidYMid meet" version="1.0"><defs><clipPath id="3e9ee49c35"><path d="M 0 0 L 67.507812 0 L 67.507812 67.507812 L 0 67.507812 Z M 0 0 " clip-rule="nonzero"/></clipPath><clipPath id="b6afb418da"><path d="M 0 0 L 67.085938 0 L 67.085938 67.085938 L 0 67.085938 Z M 0 0 " clip-rule="nonzero"/></clipPath><clipPath id="c288cd7ca3"><path d="M 33.542969 0 C 15.019531 0 0 15.019531 0 33.542969 C 0 52.070312 15.019531 67.085938 33.542969 67.085938 C 52.070312 67.085938 67.085938 52.070312 67.085938 33.542969 C 67.085938 15.019531 52.070312 0 33.542969 0 Z M 33.542969 0 " clip-rule="nonzero"/></clipPath><clipPath id="b1d69295bd"><path d="M 0 0 L 67.085938 0 L 67.085938 67.085938 L 0 67.085938 Z M 0 0 " clip-rule="nonzero"/></clipPath><clipPath id="cbe8da2006"><path d="M 33.542969 0 C 15.019531 0 0 15.019531 0 33.542969 C 0 52.070312 15.019531 67.085938 33.542969 67.085938 C 52.070312 67.085938 67.085938 52.070312 67.085938 33.542969 C 67.085938 15.019531 52.070312 0 33.542969 0 Z M 33.542969 0 " clip-rule="nonzero"/></clipPath><clipPath id="ad77700f7f"><rect x="0" width="68" y="0" height="68"/></clipPath><clipPath id="b65418d603"><path d="M 7.074219 7.074219 L 59.804688 7.074219 L 59.804688 59.804688 L 7.074219 59.804688 Z M 7.074219 7.074219 " clip-rule="nonzero"/></clipPath><clipPath id="3488bb5304"><rect x="0" width="68" y="0" height="68"/></clipPath></defs><g clip-path="url(#3e9ee49c35)"><g transform="matrix(1, 0, 0, 1, 0, 0.000000000000010845)"><g clip-path="url(#3488bb5304)"><g clip-path="url(#b6afb418da)"><g clip-path="url(#c288cd7ca3)"><g transform="matrix(1, 0, 0, 1, 0, 0.000000000000010845)"><g clip-path="url(#ad77700f7f)"><g clip-path="url(#b1d69295bd)"><g clip-path="url(#cbe8da2006)"><path fill="#e9e3d8" d="M 0 0 L 67.085938 0 L 67.085938 67.085938 L 0 67.085938 Z M 0 0 " fill-opacity="1" fill-rule="nonzero"/></g></g></g></g></g></g><g clip-path="url(#b65418d603)"><path fill="#7b5e44" d="M 33.542969 7.078125 C 18.949219 7.078125 7.078125 18.949219 7.078125 33.542969 C 7.078125 48.132812 18.949219 60.007812 33.542969 60.007812 C 48.136719 60.007812 60.007812 48.132812 60.007812 33.542969 C 60.007812 18.949219 48.136719 7.078125 33.542969 7.078125 Z M 33.542969 58.976562 C 19.515625 58.976562 8.105469 47.566406 8.105469 33.542969 C 8.105469 19.515625 19.515625 8.105469 33.542969 8.105469 C 47.566406 8.105469 58.980469 19.515625 58.980469 33.542969 C 58.980469 47.566406 47.566406 58.976562 33.542969 58.976562 Z M 33.542969 58.976562 " fill-opacity="1" fill-rule="nonzero"/></g><path fill="#7b5e44" d="M 33.542969 9.949219 C 20.535156 9.949219 9.949219 20.53125 9.949219 33.542969 C 9.949219 46.550781 20.535156 57.132812 33.542969 57.132812 C 46.550781 57.132812 57.132812 46.550781 57.132812 33.542969 C 57.132812 20.53125 46.550781 9.949219 33.542969 9.949219 Z M 37.992188 33.027344 C 37.945312 32.617188 37.839844 32.222656 37.691406 31.851562 L 45.304688 27.429688 C 46.183594 29.117188 46.714844 31.015625 46.789062 33.027344 Z M 36.996094 33.542969 C 36.996094 35.445312 35.445312 36.992188 33.542969 36.992188 C 31.640625 36.992188 30.089844 35.445312 30.089844 33.542969 C 30.089844 31.636719 31.640625 30.089844 33.542969 30.089844 C 35.445312 30.089844 36.996094 31.636719 36.996094 33.542969 Z M 37.191406 30.953125 C 36.910156 30.554688 36.5625 30.207031 36.167969 29.917969 L 40.539062 22.285156 C 42.261719 23.359375 43.71875 24.816406 44.796875 26.539062 Z M 35.273438 29.410156 C 34.890625 29.25 34.484375 29.140625 34.058594 29.09375 L 34.058594 20.292969 C 36.066406 20.371094 37.960938 20.898438 39.644531 21.773438 Z M 34.058594 19.265625 L 34.058594 10.992188 C 37.746094 11.074219 41.21875 12.039062 44.269531 13.695312 L 40.15625 20.882812 C 38.320312 19.917969 36.25 19.34375 34.058594 19.265625 Z M 33.027344 19.265625 C 30.816406 19.34375 28.734375 19.925781 26.890625 20.902344 L 22.765625 13.722656 C 25.828125 12.050781 29.320312 11.074219 33.027344 10.992188 Z M 33.027344 20.292969 L 33.027344 29.09375 C 32.589844 29.144531 32.171875 29.253906 31.78125 29.421875 L 27.402344 21.792969 C 29.097656 20.90625 31.003906 20.371094 33.027344 20.292969 Z M 30.890625 29.9375 C 30.566406 30.179688 30.273438 30.460938 30.023438 30.777344 L 22.40625 26.355469 C 23.460938 24.726562 24.863281 23.339844 26.511719 22.308594 Z M 29.484375 31.65625 C 29.285156 32.082031 29.148438 32.542969 29.09375 33.027344 L 20.296875 33.027344 C 20.375 30.9375 20.9375 28.972656 21.878906 27.238281 Z M 19.265625 33.027344 L 10.992188 33.027344 C 11.078125 29.238281 12.097656 25.679688 13.835938 22.570312 L 20.988281 26.722656 C 19.960938 28.609375 19.347656 30.75 19.265625 33.027344 Z M 19.265625 34.054688 C 19.347656 36.332031 19.960938 38.476562 20.988281 40.363281 L 13.835938 44.515625 C 12.097656 41.40625 11.078125 37.84375 10.992188 34.054688 Z M 20.296875 34.054688 L 29.09375 34.054688 C 29.148438 34.542969 29.285156 35.003906 29.484375 35.429688 L 21.878906 39.84375 C 20.9375 38.109375 20.375 36.144531 20.296875 34.054688 Z M 30.023438 36.304688 C 30.265625 36.613281 30.546875 36.886719 30.859375 37.121094 L 26.484375 44.761719 C 24.851562 43.726562 23.457031 42.351562 22.40625 40.726562 Z M 31.746094 37.644531 C 32.144531 37.820312 32.578125 37.9375 33.027344 37.988281 L 33.027344 46.789062 C 30.996094 46.710938 29.078125 46.171875 27.375 45.277344 Z M 33.027344 47.816406 L 33.027344 56.09375 C 29.3125 56.007812 25.816406 55.03125 22.75 53.351562 L 26.863281 46.167969 C 28.714844 47.152344 30.808594 47.738281 33.027344 47.816406 Z M 34.058594 47.816406 C 36.273438 47.738281 38.359375 47.152344 40.210938 46.171875 L 44.332031 53.355469 C 41.265625 55.03125 37.769531 56.007812 34.054688 56.09375 L 34.054688 47.816406 Z M 34.058594 46.789062 L 34.058594 37.988281 C 34.5 37.9375 34.925781 37.824219 35.320312 37.652344 L 39.699219 45.28125 C 38 46.175781 36.085938 46.710938 34.058594 46.789062 Z M 36.207031 37.136719 C 36.585938 36.855469 36.917969 36.515625 37.191406 36.132812 L 44.792969 40.546875 C 43.730469 42.25 42.289062 43.695312 40.589844 44.765625 Z M 37.691406 35.230469 C 37.839844 34.863281 37.945312 34.46875 37.992188 34.054688 L 46.789062 34.054688 C 46.714844 36.066406 46.183594 37.964844 45.304688 39.652344 Z M 47.816406 34.054688 L 56.09375 34.054688 C 56.007812 37.769531 55.03125 41.265625 53.355469 44.328125 L 46.195312 40.171875 C 47.164062 38.332031 47.738281 36.257812 47.816406 34.054688 Z M 47.816406 33.027344 C 47.738281 30.828125 47.164062 28.753906 46.195312 26.914062 L 53.355469 22.753906 C 55.03125 25.820312 56.011719 29.316406 56.09375 33.027344 Z M 52.84375 21.863281 L 45.683594 26.023438 C 44.519531 24.144531 42.929688 22.554688 41.050781 21.390625 L 45.160156 14.207031 C 48.300781 16.101562 50.941406 18.734375 52.84375 21.863281 Z M 21.875 14.234375 L 25.996094 21.414062 C 24.195312 22.539062 22.664062 24.054688 21.515625 25.839844 L 14.359375 21.683594 C 16.242188 18.648438 18.820312 16.085938 21.875 14.234375 Z M 14.359375 45.402344 L 21.519531 41.246094 C 22.660156 43.023438 24.183594 44.53125 25.976562 45.652344 L 21.859375 52.839844 C 18.8125 50.988281 16.238281 48.429688 14.359375 45.402344 Z M 45.222656 52.839844 L 41.101562 45.660156 C 42.957031 44.496094 44.527344 42.921875 45.683594 41.0625 L 52.84375 45.21875 C 50.953125 48.332031 48.332031 50.953125 45.222656 52.839844 Z M 45.222656 52.839844 " fill-opacity="1" fill-rule="nonzero"/><path fill="#7b5e44" d="M 14.277344 36.398438 C 14.390625 36.382812 14.492188 36.464844 14.585938 36.644531 C 15.003906 37.4375 15.28125 39.027344 15.3125 40.796875 C 15.3125 40.929688 15.421875 41.039062 15.554688 41.039062 L 15.746094 41.039062 C 15.875 41.039062 15.988281 40.929688 15.988281 40.796875 C 16.035156 38.929688 16.292969 37.457031 16.71875 36.644531 C 16.847656 36.398438 16.972656 36.417969 17.015625 36.425781 C 17.289062 36.464844 17.65625 37 17.753906 37.503906 C 17.777344 37.617188 17.878906 37.699219 17.996094 37.699219 L 18.183594 37.699219 C 18.253906 37.699219 18.324219 37.671875 18.371094 37.617188 C 18.414062 37.5625 18.4375 37.492188 18.429688 37.421875 C 18.316406 36.605469 17.65625 35.828125 17.015625 35.757812 C 16.757812 35.734375 16.292969 35.792969 16.019531 36.539062 C 15.875 36.917969 15.746094 37.347656 15.648438 37.753906 C 15.535156 37.285156 15.390625 36.851562 15.273438 36.539062 C 14.980469 35.789062 14.515625 35.730469 14.261719 35.753906 C 13.636719 35.824219 12.988281 36.605469 12.871094 37.421875 C 12.863281 37.492188 12.882812 37.5625 12.929688 37.617188 C 12.976562 37.671875 13.042969 37.703125 13.113281 37.703125 L 13.296875 37.703125 C 13.417969 37.703125 13.519531 37.617188 13.539062 37.496094 C 13.613281 37.054688 13.984375 36.445312 14.277344 36.398438 Z M 14.277344 36.398438 " fill-opacity="1" fill-rule="nonzero"/><path fill="#7b5e44" d="M 22.398438 47.769531 C 22.4375 47.070312 22.136719 46.441406 21.578125 46.027344 C 21.691406 45.914062 21.796875 45.792969 21.898438 45.671875 C 22.136719 45.390625 22.347656 45.148438 22.648438 45.070312 C 22.945312 44.992188 23.152344 44.726562 23.152344 44.421875 C 23.152344 44.261719 23.023438 44.136719 22.867188 44.136719 L 22.839844 44.136719 C 21.972656 44.214844 21.574219 44.691406 21.253906 45.070312 C 20.980469 45.394531 20.785156 45.625 20.371094 45.632812 C 19.957031 45.601562 19.730469 45.351562 19.449219 45.035156 C 19.105469 44.65625 18.679688 44.179688 17.785156 44.132812 L 17.664062 44.132812 L 17.566406 44.21875 L 17.492188 44.292969 L 17.484375 44.421875 C 17.484375 44.730469 17.691406 44.996094 17.988281 45.070312 C 18.339844 45.15625 18.597656 45.433594 18.875 45.726562 C 18.96875 45.828125 19.0625 45.929688 19.164062 46.027344 C 18.605469 46.441406 18.292969 47.121094 18.355469 47.835938 C 18.425781 48.671875 18.972656 49.339844 19.78125 49.589844 C 19.984375 49.648438 20.191406 49.679688 20.398438 49.679688 C 20.648438 49.679688 20.894531 49.636719 21.121094 49.546875 C 21.851562 49.265625 22.351562 48.566406 22.398438 47.769531 Z M 20.375 46.28125 C 20.753906 46.28125 21.101562 46.433594 21.351562 46.683594 C 21.601562 46.933594 21.753906 47.277344 21.753906 47.660156 C 21.753906 48.039062 21.601562 48.382812 21.351562 48.632812 C 21.101562 48.882812 20.753906 49.035156 20.375 49.035156 C 19.613281 49.035156 18.996094 48.417969 18.996094 47.660156 C 18.996094 46.898438 19.613281 46.28125 20.375 46.28125 Z M 22.867188 44.390625 C 22.882812 44.390625 22.894531 44.40625 22.894531 44.421875 C 22.894531 44.402344 22.878906 44.390625 22.863281 44.390625 C 22.863281 44.390625 22.867188 44.390625 22.867188 44.390625 Z M 17.769531 44.390625 C 17.769531 44.390625 17.769531 44.390625 17.773438 44.390625 C 17.753906 44.390625 17.742188 44.402344 17.742188 44.417969 C 17.742188 44.402344 17.753906 44.390625 17.769531 44.390625 Z M 20.230469 49.410156 C 20.296875 49.417969 20.359375 49.421875 20.421875 49.421875 C 20.414062 49.421875 20.40625 49.421875 20.398438 49.421875 C 20.34375 49.421875 20.289062 49.417969 20.230469 49.410156 Z M 19.855469 49.34375 C 19.949219 49.371094 20.042969 49.390625 20.136719 49.402344 C 20.042969 49.390625 19.949219 49.371094 19.855469 49.34375 Z M 20.628906 49.402344 C 20.660156 49.398438 20.695312 49.398438 20.730469 49.390625 C 20.695312 49.398438 20.660156 49.398438 20.628906 49.402344 Z M 20.628906 49.402344 " fill-opacity="1" fill-rule="nonzero"/><path fill="#7b5e44" d="M 26.726562 49.503906 C 26.78125 49.65625 26.902344 49.78125 27.054688 49.84375 C 27.191406 49.902344 27.328125 49.949219 27.453125 49.984375 L 27.453125 52.640625 C 27.316406 52.679688 27.183594 52.726562 27.058594 52.777344 C 26.902344 52.839844 26.78125 52.96875 26.722656 53.125 C 26.664062 53.285156 26.679688 53.460938 26.761719 53.613281 C 26.773438 53.636719 26.796875 53.65625 26.824219 53.664062 C 26.847656 53.671875 26.878906 53.664062 26.902344 53.652344 C 27.875 53.039062 29.632812 53.042969 30.660156 53.660156 C 30.675781 53.667969 30.695312 53.671875 30.710938 53.671875 C 30.722656 53.671875 30.734375 53.671875 30.742188 53.667969 C 30.769531 53.660156 30.792969 53.640625 30.804688 53.613281 L 30.824219 53.566406 C 30.886719 53.421875 30.890625 53.261719 30.828125 53.113281 C 30.769531 52.964844 30.660156 52.847656 30.511719 52.785156 C 30.367188 52.722656 30.222656 52.675781 30.085938 52.640625 L 30.085938 49.988281 C 30.214844 49.949219 30.351562 49.902344 30.484375 49.851562 C 30.640625 49.789062 30.761719 49.660156 30.820312 49.503906 C 30.878906 49.347656 30.867188 49.171875 30.792969 49.023438 C 30.777344 49 30.757812 48.980469 30.730469 48.972656 C 30.703125 48.964844 30.675781 48.96875 30.652344 48.984375 C 29.769531 49.511719 28.007812 49.636719 26.898438 48.972656 C 26.875 48.960938 26.847656 48.953125 26.820312 48.960938 C 26.792969 48.96875 26.769531 48.988281 26.757812 49.015625 L 26.75 49.03125 C 26.675781 49.175781 26.667969 49.351562 26.726562 49.503906 Z M 29.363281 50.125 L 29.363281 52.503906 C 28.972656 52.457031 28.574219 52.457031 28.179688 52.503906 L 28.179688 50.125 C 28.570312 50.171875 28.96875 50.171875 29.363281 50.125 Z M 29.363281 50.125 " fill-opacity="1" fill-rule="nonzero"/><path fill="#7b5e44" d="M 36.890625 52.3125 C 36.929688 52.316406 36.964844 52.316406 37.003906 52.316406 C 37.183594 52.316406 37.359375 52.277344 37.535156 52.195312 C 37.96875 51.972656 38.226562 51.5625 38.226562 51.09375 C 38.230469 50.660156 38.011719 50.269531 37.652344 50.039062 C 38.226562 49.828125 39.089844 49.800781 39.824219 50.210938 C 40.117188 50.371094 40.492188 50.292969 40.695312 50.019531 C 40.726562 49.980469 40.71875 49.921875 40.675781 49.886719 C 39.410156 48.902344 37.632812 48.890625 36.449219 49.867188 C 36.027344 50.210938 35.789062 50.632812 35.773438 51.0625 C 35.761719 51.410156 35.898438 51.730469 36.171875 51.984375 C 36.375 52.171875 36.628906 52.285156 36.890625 52.3125 Z M 36.519531 51.082031 C 36.519531 50.816406 36.734375 50.601562 37 50.601562 C 37.261719 50.601562 37.480469 50.816406 37.480469 51.082031 C 37.480469 51.347656 37.261719 51.5625 37 51.5625 C 36.734375 51.5625 36.519531 51.347656 36.519531 51.082031 Z M 36.519531 51.082031 " fill-opacity="1" fill-rule="nonzero"/><path fill="#7b5e44" d="M 40.628906 50.910156 C 40.425781 50.722656 40.171875 50.605469 39.910156 50.582031 C 39.691406 50.558594 39.476562 50.597656 39.265625 50.699219 C 38.832031 50.917969 38.574219 51.332031 38.574219 51.796875 C 38.574219 52.230469 38.789062 52.625 39.148438 52.851562 C 38.574219 53.0625 37.710938 53.089844 36.976562 52.683594 C 36.683594 52.519531 36.308594 52.601562 36.105469 52.871094 C 36.074219 52.914062 36.082031 52.972656 36.125 53.003906 C 36.761719 53.5 37.53125 53.75 38.285156 53.75 C 39.03125 53.75 39.765625 53.507812 40.351562 53.023438 C 40.773438 52.683594 41.011719 52.257812 41.027344 51.832031 C 41.039062 51.480469 40.902344 51.164062 40.628906 50.910156 Z M 40.28125 51.808594 C 40.28125 52.074219 40.066406 52.289062 39.800781 52.289062 C 39.539062 52.289062 39.320312 52.074219 39.320312 51.808594 C 39.320312 51.546875 39.539062 51.328125 39.800781 51.328125 C 40.066406 51.328125 40.28125 51.546875 40.28125 51.808594 Z M 40.28125 51.808594 " fill-opacity="1" fill-rule="nonzero"/><path fill="#7b5e44" d="M 47.398438 43.890625 C 46.871094 43.792969 46.328125 43.953125 45.941406 44.328125 C 45.5625 44.699219 45.386719 45.226562 45.4375 45.832031 C 44.910156 45.640625 44.320312 45.835938 44.027344 46.328125 C 43.84375 46.640625 43.8125 47.03125 43.945312 47.375 C 44.125 47.828125 44.554688 48.097656 45.066406 48.097656 C 45.574219 48.085938 45.992188 47.773438 46.15625 47.28125 C 46.253906 46.945312 46.207031 46.550781 46.164062 46.171875 C 46.136719 45.945312 46.113281 45.734375 46.117188 45.539062 C 46.121094 45.351562 46.167969 45.171875 46.261719 45.019531 C 46.464844 44.675781 46.859375 44.492188 47.25 44.550781 C 47.632812 44.605469 47.917969 44.867188 48.019531 45.25 C 48.097656 45.554688 48.054688 45.875 47.894531 46.148438 C 47.730469 46.4375 47.472656 46.652344 47.199219 46.886719 C 46.875 47.164062 46.535156 47.449219 46.355469 47.871094 C 46.261719 48.085938 46.226562 48.316406 46.246094 48.539062 C 46.3125 49.203125 46.832031 49.539062 47.316406 49.574219 C 47.34375 49.578125 47.375 49.578125 47.40625 49.578125 C 47.875 49.578125 48.390625 49.300781 48.558594 48.65625 L 48.574219 48.585938 L 48.5 48.480469 L 48.445312 48.46875 C 48.195312 48.425781 47.945312 48.519531 47.792969 48.722656 C 47.625 48.941406 47.375 48.9375 47.210938 48.867188 C 47.042969 48.792969 46.867188 48.605469 46.921875 48.3125 C 46.972656 47.96875 47.28125 47.703125 47.640625 47.394531 C 47.996094 47.089844 48.398438 46.742188 48.597656 46.25 C 48.816406 45.742188 48.804688 45.210938 48.570312 44.757812 C 48.34375 44.316406 47.917969 44 47.398438 43.890625 Z M 45.523438 47.023438 C 45.5 47.15625 45.425781 47.269531 45.316406 47.34375 C 45.207031 47.417969 45.074219 47.449219 44.941406 47.421875 C 44.671875 47.371094 44.496094 47.109375 44.542969 46.839844 C 44.570312 46.707031 44.644531 46.59375 44.753906 46.519531 C 44.835938 46.460938 44.933594 46.429688 45.035156 46.429688 C 45.066406 46.429688 45.097656 46.433594 45.125 46.441406 C 45.398438 46.488281 45.574219 46.75 45.523438 47.023438 Z M 45.523438 47.023438 " fill-opacity="1" fill-rule="nonzero"/><path fill="#7b5e44" d="M 52.777344 40.457031 C 52.707031 40.402344 52.667969 40.320312 52.667969 40.234375 C 52.667969 40.21875 52.675781 40.203125 52.6875 40.199219 C 54.210938 39.308594 54.367188 36.957031 52.710938 37.167969 C 52.6875 37.171875 52.664062 37.15625 52.664062 37.132812 C 52.582031 36.25 51.621094 35.867188 50.976562 36.371094 C 50.960938 36.382812 50.941406 36.382812 50.925781 36.371094 C 50.558594 36.089844 50.050781 36.066406 49.667969 36.34375 C 49.652344 36.355469 49.632812 36.355469 49.617188 36.34375 L 49.402344 36.164062 C 49.140625 35.949219 48.75 36.007812 48.566406 36.292969 C 48.558594 36.308594 48.558594 36.332031 48.574219 36.347656 L 49.214844 37.027344 C 49.226562 37.039062 49.234375 37.054688 49.234375 37.074219 L 49.234375 39.558594 C 49.234375 39.679688 49.332031 39.777344 49.453125 39.777344 L 49.761719 39.777344 C 49.882812 39.777344 49.980469 39.679688 49.980469 39.558594 L 49.980469 37.117188 C 49.980469 36.996094 50.078125 36.894531 50.199219 36.894531 L 50.359375 36.894531 C 50.480469 36.894531 50.578125 36.996094 50.578125 37.117188 L 50.578125 39.558594 C 50.578125 39.679688 50.675781 39.777344 50.800781 39.777344 L 51.105469 39.777344 C 51.226562 39.777344 51.324219 39.679688 51.324219 39.558594 L 51.324219 37.121094 C 51.324219 37 51.421875 36.902344 51.542969 36.902344 L 51.699219 36.902344 C 51.820312 36.902344 51.917969 37 51.917969 37.121094 L 51.917969 40.242188 C 51.917969 40.425781 51.964844 40.609375 52.0625 40.765625 C 52.261719 41.097656 52.613281 41.257812 52.824219 41.027344 C 52.910156 40.9375 52.945312 40.8125 52.929688 40.6875 C 52.910156 40.558594 52.839844 40.503906 52.777344 40.457031 Z M 52.714844 37.894531 L 53.097656 37.894531 C 53.125 37.894531 53.144531 37.914062 53.148438 37.9375 C 53.191406 38.480469 52.996094 38.933594 52.734375 39.210938 C 52.710938 39.234375 52.667969 39.21875 52.667969 39.183594 L 52.667969 37.941406 C 52.667969 37.914062 52.6875 37.894531 52.714844 37.894531 Z M 52.714844 37.894531 " fill-opacity="1" fill-rule="nonzero"/><path fill="#7b5e44" d="M 53.367188 28.769531 C 53.414062 28.398438 53.351562 28.015625 53.195312 27.667969 C 53.035156 27.320312 52.785156 27.023438 52.46875 26.808594 C 52.136719 26.582031 51.742188 26.460938 51.316406 26.457031 C 50.886719 26.46875 50.480469 26.597656 50.148438 26.828125 C 49.835938 27.042969 49.589844 27.347656 49.4375 27.699219 C 49.285156 28.050781 49.230469 28.433594 49.285156 28.8125 C 49.3125 29 49.363281 29.179688 49.441406 29.351562 L 48.914062 29.351562 C 48.765625 29.351562 48.644531 29.472656 48.644531 29.625 L 48.644531 29.726562 C 48.644531 29.875 48.765625 29.996094 48.914062 29.996094 L 50.175781 29.996094 C 50.277344 29.996094 50.367188 29.9375 50.410156 29.847656 C 50.449219 29.753906 50.433594 29.648438 50.367188 29.574219 L 50.269531 29.460938 C 49.898438 29.042969 49.804688 28.46875 50.027344 27.957031 C 50.253906 27.4375 50.738281 27.117188 51.324219 27.101562 C 51.882812 27.105469 52.375 27.429688 52.609375 27.9375 C 52.84375 28.445312 52.753906 29.019531 52.378906 29.46875 L 52.285156 29.578125 C 52.21875 29.65625 52.207031 29.757812 52.25 29.851562 C 52.289062 29.941406 52.378906 29.996094 52.480469 29.996094 L 53.730469 29.996094 C 53.878906 29.996094 54 29.875 54 29.726562 L 54 29.625 C 54 29.472656 53.878906 29.351562 53.730469 29.351562 L 53.203125 29.351562 C 53.285156 29.167969 53.339844 28.972656 53.367188 28.769531 Z M 53.367188 28.769531 " fill-opacity="1" fill-rule="nonzero"/><path fill="#7b5e44" d="M 48.914062 30.167969 L 53.730469 30.167969 C 53.878906 30.167969 54 30.289062 54 30.4375 L 54 30.542969 C 54 30.691406 53.878906 30.8125 53.730469 30.8125 L 48.914062 30.8125 C 48.765625 30.8125 48.644531 30.691406 48.644531 30.539062 L 48.644531 30.4375 C 48.644531 30.289062 48.765625 30.167969 48.914062 30.167969 Z M 48.914062 30.167969 " fill-opacity="1" fill-rule="nonzero"/><path fill="#7b5e44" d="M 44.738281 18.617188 C 44.71875 18.636719 44.683594 18.636719 44.660156 18.617188 C 44.644531 18.601562 44.628906 18.585938 44.609375 18.570312 C 44.328125 18.3125 43.875 18.511719 43.875 18.894531 C 43.875 18.917969 43.886719 18.9375 43.910156 18.949219 C 43.914062 18.949219 43.914062 18.953125 43.917969 18.953125 C 44.210938 19.089844 44.394531 19.390625 44.394531 19.710938 L 44.394531 21.550781 C 44.394531 21.675781 44.496094 21.777344 44.621094 21.777344 L 44.878906 21.777344 C 45.003906 21.777344 45.105469 21.675781 45.105469 21.550781 L 45.105469 19.363281 C 45.105469 19.128906 45.296875 18.933594 45.535156 18.933594 L 45.742188 18.933594 C 45.980469 18.933594 46.171875 19.128906 46.171875 19.363281 L 46.171875 21.550781 C 46.171875 21.675781 46.273438 21.777344 46.398438 21.777344 L 46.65625 21.777344 C 46.78125 21.777344 46.882812 21.675781 46.882812 21.550781 L 46.882812 19.363281 C 46.882812 19.125 47.078125 18.929688 47.3125 18.929688 L 47.519531 18.929688 C 47.757812 18.929688 47.949219 19.125 47.949219 19.363281 L 47.949219 21.542969 C 47.949219 21.679688 47.964844 21.820312 48.003906 21.953125 C 48.082031 22.238281 48.238281 22.472656 48.449219 22.652344 C 48.734375 22.886719 49.164062 22.683594 49.164062 22.316406 C 49.164062 22.296875 49.152344 22.277344 49.132812 22.265625 C 48.9375 22.160156 48.820312 22.046875 48.742188 21.90625 C 48.6875 21.796875 48.660156 21.675781 48.660156 21.554688 L 48.660156 19.507812 C 48.660156 19.367188 48.640625 19.226562 48.597656 19.09375 C 48.296875 18.117188 47.117188 18 46.566406 18.5625 C 46.546875 18.582031 46.511719 18.585938 46.492188 18.566406 C 45.925781 18.058594 45.1875 18.152344 44.738281 18.617188 Z M 44.738281 18.617188 " fill-opacity="1" fill-rule="nonzero"/><path fill="#7b5e44" d="M 40.585938 14.101562 C 40.550781 13.914062 40.402344 13.765625 40.214844 13.730469 L 38.738281 13.445312 C 38.621094 13.421875 38.507812 13.445312 38.410156 13.511719 C 38.3125 13.578125 38.246094 13.679688 38.222656 13.792969 C 38.210938 13.859375 38.226562 13.929688 38.261719 13.988281 C 38.300781 14.046875 38.363281 14.085938 38.429688 14.097656 L 39.507812 14.304688 L 38.117188 15.695312 L 37.433594 15.011719 C 37.328125 14.90625 37.140625 14.90625 37.035156 15.011719 L 36.941406 15.105469 C 36.828125 15.214844 36.828125 15.394531 36.941406 15.507812 L 37.625 16.191406 L 36.191406 17.621094 C 36.082031 17.734375 36.082031 17.914062 36.191406 18.023438 L 36.285156 18.117188 C 36.339844 18.171875 36.410156 18.199219 36.488281 18.199219 C 36.5625 18.199219 36.632812 18.171875 36.6875 18.117188 L 38.117188 16.6875 L 38.804688 17.371094 C 38.914062 17.480469 39.09375 17.480469 39.203125 17.371094 L 39.296875 17.277344 C 39.351562 17.222656 39.382812 17.152344 39.382812 17.074219 C 39.382812 17 39.351562 16.929688 39.296875 16.875 L 38.613281 16.191406 L 40.003906 14.800781 L 40.207031 15.882812 C 40.234375 16.023438 40.367188 16.121094 40.511719 16.089844 C 40.625 16.066406 40.726562 16.003906 40.792969 15.90625 C 40.859375 15.808594 40.882812 15.691406 40.863281 15.578125 Z M 40.585938 14.101562 " fill-opacity="1" fill-rule="nonzero"/><path fill="#7b5e44" d="M 26.746094 13.976562 C 26.960938 13.996094 27.109375 14.082031 27.195312 14.238281 C 27.242188 14.320312 27.265625 14.417969 27.265625 14.515625 L 27.265625 17.214844 C 27.265625 17.335938 27.363281 17.429688 27.480469 17.429688 L 27.761719 17.429688 C 27.882812 17.429688 27.976562 17.335938 27.976562 17.214844 L 27.976562 14.359375 C 27.976562 14.152344 28.144531 13.988281 28.347656 13.988281 L 28.628906 13.988281 C 28.832031 13.988281 28.996094 14.152344 28.996094 14.359375 L 28.996094 17.636719 C 28.996094 17.753906 28.964844 17.863281 28.90625 17.953125 C 28.816406 18.089844 28.679688 18.164062 28.496094 18.175781 C 28.414062 18.183594 28.351562 18.253906 28.351562 18.335938 C 28.351562 18.503906 28.4375 18.65625 28.585938 18.742188 C 28.65625 18.78125 28.738281 18.804688 28.816406 18.804688 C 28.898438 18.804688 28.976562 18.78125 29.046875 18.742188 C 29.1875 18.660156 29.324219 18.542969 29.457031 18.378906 C 29.472656 18.359375 29.5 18.355469 29.519531 18.371094 C 29.886719 18.617188 30.3125 18.660156 30.691406 18.492188 C 31.074219 18.324219 31.355469 17.957031 31.417969 17.535156 C 31.476562 17.097656 31.304688 16.675781 30.953125 16.410156 C 30.605469 16.144531 30.144531 16.085938 29.757812 16.25 C 29.738281 16.257812 29.722656 16.25 29.714844 16.246094 C 29.707031 16.242188 29.695312 16.230469 29.695312 16.207031 L 29.695312 14.480469 C 29.695312 14.3125 29.664062 14.152344 29.601562 14.003906 C 29.445312 13.636719 29.113281 13.375 28.710938 13.300781 C 28.316406 13.230469 27.917969 13.34375 27.652344 13.617188 C 27.644531 13.625 27.632812 13.632812 27.621094 13.632812 C 27.609375 13.625 27.597656 13.625 27.589844 13.617188 C 27.496094 13.523438 27.390625 13.449219 27.277344 13.394531 C 27.128906 13.324219 26.960938 13.332031 26.824219 13.417969 C 26.683594 13.503906 26.601562 13.65625 26.601562 13.820312 C 26.601562 13.898438 26.664062 13.96875 26.746094 13.976562 Z M 30.726562 17.375 C 30.726562 17.65625 30.496094 17.886719 30.214844 17.886719 C 29.933594 17.886719 29.703125 17.65625 29.703125 17.375 C 29.703125 17.089844 29.933594 16.859375 30.214844 16.859375 C 30.496094 16.859375 30.726562 17.089844 30.726562 17.375 Z M 30.726562 17.375 " fill-opacity="1" fill-rule="nonzero"/><path fill="#7b5e44" d="M 17.3125 20.273438 C 17.390625 20.355469 17.492188 20.40625 17.609375 20.394531 C 17.722656 20.390625 17.828125 20.339844 17.898438 20.25 C 17.9375 20.199219 17.976562 20.148438 18.015625 20.097656 C 18.121094 19.957031 18.230469 19.8125 18.355469 19.710938 C 18.378906 19.691406 18.414062 19.691406 18.441406 19.707031 C 18.542969 19.78125 18.636719 19.878906 18.734375 19.980469 C 18.84375 20.09375 18.953125 20.207031 19.085938 20.296875 C 19.320312 20.453125 19.640625 20.441406 19.859375 20.257812 C 19.949219 20.183594 20.039062 20.089844 20.148438 19.976562 C 20.253906 19.871094 20.363281 19.757812 20.464844 19.679688 C 20.507812 19.644531 20.570312 19.644531 20.613281 19.679688 C 20.726562 19.761719 20.824219 19.871094 20.917969 19.972656 C 21.046875 20.109375 21.164062 20.238281 21.320312 20.324219 C 21.417969 20.378906 21.527344 20.40625 21.636719 20.40625 C 21.753906 20.40625 21.871094 20.375 21.976562 20.3125 C 22.109375 20.234375 22.226562 20.117188 22.351562 19.992188 C 22.46875 19.878906 22.589844 19.757812 22.714844 19.683594 C 22.730469 19.675781 22.75 19.675781 22.761719 19.6875 C 22.832031 19.75 22.910156 19.871094 23 20 C 23.050781 20.074219 23.105469 20.15625 23.164062 20.230469 C 23.230469 20.324219 23.332031 20.378906 23.445312 20.386719 C 23.558594 20.398438 23.667969 20.355469 23.746094 20.277344 C 23.820312 20.207031 23.824219 20.089844 23.753906 20.015625 C 23.660156 19.914062 23.574219 19.78125 23.496094 19.667969 C 23.390625 19.507812 23.285156 19.359375 23.164062 19.246094 C 22.960938 19.058594 22.664062 19.027344 22.421875 19.164062 C 22.226562 19.273438 22.070312 19.429688 21.929688 19.570312 C 21.832031 19.667969 21.742188 19.757812 21.671875 19.800781 C 21.648438 19.8125 21.628906 19.8125 21.609375 19.800781 C 21.539062 19.765625 21.449219 19.664062 21.355469 19.5625 C 21.25 19.449219 21.128906 19.316406 20.972656 19.199219 C 20.714844 19.007812 20.359375 19.007812 20.105469 19.203125 C 19.964844 19.3125 19.835938 19.441406 19.707031 19.574219 C 19.625 19.660156 19.546875 19.742188 19.480469 19.796875 C 19.460938 19.8125 19.4375 19.8125 19.417969 19.800781 C 19.335938 19.746094 19.253906 19.65625 19.160156 19.5625 C 19.054688 19.453125 18.9375 19.332031 18.789062 19.222656 C 18.542969 19.046875 18.203125 19.058594 17.972656 19.253906 C 17.800781 19.394531 17.671875 19.566406 17.539062 19.738281 C 17.464844 19.839844 17.390625 19.933594 17.3125 20.011719 C 17.246094 20.085938 17.246094 20.203125 17.3125 20.273438 Z M 17.3125 20.273438 " fill-opacity="1" fill-rule="nonzero"/><path fill="#7b5e44" d="M 23.496094 21.253906 L 23.492188 21.25 C 23.386719 21.09375 23.285156 20.945312 23.164062 20.832031 C 22.960938 20.644531 22.664062 20.613281 22.421875 20.75 C 22.226562 20.863281 22.070312 21.019531 21.929688 21.15625 C 21.832031 21.253906 21.742188 21.34375 21.671875 21.386719 C 21.648438 21.398438 21.628906 21.398438 21.609375 21.390625 C 21.539062 21.351562 21.449219 21.25 21.359375 21.15625 C 21.25 21.035156 21.128906 20.902344 20.972656 20.789062 C 20.714844 20.59375 20.359375 20.597656 20.105469 20.789062 C 19.964844 20.898438 19.835938 21.027344 19.714844 21.15625 C 19.628906 21.242188 19.550781 21.324219 19.480469 21.382812 C 19.460938 21.398438 19.4375 21.398438 19.417969 21.386719 C 19.335938 21.332031 19.253906 21.242188 19.160156 21.148438 C 19.054688 21.039062 18.9375 20.917969 18.789062 20.808594 C 18.539062 20.632812 18.203125 20.644531 17.972656 20.839844 C 17.800781 20.984375 17.667969 21.152344 17.539062 21.324219 C 17.464844 21.425781 17.390625 21.519531 17.316406 21.597656 C 17.242188 21.671875 17.242188 21.789062 17.3125 21.863281 C 17.390625 21.941406 17.503906 21.984375 17.613281 21.980469 C 17.722656 21.976562 17.828125 21.921875 17.898438 21.835938 C 17.9375 21.785156 17.976562 21.734375 18.015625 21.683594 C 18.121094 21.542969 18.234375 21.398438 18.355469 21.296875 C 18.378906 21.277344 18.414062 21.273438 18.441406 21.296875 C 18.542969 21.371094 18.640625 21.46875 18.734375 21.566406 C 18.839844 21.675781 18.949219 21.792969 19.085938 21.882812 C 19.320312 22.042969 19.640625 22.027344 19.859375 21.84375 C 19.953125 21.765625 20.046875 21.671875 20.144531 21.570312 C 20.25 21.457031 20.363281 21.34375 20.464844 21.265625 C 20.507812 21.234375 20.570312 21.230469 20.613281 21.265625 C 20.726562 21.347656 20.824219 21.457031 20.917969 21.558594 C 21.039062 21.691406 21.164062 21.824219 21.320312 21.910156 C 21.417969 21.964844 21.527344 21.992188 21.636719 21.992188 C 21.753906 21.992188 21.871094 21.960938 21.976562 21.898438 C 22.109375 21.820312 22.226562 21.703125 22.351562 21.578125 C 22.46875 21.460938 22.589844 21.339844 22.714844 21.269531 C 22.730469 21.261719 22.75 21.261719 22.761719 21.273438 C 22.832031 21.339844 22.917969 21.464844 23 21.589844 C 23.050781 21.660156 23.105469 21.742188 23.164062 21.816406 C 23.230469 21.910156 23.332031 21.964844 23.445312 21.972656 C 23.5625 21.980469 23.667969 21.941406 23.746094 21.863281 C 23.820312 21.792969 23.824219 21.675781 23.753906 21.601562 C 23.660156 21.5 23.574219 21.367188 23.496094 21.253906 Z M 23.496094 21.253906 " fill-opacity="1" fill-rule="nonzero"/><path fill="#7b5e44" d="M 13.703125 25.996094 C 13.628906 25.996094 13.554688 26.023438 13.472656 26.105469 C 13.363281 26.214844 13.363281 26.394531 13.472656 26.507812 C 13.980469 27.027344 14.296875 27.703125 14.367188 28.421875 L 13.949219 28.421875 C 13.792969 28.421875 13.664062 28.550781 13.664062 28.707031 L 13.664062 28.75 C 13.664062 28.90625 13.792969 29.035156 13.949219 29.035156 L 14.371094 29.035156 C 14.304688 29.769531 13.988281 30.457031 13.480469 30.941406 C 13.367188 31.050781 13.363281 31.230469 13.496094 31.371094 C 13.546875 31.429688 13.621094 31.460938 13.699219 31.464844 L 13.835938 31.449219 L 13.902344 31.382812 C 14.242188 31.058594 14.507812 30.671875 14.695312 30.230469 C 14.855469 29.851562 14.953125 29.449219 14.984375 29.035156 L 16.34375 29.035156 C 16.371094 29.449219 16.46875 29.851562 16.632812 30.230469 C 16.820312 30.671875 17.085938 31.058594 17.421875 31.382812 C 17.476562 31.433594 17.546875 31.464844 17.621094 31.464844 L 17.628906 31.464844 C 17.707031 31.460938 17.777344 31.429688 17.855469 31.34375 C 17.960938 31.230469 17.957031 31.050781 17.84375 30.945312 C 17.339844 30.457031 17.019531 29.769531 16.953125 29.035156 L 17.375 29.035156 C 17.53125 29.035156 17.660156 28.90625 17.660156 28.707031 C 17.660156 28.550781 17.53125 28.421875 17.375 28.421875 L 16.957031 28.421875 C 17.03125 27.699219 17.34375 27.027344 17.851562 26.507812 C 17.960938 26.394531 17.960938 26.214844 17.824219 26.078125 C 17.769531 26.023438 17.699219 25.996094 17.621094 25.996094 C 17.542969 25.996094 17.472656 26.023438 17.417969 26.078125 C 17.0625 26.441406 16.789062 26.863281 16.601562 27.335938 C 16.464844 27.683594 16.378906 28.050781 16.347656 28.421875 L 14.980469 28.421875 C 14.949219 28.050781 14.863281 27.683594 14.722656 27.335938 C 14.539062 26.863281 14.261719 26.441406 13.90625 26.078125 C 13.855469 26.023438 13.78125 25.996094 13.703125 25.996094 Z M 13.703125 25.996094 " fill-opacity="1" fill-rule="nonzero"/><path fill="#7b5e44" d="M 39.914062 10.1875 C 40.09375 10.1875 40.238281 10.042969 40.238281 9.859375 C 40.238281 9.679688 40.09375 9.535156 39.914062 9.535156 C 39.734375 9.535156 39.585938 9.679688 39.585938 9.859375 C 39.585938 10.042969 39.734375 10.1875 39.914062 10.1875 Z M 39.914062 10.1875 " fill-opacity="1" fill-rule="nonzero"/><path fill="#7b5e44" d="M 27.492188 9.859375 C 27.492188 9.953125 27.460938 10.027344 27.398438 10.09375 C 27.332031 10.15625 27.257812 10.1875 27.164062 10.1875 C 27.074219 10.1875 27 10.15625 26.933594 10.09375 C 26.871094 10.027344 26.839844 9.953125 26.839844 9.859375 C 26.839844 9.769531 26.871094 9.695312 26.933594 9.628906 C 27 9.566406 27.074219 9.535156 27.164062 9.535156 C 27.257812 9.535156 27.332031 9.566406 27.398438 9.628906 C 27.460938 9.695312 27.492188 9.769531 27.492188 9.859375 Z M 27.492188 9.859375 " fill-opacity="1" fill-rule="nonzero"/><path fill="#7b5e44" d="M 16.632812 16.148438 C 16.632812 16.238281 16.597656 16.3125 16.535156 16.378906 C 16.472656 16.441406 16.394531 16.472656 16.304688 16.472656 C 16.214844 16.472656 16.136719 16.441406 16.074219 16.378906 C 16.007812 16.3125 15.976562 16.238281 15.976562 16.148438 C 15.976562 16.054688 16.007812 15.980469 16.074219 15.914062 C 16.136719 15.851562 16.214844 15.820312 16.304688 15.820312 C 16.394531 15.820312 16.472656 15.851562 16.535156 15.914062 C 16.597656 15.980469 16.632812 16.054688 16.632812 16.148438 Z M 16.632812 16.148438 " fill-opacity="1" fill-rule="nonzero"/><path fill="#7b5e44" d="M 51.125 16.148438 C 51.125 16.238281 51.09375 16.3125 51.03125 16.378906 C 50.96875 16.441406 50.890625 16.472656 50.800781 16.472656 C 50.710938 16.472656 50.632812 16.441406 50.570312 16.378906 C 50.503906 16.3125 50.472656 16.238281 50.472656 16.148438 C 50.472656 16.054688 50.503906 15.980469 50.570312 15.914062 C 50.632812 15.851562 50.710938 15.820312 50.800781 15.820312 C 50.890625 15.820312 50.96875 15.851562 51.03125 15.914062 C 51.09375 15.980469 51.125 16.054688 51.125 16.148438 Z M 51.125 16.148438 " fill-opacity="1" fill-rule="nonzero"/><path fill="#7b5e44" d="M 16.632812 50.992188 C 16.632812 51.085938 16.597656 51.160156 16.535156 51.226562 C 16.472656 51.289062 16.394531 51.320312 16.304688 51.320312 C 16.214844 51.320312 16.136719 51.289062 16.074219 51.226562 C 16.007812 51.160156 15.976562 51.085938 15.976562 50.992188 C 15.976562 50.902344 16.007812 50.828125 16.074219 50.761719 C 16.136719 50.699219 16.214844 50.667969 16.304688 50.667969 C 16.394531 50.667969 16.472656 50.699219 16.535156 50.761719 C 16.597656 50.828125 16.632812 50.902344 16.632812 50.992188 Z M 16.632812 50.992188 " fill-opacity="1" fill-rule="nonzero"/><path fill="#7b5e44" d="M 51.125 50.992188 C 51.125 51.085938 51.09375 51.160156 51.03125 51.226562 C 50.96875 51.289062 50.890625 51.320312 50.800781 51.320312 C 50.710938 51.320312 50.632812 51.289062 50.570312 51.226562 C 50.503906 51.160156 50.472656 51.085938 50.472656 50.992188 C 50.472656 50.902344 50.503906 50.828125 50.570312 50.761719 C 50.632812 50.699219 50.710938 50.667969 50.800781 50.667969 C 50.890625 50.667969 50.96875 50.699219 51.03125 50.761719 C 51.09375 50.828125 51.125 50.902344 51.125 50.992188 Z M 51.125 50.992188 " fill-opacity="1" fill-rule="nonzero"/><path fill="#7b5e44" d="M 10.21875 27.199219 C 10.21875 27.292969 10.1875 27.367188 10.125 27.433594 C 10.0625 27.496094 9.984375 27.527344 9.894531 27.527344 C 9.804688 27.527344 9.726562 27.496094 9.664062 27.433594 C 9.597656 27.367188 9.566406 27.292969 9.566406 27.199219 C 9.566406 27.109375 9.597656 27.035156 9.664062 26.96875 C 9.726562 26.90625 9.804688 26.875 9.894531 26.875 C 9.984375 26.875 10.0625 26.90625 10.125 26.96875 C 10.1875 27.035156 10.21875 27.109375 10.21875 27.199219 Z M 10.21875 27.199219 " fill-opacity="1" fill-rule="nonzero"/><path fill="#7b5e44" d="M 10.21875 40.117188 C 10.21875 40.207031 10.1875 40.28125 10.125 40.347656 C 10.0625 40.410156 9.984375 40.441406 9.894531 40.441406 C 9.804688 40.441406 9.726562 40.410156 9.664062 40.347656 C 9.597656 40.28125 9.566406 40.207031 9.566406 40.117188 C 9.566406 40.027344 9.597656 39.949219 9.664062 39.882812 C 9.726562 39.820312 9.804688 39.789062 9.894531 39.789062 C 9.984375 39.789062 10.0625 39.820312 10.125 39.882812 C 10.1875 39.949219 10.21875 40.027344 10.21875 40.117188 Z M 10.21875 40.117188 " fill-opacity="1" fill-rule="nonzero"/><path fill="#7b5e44" d="M 57.550781 27.199219 C 57.550781 27.292969 57.519531 27.367188 57.453125 27.433594 C 57.390625 27.496094 57.3125 27.527344 57.222656 27.527344 C 57.132812 27.527344 57.054688 27.496094 56.992188 27.433594 C 56.929688 27.367188 56.898438 27.292969 56.898438 27.199219 C 56.898438 27.109375 56.929688 27.035156 56.992188 26.96875 C 57.054688 26.90625 57.132812 26.875 57.222656 26.875 C 57.3125 26.875 57.390625 26.90625 57.453125 26.96875 C 57.519531 27.035156 57.550781 27.109375 57.550781 27.199219 Z M 57.550781 27.199219 " fill-opacity="1" fill-rule="nonzero"/><path fill="#7b5e44" d="M 57.550781 40.117188 C 57.550781 40.207031 57.519531 40.28125 57.453125 40.347656 C 57.390625 40.410156 57.3125 40.441406 57.222656 40.441406 C 57.132812 40.441406 57.054688 40.410156 56.992188 40.347656 C 56.929688 40.28125 56.898438 40.207031 56.898438 40.117188 C 56.898438 40.027344 56.929688 39.949219 56.992188 39.882812 C 57.054688 39.820312 57.132812 39.789062 57.222656 39.789062 C 57.3125 39.789062 57.390625 39.820312 57.453125 39.882812 C 57.519531 39.949219 57.550781 40.027344 57.550781 40.117188 Z M 57.550781 40.117188 " fill-opacity="1" fill-rule="nonzero"/><path fill="#7b5e44" d="M 39.914062 56.925781 C 39.734375 56.925781 39.585938 57.074219 39.585938 57.253906 C 39.585938 57.433594 39.734375 57.582031 39.914062 57.582031 C 40.09375 57.582031 40.238281 57.433594 40.238281 57.253906 C 40.238281 57.074219 40.09375 56.925781 39.914062 56.925781 Z M 39.914062 56.925781 " fill-opacity="1" fill-rule="nonzero"/><path fill="#7b5e44" d="M 27.164062 56.925781 C 26.984375 56.925781 26.839844 57.074219 26.839844 57.253906 C 26.839844 57.433594 26.984375 57.582031 27.164062 57.582031 C 27.347656 57.582031 27.492188 57.433594 27.492188 57.253906 C 27.492188 57.074219 27.347656 56.925781 27.164062 56.925781 Z M 27.164062 56.925781 " fill-opacity="1" fill-rule="nonzero"/></g></g></g></svg>