<svg xmlns="http://www.w3.org/2000/svg" xmlns:xlink="http://www.w3.org/1999/xlink" width="91" zoomAndPan="magnify" viewBox="0 0 68.25 68.249997" height="91" preserveAspectRatio="xMidYMid meet" version="1.0"><defs><clipPath id="7369ddf7a5"><path d="M 0 0 L 67.085938 0 L 67.085938 67.085938 L 0 67.085938 Z M 0 0 " clip-rule="nonzero"/></clipPath><clipPath id="2001092ec7"><path d="M 33.542969 0 C 15.019531 0 0 15.019531 0 33.542969 C 0 52.070312 15.019531 67.085938 33.542969 67.085938 C 52.070312 67.085938 67.085938 52.070312 67.085938 33.542969 C 67.085938 15.019531 52.070312 0 33.542969 0 Z M 33.542969 0 " clip-rule="nonzero"/></clipPath><clipPath id="5cbbf08961"><path d="M 0 0 L 67.085938 0 L 67.085938 67.085938 L 0 67.085938 Z M 0 0 " clip-rule="nonzero"/></clipPath><clipPath id="781ff6d190"><path d="M 33.542969 0 C 15.019531 0 0 15.019531 0 33.542969 C 0 52.070312 15.019531 67.085938 33.542969 67.085938 C 52.070312 67.085938 67.085938 52.070312 67.085938 33.542969 C 67.085938 15.019531 52.070312 0 33.542969 0 Z M 33.542969 0 " clip-rule="nonzero"/></clipPath><clipPath id="17c1d6240d"><rect x="0" width="68" y="0" height="68"/></clipPath><clipPath id="231b1093c2"><path d="M 6 20 L 42 20 L 42 49 L 6 49 Z M 6 20 " clip-rule="nonzero"/></clipPath><clipPath id="a881ae3d29"><path d="M 4.707031 22.445312 L 57.84375 17.027344 L 60.554688 43.59375 L 7.417969 49.011719 Z M 4.707031 22.445312 " clip-rule="nonzero"/></clipPath><clipPath id="9ac0a6177a"><path d="M 4.707031 22.445312 L 57.84375 17.027344 L 60.554688 43.59375 L 7.417969 49.011719 Z M 4.707031 22.445312 " clip-rule="nonzero"/></clipPath><clipPath id="13e16cb9f6"><path d="M 39 20 L 60 20 L 60 35 L 39 35 Z M 39 20 " clip-rule="nonzero"/></clipPath><clipPath id="6701d93af8"><path d="M 4.707031 22.445312 L 57.84375 17.027344 L 60.554688 43.59375 L 7.417969 49.011719 Z M 4.707031 22.445312 " clip-rule="nonzero"/></clipPath><clipPath id="8b51cf3d28"><path d="M 4.707031 22.445312 L 57.84375 17.027344 L 60.554688 43.59375 L 7.417969 49.011719 Z M 4.707031 22.445312 " clip-rule="nonzero"/></clipPath></defs><g clip-path="url(#7369ddf7a5)"><g clip-path="url(#2001092ec7)"><g transform="matrix(1, 0, 0, 1, 0, 0.000000000000010845)"><g clip-path="url(#17c1d6240d)"><g clip-path="url(#5cbbf08961)"><g clip-path="url(#781ff6d190)"><path fill="#e9e3d8" d="M 0 0 L 67.085938 0 L 67.085938 67.085938 L 0 67.085938 Z M 0 0 " fill-opacity="1" fill-rule="nonzero"/></g></g></g></g></g></g><g clip-path="url(#231b1093c2)"><g clip-path="url(#a881ae3d29)"><g clip-path="url(#9ac0a6177a)"><path fill="#7b5e44" d="M 21.953125 32.414062 C 21.640625 30.992188 20.886719 30.6875 20.339844 30.605469 C 17.515625 30.164062 11.832031 34.675781 8.859375 36.078125 C 7.886719 36.539062 6.925781 36.769531 6.378906 36.234375 C 5.304688 35.195312 6.792969 31.832031 8.851562 28.851562 C 11.246094 25.382812 14.976562 21.597656 18.335938 21.054688 C 18.394531 21.046875 18.417969 21.0625 18.445312 21.082031 C 18.472656 21.101562 18.5 21.140625 18.503906 21.175781 C 18.511719 21.207031 18.503906 21.257812 18.480469 21.28125 C 18.453125 21.308594 18.421875 21.332031 18.34375 21.347656 C 13.144531 22.269531 6.769531 31.511719 6.503906 34.953125 C 6.429688 35.910156 6.859375 36.011719 7.023438 36.042969 C 7.722656 36.167969 8.894531 35.515625 9.558594 35.136719 C 13.113281 33.105469 18.417969 28.945312 21.121094 30.210938 C 21.707031 30.484375 22.144531 30.984375 22.414062 31.742188 C 23.414062 30.339844 24.367188 29.300781 25.105469 28.835938 C 25.253906 28.742188 25.949219 28.296875 26.476562 28.703125 C 26.882812 29.015625 27.007812 29.710938 26.832031 30.917969 C 26.941406 30.757812 27.070312 30.578125 27.222656 30.371094 C 27.226562 30.359375 27.289062 30.277344 27.308594 30.257812 C 27.328125 30.238281 27.445312 30.125 27.628906 30.171875 C 27.65625 30.179688 27.8125 30.222656 27.867188 30.402344 C 27.871094 30.417969 27.914062 30.6875 27.917969 30.710938 C 27.949219 30.917969 27.992188 31.203125 28.027344 31.472656 C 29.226562 30.015625 29.421875 29.785156 29.644531 29.679688 C 29.648438 29.679688 29.925781 29.542969 30.179688 29.703125 C 30.601562 29.964844 30.628906 30.835938 30.816406 31.476562 C 30.847656 31.589844 30.878906 31.660156 30.898438 31.703125 C 31.089844 31.535156 31.390625 31.046875 31.582031 30.8125 C 31.648438 30.730469 31.972656 30.3125 32.402344 30.488281 C 32.835938 30.660156 33.050781 31.339844 33.167969 31.546875 C 33.300781 31.78125 33.59375 32.152344 34.484375 31.769531 C 35.839844 31.191406 37.691406 29.25 39.132812 27.089844 C 39.984375 23.332031 40.625 21.554688 41.042969 21.027344 C 41.050781 21.019531 41.273438 20.707031 41.554688 20.816406 C 41.75 20.894531 41.882812 21.136719 41.855469 21.828125 C 41.78125 23.421875 40.773438 25.605469 39.445312 27.585938 C 38.960938 29.683594 38.386719 32.460938 37.726562 36.121094 C 37.394531 37.972656 37.246094 38.914062 37.136719 39.488281 C 37.128906 39.527344 37.105469 39.5625 37.078125 39.582031 C 37.050781 39.601562 37.003906 39.613281 36.96875 39.609375 C 36.9375 39.605469 36.894531 39.578125 36.875 39.550781 C 36.855469 39.523438 36.84375 39.480469 36.847656 39.445312 C 36.882812 39.1875 37.0625 38.117188 37.082031 38 C 37.734375 34.023438 38.320312 30.882812 38.839844 28.4375 C 37.480469 30.269531 35.910156 31.800781 34.675781 32.320312 C 33.054688 33.003906 32.589844 31.738281 32.535156 31.613281 C 32.351562 31.203125 32.375 30.96875 32.191406 31.054688 C 31.953125 31.167969 31.554688 32.085938 31.105469 32.296875 C 31.082031 32.308594 30.601562 32.554688 30.3125 31.921875 C 30.109375 31.476562 30.214844 30.234375 29.867188 30.292969 C 29.519531 30.347656 29.128906 31.15625 28.226562 32.257812 C 28.171875 32.328125 28.117188 32.394531 28.058594 32.464844 C 27.945312 32.601562 27.792969 32.585938 27.769531 32.582031 C 27.589844 32.566406 27.519531 32.429688 27.507812 32.40625 C 27.503906 32.398438 27.484375 32.363281 27.476562 32.304688 C 27.476562 32.300781 27.542969 31.15625 27.339844 31.359375 C 27.140625 31.5625 26.753906 32.351562 26.269531 33.53125 C 26.152344 33.8125 26.132812 33.863281 26.113281 33.886719 C 26.027344 34.023438 25.890625 34.039062 25.871094 34.042969 C 25.710938 34.066406 25.609375 33.972656 25.59375 33.957031 C 25.472656 33.851562 25.476562 33.71875 25.480469 33.695312 C 25.484375 33.539062 25.804688 32.390625 25.894531 32.027344 C 26.179688 30.882812 26.3125 29.703125 26.082031 29.316406 C 26.042969 29.25 26.007812 29.21875 25.867188 29.253906 C 25.285156 29.402344 24.085938 30.542969 22.644531 32.695312 C 22.863281 34.144531 22.683594 36.222656 22.058594 39.046875 C 21.121094 43.261719 19.34375 46.933594 18.171875 47.839844 C 17.59375 48.289062 17.132812 48.078125 16.925781 47.691406 C 16.816406 47.496094 16.539062 46.898438 16.894531 44.648438 C 17.578125 40.351562 19.808594 35.625 21.953125 32.414062 Z M 39.828125 25.976562 C 40.691406 24.5 41.296875 23.007812 41.371094 21.855469 C 41.382812 21.679688 41.378906 21.554688 41.375 21.484375 C 41.375 21.441406 41.371094 21.40625 41.367188 21.375 C 41.117188 21.730469 40.613281 22.863281 39.828125 25.976562 Z M 22.085938 33.558594 C 21.960938 33.757812 21.839844 33.960938 21.710938 34.171875 C 19.679688 37.597656 17.894531 41.949219 17.5 45.628906 C 17.359375 46.945312 17.347656 47.5 17.648438 47.386719 C 17.949219 47.273438 18.429688 46.707031 19.300781 44.949219 C 19.765625 44.011719 20.738281 41.84375 21.421875 38.8125 C 21.957031 36.441406 22.132812 34.757812 22.085938 33.558594 Z M 22.085938 33.558594 " fill-opacity="1" fill-rule="evenodd"/></g></g></g><g clip-path="url(#13e16cb9f6)"><g clip-path="url(#6701d93af8)"><g clip-path="url(#8b51cf3d28)"><path fill="#7b5e44" d="M 43.714844 28.347656 C 43.464844 28.605469 42.851562 29.851562 42.121094 31.179688 C 41.117188 33 41.066406 33.082031 40.726562 33.691406 C 40.671875 33.78125 40.625 33.875 40.570312 33.964844 C 40.480469 34.125 40.324219 34.136719 40.296875 34.136719 C 40.269531 34.136719 40.113281 34.148438 40.003906 33.996094 C 39.917969 33.875 39.949219 33.753906 39.953125 33.730469 C 40.265625 32.464844 42.480469 23.734375 43.074219 21.691406 C 43.171875 21.359375 43.242188 21.140625 43.304688 20.941406 C 43.324219 20.886719 43.347656 20.875 43.378906 20.859375 C 43.410156 20.839844 43.457031 20.835938 43.488281 20.847656 C 43.519531 20.855469 43.554688 20.882812 43.574219 20.914062 C 43.589844 20.949219 43.589844 20.988281 43.585938 21.023438 C 43.582031 21.078125 43.519531 21.164062 43.152344 22.714844 C 42.949219 23.574219 42.675781 24.773438 42.644531 24.921875 L 41.152344 31.46875 C 42.019531 29.851562 42.101562 29.699219 42.410156 29.136719 C 43.160156 27.769531 43.398438 27.40625 43.746094 27.34375 C 44.082031 27.285156 44.3125 27.578125 44.371094 27.703125 C 44.554688 28.085938 44.386719 28.929688 44.320312 29.894531 C 44.296875 30.222656 44.292969 30.503906 44.324219 30.675781 C 44.488281 30.59375 44.878906 30.429688 46.09375 30.1875 C 50.035156 29.402344 58.164062 28.636719 59.113281 28.585938 C 59.171875 28.582031 59.195312 28.597656 59.222656 28.621094 C 59.246094 28.644531 59.269531 28.683594 59.269531 28.71875 C 59.273438 28.753906 59.261719 28.800781 59.234375 28.824219 C 59.207031 28.851562 59.179688 28.867188 59.109375 28.875 C 58.082031 28.972656 49.140625 30.109375 45.773438 30.929688 C 44.964844 31.128906 44.734375 31.230469 44.582031 31.3125 C 44.191406 31.527344 43.796875 31.390625 43.660156 30.90625 C 43.585938 30.660156 43.566406 30.289062 43.617188 29.617188 C 43.644531 29.238281 43.964844 28.085938 43.714844 28.347656 Z M 43.714844 28.347656 " fill-opacity="1" fill-rule="evenodd"/></g></g></g></svg>