<svg xmlns="http://www.w3.org/2000/svg" xmlns:xlink="http://www.w3.org/1999/xlink" width="91" zoomAndPan="magnify" viewBox="0 0 68.25 68.249997" height="91" preserveAspectRatio="xMidYMid meet" version="1.0"><defs><clipPath id="a5596218cc"><path d="M 0 0 L 67.507812 0 L 67.507812 67.507812 L 0 67.507812 Z M 0 0 " clip-rule="nonzero"/></clipPath><clipPath id="2cd556ba2e"><path d="M 0 0 L 67.085938 0 L 67.085938 67.085938 L 0 67.085938 Z M 0 0 " clip-rule="nonzero"/></clipPath><clipPath id="b1381430b9"><path d="M 33.542969 0 C 15.019531 0 0 15.019531 0 33.542969 C 0 52.070312 15.019531 67.085938 33.542969 67.085938 C 52.070312 67.085938 67.085938 52.070312 67.085938 33.542969 C 67.085938 15.019531 52.070312 0 33.542969 0 Z M 33.542969 0 " clip-rule="nonzero"/></clipPath><clipPath id="ac9ce5f394"><path d="M 0 0 L 67.085938 0 L 67.085938 67.085938 L 0 67.085938 Z M 0 0 " clip-rule="nonzero"/></clipPath><clipPath id="873cc8a50a"><path d="M 33.542969 0 C 15.019531 0 0 15.019531 0 33.542969 C 0 52.070312 15.019531 67.085938 33.542969 67.085938 C 52.070312 67.085938 67.085938 52.070312 67.085938 33.542969 C 67.085938 15.019531 52.070312 0 33.542969 0 Z M 33.542969 0 " clip-rule="nonzero"/></clipPath><clipPath id="3e9ebca072"><rect x="0" width="68" y="0" height="68"/></clipPath><clipPath id="84865607da"><path d="M 10.222656 19 L 31 19 L 31 49.148438 L 10.222656 49.148438 Z M 10.222656 19 " clip-rule="nonzero"/></clipPath><clipPath id="46aa453fd4"><path d="M 36 19 L 57 19 L 57 49.148438 L 36 49.148438 Z M 36 19 " clip-rule="nonzero"/></clipPath><clipPath id="de952790f9"><path d="M 32 17.628906 L 34 17.628906 L 34 22 L 32 22 Z M 32 17.628906 " clip-rule="nonzero"/></clipPath><clipPath id="462e27091d"><rect x="0" width="68" y="0" height="68"/></clipPath></defs><g clip-path="url(#a5596218cc)"><g transform="matrix(1, 0, 0, 1, 0, 0.000000000000010845)"><g clip-path="url(#462e27091d)"><g clip-path="url(#2cd556ba2e)"><g clip-path="url(#b1381430b9)"><g transform="matrix(1, 0, 0, 1, 0, 0.000000000000010845)"><g clip-path="url(#3e9ebca072)"><g clip-path="url(#ac9ce5f394)"><g clip-path="url(#873cc8a50a)"><path fill="#e9e3d8" d="M 0 0 L 67.085938 0 L 67.085938 67.085938 L 0 67.085938 Z M 0 0 " fill-opacity="1" fill-rule="nonzero"/></g></g></g></g></g></g><g clip-path="url(#84865607da)"><path fill="#7b5e44" d="M 24.34375 35.882812 C 23.394531 35.558594 22.597656 34.953125 22.101562 34.183594 C 20.078125 31.039062 20.191406 28.3125 20.292969 25.910156 C 20.371094 24.050781 20.4375 22.445312 19.464844 21.136719 C 18.816406 20.167969 17.90625 19.929688 16.832031 20.449219 C 16.3125 19.78125 15.671875 19.457031 14.941406 19.507812 C 14.300781 19.542969 13.773438 20.039062 13.664062 20.710938 C 13.355469 22.609375 12.558594 24.46875 11.785156 26.269531 C 11.261719 27.492188 10.765625 28.648438 10.460938 29.742188 C 10.171875 30.765625 10.167969 31.894531 10.449219 33.011719 C 11.742188 38.179688 15.402344 41.679688 21.648438 43.710938 C 22.261719 43.910156 22.652344 44.496094 22.597656 45.132812 L 22.230469 49.378906 L 23.066406 49.453125 L 23.433594 45.203125 C 23.523438 44.175781 22.894531 43.234375 21.90625 42.914062 C 15.960938 40.976562 12.476562 37.671875 11.261719 32.808594 C 11.015625 31.832031 11.019531 30.851562 11.265625 29.96875 C 11.558594 28.929688 12.042969 27.796875 12.558594 26.597656 C 13.347656 24.753906 14.164062 22.847656 14.492188 20.847656 C 14.539062 20.570312 14.746094 20.355469 14.992188 20.34375 C 15.449219 20.320312 15.839844 20.527344 16.1875 20.984375 C 16.214844 21.023438 16.246094 21.058594 16.28125 21.089844 C 16.457031 23.335938 16.003906 25.957031 14.910156 29.078125 C 14.894531 29.078125 14.878906 29.074219 14.863281 29.070312 C 14.339844 29.046875 13.898438 29.148438 13.546875 29.359375 C 12.867188 29.769531 12.667969 30.703125 13.097656 31.441406 C 13.640625 32.367188 14.027344 33.285156 14.402344 34.167969 C 15.46875 36.703125 16.480469 39.097656 20.816406 41.4375 C 20.914062 41.488281 21.039062 41.449219 21.09375 41.351562 C 21.253906 41.042969 21.140625 40.660156 20.839844 40.488281 C 17.082031 38.367188 16.195312 36.261719 15.171875 33.84375 C 14.789062 32.933594 14.394531 31.992188 13.824219 31.019531 C 13.644531 30.714844 13.667969 30.265625 13.980469 30.078125 C 14.1875 29.949219 14.476562 29.890625 14.792969 29.90625 C 16.550781 30.132812 17.050781 31.195312 17.6875 32.539062 C 18.507812 34.265625 19.527344 36.414062 23.808594 36.574219 C 23.894531 36.609375 23.984375 36.648438 24.074219 36.675781 C 26.355469 37.460938 30.152344 39.226562 29.96875 42.296875 L 29.96875 49.417969 L 30.804688 49.417969 L 30.804688 42.320312 C 30.964844 39.652344 28.671875 37.367188 24.34375 35.882812 Z M 18.445312 32.179688 C 17.882812 30.992188 17.300781 29.773438 15.734375 29.265625 C 16.8125 26.167969 17.269531 23.53125 17.128906 21.234375 C 17.140625 21.226562 17.15625 21.222656 17.167969 21.21875 C 17.875 20.867188 18.355469 20.980469 18.78125 21.617188 C 19.585938 22.707031 19.527344 24.105469 19.453125 25.875 C 19.355469 28.277344 19.226562 31.269531 21.398438 34.636719 C 21.609375 34.964844 21.863281 35.261719 22.152344 35.53125 C 19.789062 35.003906 19.105469 33.574219 18.445312 32.179688 Z M 18.445312 32.179688 " fill-opacity="1" fill-rule="nonzero"/></g><g clip-path="url(#46aa453fd4)"><path fill="#7b5e44" d="M 56.628906 29.742188 C 56.320312 28.648438 55.828125 27.492188 55.300781 26.269531 C 54.53125 24.46875 53.734375 22.609375 53.425781 20.710938 C 53.316406 20.039062 52.789062 19.542969 52.148438 19.507812 C 51.410156 19.457031 50.773438 19.78125 50.257812 20.449219 C 49.183594 19.929688 48.273438 20.167969 47.632812 21.117188 C 46.652344 22.445312 46.71875 24.050781 46.796875 25.910156 C 46.898438 28.3125 47.011719 31.039062 44.988281 34.183594 C 44.492188 34.953125 43.695312 35.558594 42.742188 35.882812 C 38.417969 37.367188 36.125 39.652344 36.285156 42.296875 L 36.285156 49.417969 L 37.121094 49.417969 L 37.121094 42.269531 C 36.9375 39.226562 40.734375 37.460938 43.015625 36.675781 C 43.105469 36.648438 43.195312 36.609375 43.28125 36.574219 C 47.5625 36.414062 48.582031 34.265625 49.402344 32.539062 C 50.039062 31.195312 50.539062 30.132812 52.261719 29.910156 C 52.621094 29.898438 52.902344 29.949219 53.109375 30.078125 C 53.421875 30.265625 53.445312 30.714844 53.265625 31.019531 C 52.695312 31.992188 52.300781 32.933594 51.914062 33.84375 C 50.894531 36.261719 50.007812 38.367188 46.25 40.488281 C 45.949219 40.660156 45.835938 41.042969 45.996094 41.351562 C 46.050781 41.449219 46.175781 41.488281 46.273438 41.4375 C 50.609375 39.097656 51.621094 36.703125 52.6875 34.167969 C 53.0625 33.285156 53.445312 32.367188 53.992188 31.441406 C 54.421875 30.703125 54.222656 29.769531 53.542969 29.359375 C 53.191406 29.148438 52.753906 29.054688 52.191406 29.074219 C 52.1875 29.074219 52.183594 29.074219 52.175781 29.074219 C 51.082031 25.957031 50.632812 23.335938 50.808594 21.085938 C 50.84375 21.058594 50.875 21.023438 50.902344 20.984375 C 51.25 20.527344 51.644531 20.324219 52.097656 20.34375 C 52.34375 20.355469 52.550781 20.570312 52.597656 20.84375 C 52.925781 22.847656 53.742188 24.753906 54.53125 26.597656 C 55.046875 27.796875 55.53125 28.929688 55.820312 29.96875 C 56.070312 30.851562 56.070312 31.832031 55.828125 32.808594 C 54.609375 37.671875 51.128906 40.976562 45.183594 42.914062 C 44.195312 43.234375 43.566406 44.175781 43.65625 45.203125 L 44.023438 49.453125 L 44.859375 49.378906 L 44.492188 45.132812 C 44.433594 44.496094 44.824219 43.910156 45.441406 43.710938 C 51.683594 41.679688 55.347656 38.179688 56.640625 33.011719 C 56.921875 31.894531 56.917969 30.765625 56.628906 29.742188 Z M 51.355469 29.257812 C 49.792969 29.761719 49.207031 30.988281 48.644531 32.179688 C 47.984375 33.574219 47.300781 35.003906 44.9375 35.53125 C 45.226562 35.261719 45.480469 34.964844 45.691406 34.636719 C 47.859375 31.269531 47.734375 28.277344 47.636719 25.875 C 47.5625 24.105469 47.503906 22.707031 48.320312 21.601562 C 48.734375 20.980469 49.214844 20.867188 49.917969 21.21875 C 49.933594 21.222656 49.949219 21.226562 49.960938 21.234375 C 49.820312 23.527344 50.277344 26.164062 51.355469 29.257812 Z M 51.355469 29.257812 " fill-opacity="1" fill-rule="nonzero"/></g><path fill="#7b5e44" d="M 34.996094 28.566406 C 34.207031 28.996094 33.632812 29.863281 33.195312 31.027344 C 33.15625 31.132812 33.003906 31.117188 32.984375 31.007812 C 32.53125 28.433594 34.246094 28.847656 34.421875 27.804688 C 34.667969 26.398438 34.414062 25.21875 33.511719 24.339844 C 33.394531 24.226562 33.199219 24.3125 33.199219 24.472656 C 33.230469 27.363281 31.277344 27.699219 31.453125 29.679688 C 31.53125 31.554688 32.710938 32.316406 33.523438 33.671875 C 33.613281 33.820312 33.839844 33.773438 33.855469 33.597656 C 34.027344 31.832031 34.449219 30.210938 35.199219 28.777344 C 35.265625 28.644531 35.128906 28.496094 34.996094 28.566406 Z M 34.996094 28.566406 " fill-opacity="1" fill-rule="nonzero"/><g clip-path="url(#de952790f9)"><path fill="#7b5e44" d="M 33.328125 21.234375 C 33.5625 21.234375 33.75 21.046875 33.75 20.816406 L 33.75 18.046875 C 33.75 17.816406 33.5625 17.628906 33.328125 17.628906 C 33.097656 17.628906 32.910156 17.816406 32.910156 18.046875 L 32.910156 20.816406 C 32.910156 21.046875 33.097656 21.234375 33.328125 21.234375 Z M 33.328125 21.234375 " fill-opacity="1" fill-rule="nonzero"/></g><path fill="#7b5e44" d="M 28.84375 20.117188 C 28.59375 19.867188 28.1875 19.867188 27.9375 20.117188 C 27.859375 20.191406 27.859375 20.320312 27.9375 20.394531 L 29.894531 22.355469 C 30.144531 22.605469 30.550781 22.605469 30.800781 22.355469 C 30.878906 22.277344 30.878906 22.152344 30.800781 22.074219 Z M 28.84375 20.117188 " fill-opacity="1" fill-rule="nonzero"/><path fill="#7b5e44" d="M 25.96875 24.800781 L 28.640625 25.519531 C 28.984375 25.609375 29.335938 25.40625 29.425781 25.066406 C 29.453125 24.960938 29.390625 24.851562 29.285156 24.824219 L 26.609375 24.105469 C 26.269531 24.015625 25.917969 24.214844 25.828125 24.558594 C 25.796875 24.664062 25.863281 24.773438 25.96875 24.800781 Z M 25.96875 24.800781 " fill-opacity="1" fill-rule="nonzero"/><path fill="#7b5e44" d="M 25.65625 28.691406 L 28.425781 28.691406 C 28.777344 28.691406 29.0625 28.40625 29.0625 28.050781 C 29.0625 27.941406 28.976562 27.855469 28.867188 27.855469 L 26.097656 27.855469 C 25.742188 27.855469 25.457031 28.140625 25.457031 28.492188 C 25.457031 28.601562 25.546875 28.691406 25.65625 28.691406 Z M 25.65625 28.691406 " fill-opacity="1" fill-rule="nonzero"/><path fill="#7b5e44" d="M 25.816406 32.554688 L 28.492188 31.835938 C 28.835938 31.746094 29.035156 31.394531 28.945312 31.054688 C 28.917969 30.949219 28.808594 30.886719 28.703125 30.914062 L 26.027344 31.628906 C 25.6875 31.722656 25.484375 32.074219 25.574219 32.414062 C 25.601562 32.519531 25.710938 32.582031 25.816406 32.554688 Z M 25.816406 32.554688 " fill-opacity="1" fill-rule="nonzero"/><path fill="#7b5e44" d="M 36.308594 22.355469 C 36.558594 22.605469 36.964844 22.605469 37.214844 22.355469 L 39.171875 20.394531 C 39.25 20.320312 39.25 20.191406 39.171875 20.117188 C 38.921875 19.867188 38.519531 19.867188 38.269531 20.117188 L 36.308594 22.074219 C 36.234375 22.152344 36.234375 22.277344 36.308594 22.355469 Z M 36.308594 22.355469 " fill-opacity="1" fill-rule="nonzero"/><path fill="#7b5e44" d="M 37.683594 25.066406 C 37.777344 25.40625 38.128906 25.609375 38.46875 25.519531 L 41.144531 24.800781 C 41.25 24.773438 41.3125 24.664062 41.285156 24.558594 C 41.191406 24.214844 40.839844 24.015625 40.5 24.105469 L 37.824219 24.824219 C 37.71875 24.851562 37.65625 24.960938 37.683594 25.066406 Z M 37.683594 25.066406 " fill-opacity="1" fill-rule="nonzero"/><path fill="#7b5e44" d="M 38.246094 27.855469 C 38.136719 27.855469 38.046875 27.941406 38.046875 28.050781 C 38.046875 28.40625 38.332031 28.691406 38.6875 28.691406 L 41.457031 28.691406 C 41.566406 28.691406 41.65625 28.601562 41.65625 28.492188 C 41.65625 28.140625 41.367188 27.855469 41.015625 27.855469 Z M 38.246094 27.855469 " fill-opacity="1" fill-rule="nonzero"/><path fill="#7b5e44" d="M 41.082031 31.628906 L 38.410156 30.914062 C 38.300781 30.886719 38.195312 30.949219 38.164062 31.054688 C 38.074219 31.394531 38.277344 31.746094 38.617188 31.835938 L 41.292969 32.554688 C 41.398438 32.582031 41.507812 32.519531 41.535156 32.414062 C 41.628906 32.074219 41.425781 31.722656 41.082031 31.628906 Z M 41.082031 31.628906 " fill-opacity="1" fill-rule="nonzero"/></g></g></g></svg>